<svg version="1.1" id="Layer_1" xmlns="http://www.w3.org/2000/svg" xmlns:xlink="http://www.w3.org/1999/xlink" x="0px" y="0px"
	 width="100%" viewBox="0 0 2048 2048" enable-background="new 0 0 2048 2048" xml:space="preserve">
<path fill="#000000" opacity="1.000000" stroke="none" 
	d="
M1872.000000,2049.000000 
	C1248.000000,2049.000000 624.500000,2049.000000 1.000000,2049.000000 
	C1.000000,1366.333374 1.000000,683.666687 1.000000,1.000000 
	C683.666687,1.000000 1366.333374,1.000000 2049.000000,1.000000 
	C2049.000000,683.666687 2049.000000,1366.333374 2049.000000,2049.000000 
	C1990.166626,2049.000000 1931.333374,2049.000000 1872.000000,2049.000000 
M440.605133,927.620667 
	C440.605133,927.620667 440.383514,927.744446 439.806244,927.518677 
	C439.536865,928.014771 439.267487,928.510803 438.713104,929.577148 
	C437.450928,930.703125 436.188751,931.829102 434.284363,932.932434 
	C433.820984,933.566223 433.357605,934.200012 432.914093,934.923340 
	C432.914093,934.923340 432.827850,934.891907 432.090210,934.866333 
	C431.156586,935.997803 430.222961,937.129211 429.100677,938.104431 
	C429.100677,938.104431 429.254883,938.294800 428.546783,938.182068 
	C424.722076,942.162476 420.897369,946.142944 416.871307,950.551208 
	C416.673004,950.816101 416.412079,950.983276 415.366577,951.030884 
	C414.566833,952.006958 413.767120,952.982971 412.909363,953.990540 
	C412.909363,953.990540 412.876007,953.933594 412.143341,953.930054 
	C410.804321,955.376160 409.465302,956.822266 407.825287,958.834900 
	C407.061951,959.573120 406.298615,960.311401 404.857544,960.972717 
	C401.232208,964.570740 401.656677,966.798401 406.274139,969.620178 
	C414.309967,974.531189 423.481171,974.718750 432.255646,974.747925 
	C449.484467,974.805115 466.712799,973.389099 483.950317,973.072754 
	C494.055389,972.887329 504.179657,973.971313 514.292114,973.915588 
	C537.062561,973.789978 559.830139,973.197510 582.600647,973.009216 
	C602.247925,972.846802 621.897888,973.010864 641.546326,972.942444 
	C643.832764,972.934509 646.163879,972.558044 648.393311,972.018066 
	C653.795532,970.709595 654.906067,968.346375 652.938721,962.134888 
	C652.913574,961.352539 652.888489,960.570190 653.217712,959.233093 
	C670.952515,941.962463 688.696594,924.701294 706.404053,907.402649 
	C707.783569,906.054932 708.906799,904.444946 710.673950,902.532471 
	C709.144165,900.041199 708.150696,896.198120 705.974915,895.334961 
	C701.181580,893.433289 695.796082,892.203979 690.644531,892.177124 
	C674.190369,892.091309 657.732666,892.939331 641.276428,892.935120 
	C624.487549,892.930847 607.698120,892.045349 590.910156,892.084412 
	C566.119446,892.142029 541.329163,892.633728 516.540039,893.022156 
	C500.083069,893.279968 483.607300,893.316833 467.187073,894.266785 
	C462.963531,894.511169 458.758575,897.567261 454.885345,899.897217 
	C453.681885,900.621155 452.725037,903.583008 453.260376,904.832703 
	C453.752106,905.980469 456.404480,906.202576 458.504822,907.270691 
	C456.506348,910.305542 454.507874,913.340454 452.417969,916.425110 
	C452.417969,916.425110 452.364380,916.514343 451.687714,916.243408 
	C451.078674,917.083008 450.469666,917.922668 449.865265,918.878662 
	C449.865265,918.878662 449.750549,918.858887 449.047882,918.834717 
	C446.707184,921.234009 444.366486,923.633240 442.000000,926.000000 
	C442.000000,926.000000 442.032623,926.025940 441.388550,925.981567 
	C441.173706,926.457092 440.958862,926.932617 440.605133,927.620667 
M748.463501,906.476257 
	C748.463501,906.476257 748.377625,906.573547 747.793945,906.367310 
	C747.495300,906.848206 747.196716,907.329102 746.572021,908.398743 
	C728.462830,925.305420 710.353638,942.212097 691.581299,959.110779 
	C691.308899,959.562866 691.036499,960.014893 690.672180,960.653992 
	C690.672180,960.653992 690.557373,960.828003 689.905396,960.591736 
	C689.400269,961.405212 688.883789,962.211853 688.391968,963.033264 
	C684.680725,969.230164 684.865234,969.729797 691.933228,971.421814 
	C708.717468,975.439880 725.907043,974.073181 742.895020,974.692627 
	C757.742920,975.234070 772.664307,973.228577 787.561279,973.059570 
	C835.280396,972.518127 883.003357,972.307007 930.724792,971.966919 
	C931.556458,971.960999 932.408081,972.046692 933.216248,971.900696 
	C937.924500,971.049927 939.569153,968.270752 937.923401,963.158936 
	C937.912659,961.718262 937.901855,960.277527 938.205200,958.248352 
	C951.180420,945.855957 964.155640,933.463562 977.758240,921.076172 
	C978.210388,920.447510 978.662537,919.818848 979.104187,919.097656 
	C979.104187,919.097656 979.195618,919.115295 979.821838,919.095337 
	C980.135254,918.611145 980.448608,918.127014 981.045288,917.179138 
	C981.590881,916.707947 982.136536,916.236755 983.279724,915.697205 
	C983.439331,915.354919 983.598938,915.012634 984.104065,914.119751 
	C986.125793,912.109619 988.147522,910.099487 990.783875,908.059937 
	C991.220215,907.429321 991.656616,906.798706 992.509155,905.563416 
	C993.057861,904.598450 993.606567,903.633423 994.539734,902.129456 
	C993.743408,900.336304 993.396362,897.529358 992.066589,896.939941 
	C988.064392,895.166199 983.703308,893.272400 979.440002,893.169312 
	C952.502625,892.518311 925.554321,892.136047 898.608643,892.074768 
	C880.494629,892.033630 862.380249,892.808167 844.263916,892.960876 
	C824.441467,893.127991 804.616455,893.002502 784.792603,892.990784 
	C783.798462,892.990173 782.799866,892.896179 781.810974,892.780457 
	C770.885254,891.501648 759.964111,891.042969 749.251709,894.084045 
	C747.493530,894.583191 746.147766,896.535400 744.611450,897.816101 
	C746.395020,899.219604 748.178528,900.623169 750.021729,902.751831 
	C749.994812,903.475525 749.967957,904.199219 749.992981,904.999268 
	C749.992981,904.999268 749.921509,904.940796 749.274109,904.919800 
	C749.038635,905.412781 748.803162,905.905823 748.463501,906.476257 
M1651.945801,904.564087 
	C1651.016357,900.808105 1652.580322,895.758484 1647.136108,894.289551 
	C1644.288330,893.521362 1641.265259,893.110168 1638.313477,893.065857 
	C1610.707520,892.651611 1583.099731,892.082581 1555.492676,892.091431 
	C1525.219971,892.101135 1494.947876,892.730530 1464.674561,892.979004 
	C1448.685425,893.110291 1432.693726,892.940247 1416.704346,893.061340 
	C1413.422241,893.086182 1410.074585,893.503113 1406.880981,894.261353 
	C1400.436157,895.791565 1399.734009,897.949951 1403.482422,904.137512 
	C1403.443604,904.479553 1403.312134,904.781250 1402.321167,905.143005 
	C1401.812988,908.421997 1401.304810,911.700989 1400.845703,915.708374 
	C1400.552368,917.131592 1400.259033,918.554871 1399.270020,920.280273 
	C1398.726685,923.839355 1398.183350,927.398438 1397.678467,931.730591 
	C1395.802490,941.605469 1393.926392,951.480286 1391.931274,961.982178 
	C1465.818604,961.982178 1539.043457,961.982178 1612.944458,961.982178 
	C1609.227905,979.059326 1605.481812,995.593018 1602.120239,1012.204529 
	C1601.302002,1016.246948 1599.771484,1017.532898 1595.628418,1017.504578 
	C1567.800415,1017.314575 1539.970215,1017.338135 1512.141968,1017.491394 
	C1509.736572,1017.504700 1506.762573,1018.304871 1505.026245,1019.840454 
	C1484.934448,1037.609375 1465.033081,1055.593750 1445.068237,1073.506592 
	C1444.028076,1074.439697 1442.871704,1075.243042 1441.153564,1076.589600 
	C1442.874756,1076.956177 1443.324341,1077.135986 1443.774048,1077.135742 
	C1499.767700,1077.109009 1555.761353,1077.084473 1611.754883,1076.952515 
	C1613.394531,1076.948730 1615.322876,1076.168213 1616.624512,1075.131958 
	C1629.396118,1064.963379 1642.097900,1054.705811 1654.711548,1044.342407 
	C1656.122192,1043.183350 1657.445435,1041.341309 1657.832764,1039.598877 
	C1664.657715,1008.896790 1671.263428,978.145813 1678.126343,947.452332 
	C1678.933228,943.844177 1678.448853,941.152588 1676.255981,938.262329 
	C1668.008423,927.391357 1659.934448,916.388672 1651.945801,904.564087 
M1198.414917,1126.073486 
	C1169.210449,1095.508911 1140.005981,1064.944336 1110.771240,1034.348145 
	C1169.502319,991.053040 1227.758789,948.107910 1286.015259,905.162720 
	C1285.729126,904.697876 1285.442871,904.232971 1285.156738,903.768127 
	C1284.181763,903.705444 1283.207275,903.595642 1282.231934,903.587036 
	C1255.068237,903.347778 1227.904541,903.002502 1200.741211,903.037048 
	C1197.396729,903.041321 1193.505249,904.324463 1190.793579,906.291687 
	C1144.826416,939.638367 1098.994263,973.171509 1053.202393,1006.758728 
	C1051.626953,1007.914185 1050.119873,1009.910706 1049.696899,1011.769287 
	C1046.744629,1024.739136 1044.013672,1037.761597 1041.438843,1050.811890 
	C1041.157227,1052.239014 1041.848022,1054.403320 1042.874634,1055.464233 
	C1077.641602,1091.388550 1112.526245,1127.198853 1147.304321,1163.112427 
	C1149.703613,1165.589966 1152.115845,1166.607300 1155.567261,1166.593872 
	C1181.066162,1166.494873 1206.565674,1166.590698 1232.065063,1166.625122 
	C1233.586670,1166.627197 1235.108154,1166.625488 1237.539062,1166.625488 
	C1224.099609,1152.696777 1211.503052,1139.641724 1198.414917,1126.073486 
M727.729919,1084.420532 
	C733.400696,1059.017822 739.071411,1033.615112 744.787720,1008.008179 
	C723.391602,1008.008179 702.960266,1008.008179 682.643677,1008.008179 
	C682.371826,1008.537415 682.153503,1008.809692 682.086060,1009.115234 
	C673.436523,1048.277344 664.769348,1087.435791 656.261353,1126.628662 
	C655.911499,1128.240356 656.530701,1130.616943 657.592651,1131.893311 
	C666.539612,1142.646729 675.612305,1153.300049 684.881775,1163.775757 
	C686.205322,1165.271484 688.784180,1166.437012 690.784363,1166.440552 
	C760.419739,1166.564331 830.055359,1166.515259 899.690918,1166.571655 
	C902.525757,1166.573975 903.672302,1165.843506 904.252991,1162.874878 
	C906.169250,1153.079224 908.460938,1143.355469 910.689819,1133.622803 
	C912.637817,1125.116699 914.695618,1116.635864 916.894531,1107.342407 
	C851.740906,1107.342407 787.378418,1107.342407 722.543640,1107.342407 
	C724.312805,1099.481201 725.916443,1092.355225 727.729919,1084.420532 
M585.298889,1066.801514 
	C588.223267,1066.099854 591.982971,1066.323120 593.942749,1064.553345 
	C613.344482,1047.031738 632.450928,1029.183350 651.628235,1011.413574 
	C652.629761,1010.485474 653.515381,1009.432434 655.012695,1007.847046 
	C568.354187,1007.847046 482.614868,1007.847046 396.822296,1007.847046 
	C383.558441,1066.159424 370.346405,1124.244141 356.969666,1183.052734 
	C358.976807,1181.593140 360.329102,1180.641479 361.648224,1179.645752 
	C378.523804,1166.907715 395.391571,1154.159424 412.268280,1141.422729 
	C418.641968,1136.612671 426.843597,1132.996826 430.913483,1126.703491 
	C435.079712,1120.261108 435.237213,1111.213623 437.093475,1103.293213 
	C439.929199,1091.193848 442.716888,1079.083252 445.566315,1066.799072 
	C492.092163,1066.799072 538.219116,1066.799072 585.298889,1066.801514 
M1315.718384,938.269287 
	C1310.252319,942.354370 1304.622314,946.244263 1299.404053,950.624634 
	C1297.438110,952.274963 1295.647217,954.886597 1295.092773,957.355530 
	C1280.327759,1023.108032 1265.734253,1088.899048 1251.114624,1154.684204 
	C1250.262695,1158.517456 1249.437256,1162.356567 1248.560303,1166.372070 
	C1269.583618,1166.372070 1290.012207,1166.372070 1310.751465,1166.372070 
	C1330.422241,1076.938599 1350.038208,987.754700 1369.859741,897.636414 
	C1351.383667,911.509460 1333.841431,924.681274 1315.718384,938.269287 
M1055.091675,924.795837 
	C1056.998169,916.041504 1058.904663,907.287231 1060.833984,898.428345 
	C1060.312378,898.581909 1059.937500,898.593079 1059.694580,898.777832 
	C1036.116821,916.713745 1012.517456,934.621826 989.048767,952.699646 
	C987.419189,953.954895 986.204651,956.351990 985.740112,958.428955 
	C972.123535,1019.310425 958.621521,1080.217407 945.115356,1141.123657 
	C942.121277,1154.625366 939.180420,1168.138916 936.140564,1181.986694 
	C937.046814,1181.656128 937.401245,1181.610352 937.651001,1181.424072 
	C961.533936,1163.613037 985.424011,1145.811279 1009.239014,1127.909912 
	C1010.422546,1127.020386 1011.392578,1125.354980 1011.716919,1123.886353 
	C1019.317139,1089.464722 1026.825317,1055.022827 1034.328003,1020.579712 
	C1041.221802,988.931458 1048.089233,957.277405 1055.091675,924.795837 
M923.612915,1019.100891 
	C927.356934,1015.664673 931.100952,1012.228394 935.611145,1008.088867 
	C875.491760,1008.088867 816.456665,1008.088867 757.449402,1008.088867 
	C753.110291,1027.604614 748.800598,1046.988159 744.546326,1066.122314 
	C745.318909,1066.606201 745.458740,1066.770386 745.598633,1066.770508 
	C786.923889,1066.802002 828.249207,1066.851074 869.574158,1066.741455 
	C871.293640,1066.736816 873.345764,1065.614746 874.675476,1064.394653 
	C890.879578,1049.526611 906.977051,1034.542480 923.612915,1019.100891 
M1380.277588,1032.637085 
	C1369.125000,1082.117065 1357.972412,1131.597168 1346.743042,1181.417358 
	C1347.758545,1181.147461 1348.133179,1181.149170 1348.372070,1180.969849 
	C1372.325073,1162.988037 1396.285767,1145.016357 1420.162476,1126.933838 
	C1421.467651,1125.945557 1422.568970,1124.136108 1422.921143,1122.524292 
	C1428.136475,1098.644165 1433.175537,1074.725586 1438.330933,1050.832153 
	C1440.564209,1040.481079 1442.967773,1030.166870 1445.296509,1019.824890 
	C1424.310181,1019.824890 1403.741089,1019.824890 1383.016602,1019.824890 
	C1382.126831,1024.046631 1381.307129,1027.935547 1380.277588,1032.637085 
M1636.911011,1139.581909 
	C1621.828491,1123.830688 1606.795776,1108.031006 1591.580811,1092.408691 
	C1590.181152,1090.971436 1587.622192,1089.948975 1585.597900,1089.942749 
	C1560.623779,1089.866455 1535.649048,1090.010010 1510.674438,1090.117432 
	C1509.160034,1090.124023 1507.646484,1090.302246 1505.031006,1090.472046 
	C1528.616333,1115.552246 1551.386108,1139.832520 1574.305176,1163.970947 
	C1575.696777,1165.436646 1578.270508,1166.513184 1580.302368,1166.526367 
	C1605.774902,1166.691650 1631.249023,1166.627197 1656.722656,1166.621582 
	C1658.412720,1166.621216 1660.102783,1166.621582 1663.109985,1166.621582 
	C1653.810425,1157.034058 1645.599243,1148.568604 1636.911011,1139.581909 
z"/>
<path fill="#FDFDFD" opacity="1.000000" stroke="none" 
	d="
M1399.965576,919.978088 
	C1400.259033,918.554871 1400.552368,917.131592 1401.097656,915.079834 
	C1401.929077,911.315002 1402.508545,908.178711 1403.088135,905.042480 
	C1403.312134,904.781250 1403.443604,904.479553 1403.693970,903.718262 
	C1404.249023,903.087708 1404.592407,902.876465 1405.395630,902.782532 
	C1475.609009,902.908813 1545.362793,902.925903 1615.116455,902.916748 
	C1624.097412,902.915588 1633.078247,902.778564 1642.483154,902.772095 
	C1646.080933,902.981995 1649.542847,902.138367 1651.795410,905.435303 
	C1659.934448,916.388672 1668.008423,927.391357 1676.255981,938.262329 
	C1678.448853,941.152588 1678.933228,943.844177 1678.126343,947.452332 
	C1671.263428,978.145813 1664.657715,1008.896790 1657.832764,1039.598877 
	C1657.445435,1041.341309 1656.122192,1043.183350 1654.711548,1044.342407 
	C1642.097900,1054.705811 1629.396118,1064.963379 1616.624512,1075.131958 
	C1615.322876,1076.168213 1613.394531,1076.948730 1611.754883,1076.952515 
	C1555.761353,1077.084473 1499.767700,1077.109009 1443.774048,1077.135742 
	C1443.324341,1077.135986 1442.874756,1076.956177 1441.153564,1076.589600 
	C1442.871704,1075.243042 1444.028076,1074.439697 1445.068237,1073.506592 
	C1465.033081,1055.593750 1484.934448,1037.609375 1505.026245,1019.840454 
	C1506.762573,1018.304871 1509.736572,1017.504700 1512.141968,1017.491394 
	C1539.970215,1017.338135 1567.800415,1017.314575 1595.628418,1017.504578 
	C1599.771484,1017.532898 1601.302002,1016.246948 1602.120239,1012.204529 
	C1605.481812,995.593018 1609.227905,979.059326 1612.944458,961.982178 
	C1539.043457,961.982178 1465.818604,961.982178 1391.931274,961.982178 
	C1393.926392,951.480286 1395.802490,941.605469 1397.921875,931.065247 
	C1398.765381,926.925964 1399.365479,923.452026 1399.965576,919.978088 
z"/>
<path fill="#FBFCFB" opacity="1.000000" stroke="none" 
	d="
M1198.660767,1126.330078 
	C1211.503052,1139.641724 1224.099609,1152.696777 1237.539062,1166.625488 
	C1235.108154,1166.625488 1233.586670,1166.627197 1232.065063,1166.625122 
	C1206.565674,1166.590698 1181.066162,1166.494873 1155.567261,1166.593872 
	C1152.115845,1166.607300 1149.703613,1165.589966 1147.304321,1163.112427 
	C1112.526245,1127.198853 1077.641602,1091.388550 1042.874634,1055.464233 
	C1041.848022,1054.403320 1041.157227,1052.239014 1041.438843,1050.811890 
	C1044.013672,1037.761597 1046.744629,1024.739136 1049.696899,1011.769287 
	C1050.119873,1009.910706 1051.626953,1007.914185 1053.202393,1006.758728 
	C1098.994263,973.171509 1144.826416,939.638367 1190.793579,906.291687 
	C1193.505249,904.324463 1197.396729,903.041321 1200.741211,903.037048 
	C1227.904541,903.002502 1255.068237,903.347778 1282.231934,903.587036 
	C1283.207275,903.595642 1284.181763,903.705444 1285.156738,903.768127 
	C1285.442871,904.232971 1285.729126,904.697876 1286.015259,905.162720 
	C1227.758789,948.107910 1169.502319,991.053040 1110.771240,1034.348145 
	C1140.005981,1064.944336 1169.210449,1095.508911 1198.660767,1126.330078 
z"/>
<path fill="#FBFCFB" opacity="1.000000" stroke="none" 
	d="
M727.625000,1084.824951 
	C725.916443,1092.355225 724.312805,1099.481201 722.543640,1107.342407 
	C787.378418,1107.342407 851.740906,1107.342407 916.894531,1107.342407 
	C914.695618,1116.635864 912.637817,1125.116699 910.689819,1133.622803 
	C908.460938,1143.355469 906.169250,1153.079224 904.252991,1162.874878 
	C903.672302,1165.843506 902.525757,1166.573975 899.690918,1166.571655 
	C830.055359,1166.515259 760.419739,1166.564331 690.784363,1166.440552 
	C688.784180,1166.437012 686.205322,1165.271484 684.881775,1163.775757 
	C675.612305,1153.300049 666.539612,1142.646729 657.592651,1131.893311 
	C656.530701,1130.616943 655.911499,1128.240356 656.261353,1126.628662 
	C664.769348,1087.435791 673.436523,1048.277344 682.086060,1009.115234 
	C682.153503,1008.809692 682.371826,1008.537415 682.643677,1008.008179 
	C702.960266,1008.008179 723.391602,1008.008179 744.787720,1008.008179 
	C739.071411,1033.615112 733.400696,1059.017822 727.625000,1084.824951 
z"/>
<path fill="#FCFCFC" opacity="1.000000" stroke="none" 
	d="
M584.822510,1066.800293 
	C538.219116,1066.799072 492.092163,1066.799072 445.566315,1066.799072 
	C442.716888,1079.083252 439.929199,1091.193848 437.093475,1103.293213 
	C435.237213,1111.213623 435.079712,1120.261108 430.913483,1126.703491 
	C426.843597,1132.996826 418.641968,1136.612671 412.268280,1141.422729 
	C395.391571,1154.159424 378.523804,1166.907715 361.648224,1179.645752 
	C360.329102,1180.641479 358.976807,1181.593140 356.969666,1183.052734 
	C370.346405,1124.244141 383.558441,1066.159424 396.822296,1007.847046 
	C482.614868,1007.847046 568.354187,1007.847046 655.012695,1007.847046 
	C653.515381,1009.432434 652.629761,1010.485474 651.628235,1011.413574 
	C632.450928,1029.183350 613.344482,1047.031738 593.942749,1064.553345 
	C591.982971,1066.323120 588.223267,1066.099854 584.822510,1066.800293 
z"/>
<path fill="#FBFCFB" opacity="1.000000" stroke="none" 
	d="
M1316.008789,938.061157 
	C1333.841431,924.681274 1351.383667,911.509460 1369.859741,897.636414 
	C1350.038208,987.754700 1330.422241,1076.938599 1310.751465,1166.372070 
	C1290.012207,1166.372070 1269.583618,1166.372070 1248.560303,1166.372070 
	C1249.437256,1162.356567 1250.262695,1158.517456 1251.114624,1154.684204 
	C1265.734253,1088.899048 1280.327759,1023.108032 1295.092773,957.355530 
	C1295.647217,954.886597 1297.438110,952.274963 1299.404053,950.624634 
	C1304.622314,946.244263 1310.252319,942.354370 1316.008789,938.061157 
z"/>
<path fill="#FCFCFC" opacity="1.000000" stroke="none" 
	d="
M977.130859,921.071167 
	C964.155640,933.463562 951.180420,945.855957 937.686584,958.617920 
	C935.171753,959.914490 933.176880,961.648743 931.179260,961.651855 
	C861.275879,961.760986 791.372192,961.702759 721.468567,961.684204 
	C714.994019,961.682495 708.519531,961.787231 701.597168,961.754517 
	C697.618713,961.387024 694.088074,961.107483 690.557373,960.828003 
	C690.557373,960.828003 690.672180,960.653992 690.969116,960.471069 
	C691.592224,959.898315 691.918335,959.508545 692.244446,959.118774 
	C710.353638,942.212097 728.462830,925.305420 747.003906,908.113953 
	C747.749756,907.410645 748.063721,906.992126 748.377686,906.573608 
	C748.377625,906.573547 748.463501,906.476257 748.779175,906.358643 
	C749.370422,905.807556 749.645935,905.374207 749.921509,904.940796 
	C749.921509,904.940796 749.992981,904.999268 750.353394,904.874878 
	C753.002014,904.114563 755.289612,902.925659 757.578674,902.922913 
	C829.257751,902.836548 900.936951,902.867615 972.616150,902.866211 
	C974.435059,902.866150 976.254028,902.703064 978.530396,902.688477 
	C984.043579,902.730103 989.099426,902.699280 994.155273,902.668457 
	C993.606567,903.633423 993.057861,904.598450 992.018921,905.931152 
	C991.075562,906.895691 990.622437,907.492554 990.169250,908.089417 
	C988.147522,910.099487 986.125793,912.109619 983.649963,914.455933 
	C983.024597,915.116577 982.853333,915.441101 982.682129,915.765564 
	C982.136536,916.236755 981.590881,916.707947 980.615173,917.466675 
	C979.855225,918.207947 979.525391,918.661560 979.195557,919.115234 
	C979.195618,919.115295 979.104187,919.097656 978.817505,919.187683 
	C978.064148,919.875549 977.597534,920.473389 977.130859,921.071167 
z"/>
<path fill="#FCFCFC" opacity="1.000000" stroke="none" 
	d="
M710.149048,902.956787 
	C708.906799,904.444946 707.783569,906.054932 706.404053,907.402649 
	C688.696594,924.701294 670.952515,941.962463 652.730652,959.565308 
	C651.696350,960.512695 651.149109,961.127808 650.328308,961.726929 
	C649.700928,961.798218 649.347107,961.885498 648.543091,961.831726 
	C590.177307,961.742615 532.261597,961.793823 474.345917,961.846985 
	C460.224701,961.859985 446.103516,961.879456 431.545593,961.803040 
	C422.584381,961.489990 414.059845,961.269836 405.535278,961.049683 
	C406.298615,960.311401 407.061951,959.573120 408.294464,958.460266 
	C410.134430,956.701599 411.505219,955.317627 412.876007,953.933594 
	C412.876007,953.933594 412.909363,953.990540 413.248199,953.905884 
	C414.420868,952.898376 415.254700,951.975525 416.088562,951.052734 
	C416.412079,950.983276 416.673004,950.816101 417.302917,950.263245 
	C421.574677,946.081787 425.414795,942.188293 429.254883,938.294800 
	C429.254883,938.294800 429.100677,938.104431 429.505341,938.112427 
	C430.882629,937.044189 431.855255,935.968079 432.827850,934.891907 
	C432.827850,934.891907 432.914093,934.923340 433.206451,934.853027 
	C433.974701,934.173462 434.450623,933.564270 434.926575,932.955017 
	C436.188751,931.829102 437.450928,930.703125 439.117676,929.285156 
	C439.809357,928.576965 440.096436,928.160706 440.383545,927.744446 
	C440.383514,927.744446 440.605133,927.620667 440.932617,927.453369 
	C441.517578,926.866028 441.775085,926.445984 442.032593,926.025940 
	C442.032623,926.025940 442.000000,926.000000 442.346161,925.958923 
	C445.045074,923.564880 447.397827,921.211853 449.750549,918.858887 
	C449.750549,918.858887 449.865265,918.878662 450.158020,918.789673 
	C451.088654,917.971924 451.726532,917.243164 452.364380,916.514404 
	C452.364380,916.514343 452.417969,916.425110 452.774414,916.297668 
	C456.119507,913.281799 459.276917,910.545532 462.052826,907.465393 
	C465.315521,903.845276 469.120941,902.812195 473.947235,902.822083 
	C543.499573,902.964783 613.052246,902.928772 682.604797,902.921265 
	C684.424927,902.921082 686.245117,902.759460 688.523865,902.750122 
	C696.038025,902.870239 703.093506,902.913513 710.149048,902.956787 
z"/>
<path fill="#FCFCFC" opacity="1.000000" stroke="none" 
	d="
M1055.030029,925.210876 
	C1048.089233,957.277405 1041.221802,988.931458 1034.328003,1020.579712 
	C1026.825317,1055.022827 1019.317139,1089.464722 1011.716919,1123.886353 
	C1011.392578,1125.354980 1010.422546,1127.020386 1009.239014,1127.909912 
	C985.424011,1145.811279 961.533936,1163.613037 937.651001,1181.424072 
	C937.401245,1181.610352 937.046814,1181.656128 936.140564,1181.986694 
	C939.180420,1168.138916 942.121277,1154.625366 945.115356,1141.123657 
	C958.621521,1080.217407 972.123535,1019.310425 985.740112,958.428955 
	C986.204651,956.351990 987.419189,953.954895 989.048767,952.699646 
	C1012.517456,934.621826 1036.116821,916.713745 1059.694580,898.777832 
	C1059.937500,898.593079 1060.312378,898.581909 1060.833984,898.428345 
	C1058.904663,907.287231 1056.998169,916.041504 1055.030029,925.210876 
z"/>
<path fill="#FCFCFC" opacity="1.000000" stroke="none" 
	d="
M923.357605,1019.344727 
	C906.977051,1034.542480 890.879578,1049.526611 874.675476,1064.394653 
	C873.345764,1065.614746 871.293640,1066.736816 869.574158,1066.741455 
	C828.249207,1066.851074 786.923889,1066.802002 745.598633,1066.770508 
	C745.458740,1066.770386 745.318909,1066.606201 744.546326,1066.122314 
	C748.800598,1046.988159 753.110291,1027.604614 757.449402,1008.088867 
	C816.456665,1008.088867 875.491760,1008.088867 935.611145,1008.088867 
	C931.100952,1012.228394 927.356934,1015.664673 923.357605,1019.344727 
z"/>
<path fill="#FCFCFC" opacity="1.000000" stroke="none" 
	d="
M1380.382568,1032.230713 
	C1381.307129,1027.935547 1382.126831,1024.046631 1383.016602,1019.824890 
	C1403.741089,1019.824890 1424.310181,1019.824890 1445.296509,1019.824890 
	C1442.967773,1030.166870 1440.564209,1040.481079 1438.330933,1050.832153 
	C1433.175537,1074.725586 1428.136475,1098.644165 1422.921143,1122.524292 
	C1422.568970,1124.136108 1421.467651,1125.945557 1420.162476,1126.933838 
	C1396.285767,1145.016357 1372.325073,1162.988037 1348.372070,1180.969849 
	C1348.133179,1181.149170 1347.758545,1181.147461 1346.743042,1181.417358 
	C1357.972412,1131.597168 1369.125000,1082.117065 1380.382568,1032.230713 
z"/>
<path fill="#FBFCFB" opacity="1.000000" stroke="none" 
	d="
M1637.149536,1139.842529 
	C1645.599243,1148.568604 1653.810425,1157.034058 1663.109985,1166.621582 
	C1660.102783,1166.621582 1658.412720,1166.621216 1656.722656,1166.621582 
	C1631.249023,1166.627197 1605.774902,1166.691650 1580.302368,1166.526367 
	C1578.270508,1166.513184 1575.696777,1165.436646 1574.305176,1163.970947 
	C1551.386108,1139.832520 1528.616333,1115.552246 1505.031006,1090.472046 
	C1507.646484,1090.302246 1509.160034,1090.124023 1510.674438,1090.117432 
	C1535.649048,1090.010010 1560.623779,1089.866455 1585.597900,1089.942749 
	C1587.622192,1089.948975 1590.181152,1090.971436 1591.580811,1092.408691 
	C1606.795776,1108.031006 1621.828491,1123.830688 1637.149536,1139.842529 
z"/>
<path fill="#151F27" opacity="1.000000" stroke="none" 
	d="
M405.196411,961.011230 
	C414.059845,961.269836 422.584381,961.489990 431.605499,962.199097 
	C433.403870,963.445251 434.672668,964.789917 436.012756,964.865112 
	C445.278961,965.385437 454.557953,965.719849 463.836853,965.959473 
	C472.748505,966.189697 481.668243,966.121094 490.578491,966.384827 
	C505.488586,966.825989 520.390869,967.705139 535.302307,967.870667 
	C546.736816,967.997681 558.178711,967.209290 569.620483,967.014771 
	C578.934143,966.856323 588.259521,967.203125 597.567322,966.919678 
	C613.295532,966.440735 629.018066,965.715210 644.729797,964.852905 
	C646.199158,964.772217 647.574280,962.973572 648.993164,961.972717 
	C649.347107,961.885498 649.700928,961.798218 650.617798,961.878967 
	C651.762146,962.336731 652.343384,962.626465 652.924622,962.916138 
	C654.906067,968.346375 653.795532,970.709595 648.393311,972.018066 
	C646.163879,972.558044 643.832764,972.934509 641.546326,972.942444 
	C621.897888,973.010864 602.247925,972.846802 582.600647,973.009216 
	C559.830139,973.197510 537.062561,973.789978 514.292114,973.915588 
	C504.179657,973.971313 494.055389,972.887329 483.950317,973.072754 
	C466.712799,973.389099 449.484467,974.805115 432.255646,974.747925 
	C423.481171,974.718750 414.309967,974.531189 406.274139,969.620178 
	C401.656677,966.798401 401.232208,964.570740 405.196411,961.011230 
z"/>
<path fill="#151F27" opacity="1.000000" stroke="none" 
	d="
M710.411499,902.744629 
	C703.093506,902.913513 696.038025,902.870239 688.495178,902.370972 
	C683.284119,900.630371 678.601562,898.442078 673.829224,898.224854 
	C657.257202,897.470642 640.654236,897.391052 624.062683,897.073486 
	C611.693665,896.836853 599.323853,896.441833 586.954834,896.456116 
	C571.736816,896.473694 556.517944,896.776184 541.302002,897.085571 
	C531.774109,897.279297 522.253357,897.840454 512.725342,898.002319 
	C502.970490,898.168091 493.191254,897.676270 483.460205,898.187073 
	C477.255371,898.512756 471.002441,899.717834 465.005554,901.376343 
	C462.401520,902.096436 460.387146,904.948669 458.104950,906.832520 
	C456.404480,906.202576 453.752106,905.980469 453.260376,904.832703 
	C452.725037,903.583008 453.681885,900.621155 454.885345,899.897217 
	C458.758575,897.567261 462.963531,894.511169 467.187073,894.266785 
	C483.607300,893.316833 500.083069,893.279968 516.540039,893.022156 
	C541.329163,892.633728 566.119446,892.142029 590.910156,892.084412 
	C607.698120,892.045349 624.487549,892.930847 641.276428,892.935120 
	C657.732666,892.939331 674.190369,892.091309 690.644531,892.177124 
	C695.796082,892.203979 701.181580,893.433289 705.974915,895.334961 
	C708.150696,896.198120 709.144165,900.041199 710.411499,902.744629 
z"/>
<path fill="#151F27" opacity="1.000000" stroke="none" 
	d="
M690.231384,960.709839 
	C694.088074,961.107483 697.618713,961.387024 701.666809,962.131836 
	C702.974304,963.070068 703.725830,963.867859 704.560303,963.966980 
	C716.199585,965.349487 727.821411,967.146179 739.505981,967.803345 
	C751.149414,968.458191 762.860168,967.820679 774.538269,967.978699 
	C788.650574,968.169556 802.758240,968.761414 816.870544,968.888794 
	C835.215393,969.054443 853.567627,969.194641 871.907593,968.855469 
	C887.109680,968.574402 902.311218,967.779968 917.487793,966.817322 
	C924.334106,966.383179 931.119324,964.986877 937.932251,964.027100 
	C939.569153,968.270752 937.924500,971.049927 933.216248,971.900696 
	C932.408081,972.046692 931.556458,971.960999 930.724792,971.966919 
	C883.003357,972.307007 835.280396,972.518127 787.561279,973.059570 
	C772.664307,973.228577 757.742920,975.234070 742.895020,974.692627 
	C725.907043,974.073181 708.717468,975.439880 691.933228,971.421814 
	C684.865234,969.729797 684.680725,969.230164 688.391968,963.033264 
	C688.883789,962.211853 689.400269,961.405212 690.231384,960.709839 
z"/>
<path fill="#3A444C" opacity="1.000000" stroke="none" 
	d="
M937.927856,963.593018 
	C931.119324,964.986877 924.334106,966.383179 917.487793,966.817322 
	C902.311218,967.779968 887.109680,968.574402 871.907593,968.855469 
	C853.567627,969.194641 835.215393,969.054443 816.870544,968.888794 
	C802.758240,968.761414 788.650574,968.169556 774.538269,967.978699 
	C762.860168,967.820679 751.149414,968.458191 739.505981,967.803345 
	C727.821411,967.146179 716.199585,965.349487 704.560303,963.966980 
	C703.725830,963.867859 702.974304,963.070068 702.114624,962.219849 
	C708.519531,961.787231 714.994019,961.682495 721.468567,961.684204 
	C791.372192,961.702759 861.275879,961.760986 931.179260,961.651855 
	C933.176880,961.648743 935.171753,959.914490 937.529541,958.912109 
	C937.901855,960.277527 937.912659,961.718262 937.927856,963.593018 
z"/>
<path fill="#151F27" opacity="1.000000" stroke="none" 
	d="
M994.347473,902.398926 
	C989.099426,902.699280 984.043579,902.730103 978.466919,902.347534 
	C975.950195,900.988098 974.005310,899.383667 971.948730,899.224976 
	C966.731750,898.822266 961.458923,899.222961 956.218933,899.024475 
	C940.690979,898.436279 925.173828,897.391968 909.641968,897.116089 
	C882.747803,896.638550 855.846008,896.487732 828.946899,896.430481 
	C813.709167,896.398071 798.468872,896.752808 783.232788,897.075684 
	C775.941101,897.230225 768.610779,897.335999 761.386963,898.204285 
	C757.481934,898.673706 753.764282,900.701782 749.962097,902.026733 
	C748.178528,900.623169 746.395020,899.219604 744.611450,897.816101 
	C746.147766,896.535400 747.493530,894.583191 749.251709,894.084045 
	C759.964111,891.042969 770.885254,891.501648 781.810974,892.780457 
	C782.799866,892.896179 783.798462,892.990173 784.792603,892.990784 
	C804.616455,893.002502 824.441467,893.127991 844.263916,892.960876 
	C862.380249,892.808167 880.494629,892.033630 898.608643,892.074768 
	C925.554321,892.136047 952.502625,892.518311 979.440002,893.169312 
	C983.703308,893.272400 988.064392,895.166199 992.066589,896.939941 
	C993.396362,897.529358 993.743408,900.336304 994.347473,902.398926 
z"/>
<path fill="#151F27" opacity="1.000000" stroke="none" 
	d="
M1651.870605,904.999695 
	C1649.542847,902.138367 1646.080933,902.981995 1642.455811,902.390991 
	C1639.061890,900.982666 1636.152832,899.321350 1633.170776,899.177673 
	C1614.574219,898.281555 1595.965454,897.560730 1577.352783,897.104858 
	C1560.915894,896.702332 1544.468994,896.598145 1528.026245,896.589783 
	C1513.184692,896.582214 1498.343262,896.923706 1483.501221,897.034180 
	C1472.430420,897.116638 1461.358643,897.041565 1450.287720,897.104431 
	C1444.418701,897.137756 1438.529419,897.041809 1432.686890,897.491760 
	C1423.856445,898.171936 1415.054077,899.238342 1406.259033,900.301208 
	C1405.730469,900.365112 1405.372925,901.844482 1404.935913,902.665222 
	C1404.592407,902.876465 1404.249023,903.087708 1403.654297,903.471680 
	C1399.734009,897.949951 1400.436157,895.791565 1406.880981,894.261353 
	C1410.074585,893.503113 1413.422241,893.086182 1416.704346,893.061340 
	C1432.693726,892.940247 1448.685425,893.110291 1464.674561,892.979004 
	C1494.947876,892.730530 1525.219971,892.101135 1555.492676,892.091431 
	C1583.099731,892.082581 1610.707520,892.651611 1638.313477,893.065857 
	C1641.265259,893.110168 1644.288330,893.521362 1647.136108,894.289551 
	C1652.580322,895.758484 1651.016357,900.808105 1651.870605,904.999695 
z"/>
<path fill="#3A444C" opacity="1.000000" stroke="none" 
	d="
M458.304871,907.051636 
	C460.387146,904.948669 462.401520,902.096436 465.005554,901.376343 
	C471.002441,899.717834 477.255371,898.512756 483.460205,898.187073 
	C493.191254,897.676270 502.970490,898.168091 512.725342,898.002319 
	C522.253357,897.840454 531.774109,897.279297 541.302002,897.085571 
	C556.517944,896.776184 571.736816,896.473694 586.954834,896.456116 
	C599.323853,896.441833 611.693665,896.836853 624.062683,897.073486 
	C640.654236,897.391052 657.257202,897.470642 673.829224,898.224854 
	C678.601562,898.442078 683.284119,900.630371 688.036560,902.294067 
	C686.245117,902.759460 684.424927,902.921082 682.604797,902.921265 
	C613.052246,902.928772 543.499573,902.964783 473.947235,902.822083 
	C469.120941,902.812195 465.315521,903.845276 462.052826,907.465393 
	C459.276917,910.545532 456.119507,913.281799 452.820129,916.272766 
	C454.507874,913.340454 456.506348,910.305542 458.304871,907.051636 
z"/>
<path fill="#3A444C" opacity="1.000000" stroke="none" 
	d="
M749.991943,902.389282 
	C753.764282,900.701782 757.481934,898.673706 761.386963,898.204285 
	C768.610779,897.335999 775.941101,897.230225 783.232788,897.075684 
	C798.468872,896.752808 813.709167,896.398071 828.946899,896.430481 
	C855.846008,896.487732 882.747803,896.638550 909.641968,897.116089 
	C925.173828,897.391968 940.690979,898.436279 956.218933,899.024475 
	C961.458923,899.222961 966.731750,898.822266 971.948730,899.224976 
	C974.005310,899.383667 975.950195,900.988098 978.009460,902.275146 
	C976.254028,902.703064 974.435059,902.866150 972.616150,902.866211 
	C900.936951,902.867615 829.257751,902.836548 757.578674,902.922913 
	C755.289612,902.925659 753.002014,904.114563 750.327393,904.836670 
	C749.967957,904.199219 749.994812,903.475525 749.991943,902.389282 
z"/>
<path fill="#3A444C" opacity="1.000000" stroke="none" 
	d="
M428.900818,938.238403 
	C425.414795,942.188293 421.574677,946.081787 417.403625,950.049316 
	C420.897369,946.142944 424.722076,942.162476 428.900818,938.238403 
z"/>
<path fill="#3A444C" opacity="1.000000" stroke="none" 
	d="
M1399.617798,920.129150 
	C1399.365479,923.452026 1398.765381,926.925964 1397.902588,930.678711 
	C1398.183350,927.398438 1398.726685,923.839355 1399.617798,920.129150 
z"/>
<path fill="#3A444C" opacity="1.000000" stroke="none" 
	d="
M1402.704590,905.092773 
	C1402.508545,908.178711 1401.929077,911.315002 1401.072998,914.715576 
	C1401.304810,911.700989 1401.812988,908.421997 1402.704590,905.092773 
z"/>
<path fill="#3A444C" opacity="1.000000" stroke="none" 
	d="
M449.399231,918.846802 
	C447.397827,921.211853 445.045074,923.564880 442.359070,925.975159 
	C444.366486,923.633240 446.707184,921.234009 449.399231,918.846802 
z"/>
<path fill="#151F27" opacity="1.000000" stroke="none" 
	d="
M412.509674,953.931824 
	C411.505219,955.317627 410.134430,956.701599 408.444946,958.177002 
	C409.465302,956.822266 410.804321,955.376160 412.509674,953.931824 
z"/>
<path fill="#3A444C" opacity="1.000000" stroke="none" 
	d="
M432.459045,934.879150 
	C431.855255,935.968079 430.882629,937.044189 429.599670,938.190552 
	C430.222961,937.129211 431.156586,935.997803 432.459045,934.879150 
z"/>
<path fill="#3A444C" opacity="1.000000" stroke="none" 
	d="
M415.727539,951.041809 
	C415.254700,951.975525 414.420868,952.898376 413.277222,953.890137 
	C413.767120,952.982971 414.566833,952.006958 415.727539,951.041809 
z"/>
<path fill="#3A444C" opacity="1.000000" stroke="none" 
	d="
M652.931641,962.525513 
	C652.343384,962.626465 651.762146,962.336731 650.891357,961.894958 
	C651.149109,961.127808 651.696350,960.512695 652.553467,959.842712 
	C652.888489,960.570190 652.913574,961.352539 652.931641,962.525513 
z"/>
<path fill="#3A444C" opacity="1.000000" stroke="none" 
	d="
M452.026062,916.378906 
	C451.726532,917.243164 451.088654,917.971924 450.155701,918.731567 
	C450.469666,917.922668 451.078674,917.083008 452.026062,916.378906 
z"/>
<path fill="#3A444C" opacity="1.000000" stroke="none" 
	d="
M434.605469,932.943726 
	C434.450623,933.564270 433.974701,934.173462 433.196533,934.808228 
	C433.357605,934.200012 433.820984,933.566223 434.605469,932.943726 
z"/>
<path fill="#3A444C" opacity="1.000000" stroke="none" 
	d="
M977.444580,921.073669 
	C977.597534,920.473389 978.064148,919.875549 978.822754,919.233948 
	C978.662537,919.818848 978.210388,920.447510 977.444580,921.073669 
z"/>
<path fill="#3A444C" opacity="1.000000" stroke="none" 
	d="
M990.476562,908.074707 
	C990.622437,907.492554 991.075562,906.895691 991.810852,906.233459 
	C991.656616,906.798706 991.220215,907.429321 990.476562,908.074707 
z"/>
<path fill="#151F27" opacity="1.000000" stroke="none" 
	d="
M691.912842,959.114746 
	C691.918335,959.508545 691.592224,959.898315 691.015076,960.377563 
	C691.036499,960.014893 691.308899,959.562866 691.912842,959.114746 
z"/>
<path fill="#3A444C" opacity="1.000000" stroke="none" 
	d="
M748.085815,906.470459 
	C748.063721,906.992126 747.749756,907.410645 747.166931,907.819580 
	C747.196716,907.329102 747.495300,906.848206 748.085815,906.470459 
z"/>
<path fill="#3A444C" opacity="1.000000" stroke="none" 
	d="
M440.094910,927.631592 
	C440.096436,928.160706 439.809357,928.576965 439.260193,929.000000 
	C439.267487,928.510803 439.536865,928.014771 440.094910,927.631592 
z"/>
<path fill="#3A444C" opacity="1.000000" stroke="none" 
	d="
M749.597778,904.930298 
	C749.645935,905.374207 749.370422,905.807556 748.831299,906.319885 
	C748.803162,905.905823 749.038635,905.412781 749.597778,904.930298 
z"/>
<path fill="#3A444C" opacity="1.000000" stroke="none" 
	d="
M441.710571,926.003784 
	C441.775085,926.445984 441.517578,926.866028 441.002075,927.347046 
	C440.958862,926.932617 441.173706,926.457092 441.710571,926.003784 
z"/>
<path fill="#3A444C" opacity="1.000000" stroke="none" 
	d="
M979.508667,919.105286 
	C979.525391,918.661560 979.855225,918.207947 980.473511,917.698608 
	C980.448608,918.127014 980.135254,918.611145 979.508667,919.105286 
z"/>
<path fill="#3A444C" opacity="1.000000" stroke="none" 
	d="
M982.980957,915.731384 
	C982.853333,915.441101 983.024597,915.116577 983.477173,914.731201 
	C983.598938,915.012634 983.439331,915.354919 982.980957,915.731384 
z"/>
<path fill="#3A444C" opacity="1.000000" stroke="none" 
	d="
M1405.395630,902.782532 
	C1405.372925,901.844482 1405.730469,900.365112 1406.259033,900.301208 
	C1415.054077,899.238342 1423.856445,898.171936 1432.686890,897.491760 
	C1438.529419,897.041809 1444.418701,897.137756 1450.287720,897.104431 
	C1461.358643,897.041565 1472.430420,897.116638 1483.501221,897.034180 
	C1498.343262,896.923706 1513.184692,896.582214 1528.026245,896.589783 
	C1544.468994,896.598145 1560.915894,896.702332 1577.352783,897.104858 
	C1595.965454,897.560730 1614.574219,898.281555 1633.170776,899.177673 
	C1636.152832,899.321350 1639.061890,900.982666 1642.031982,902.323486 
	C1633.078247,902.778564 1624.097412,902.915588 1615.116455,902.916748 
	C1545.362793,902.925903 1475.609009,902.908813 1405.395630,902.782532 
z"/>
<path fill="#3A444C" opacity="1.000000" stroke="none" 
	d="
M648.543091,961.831665 
	C647.574280,962.973572 646.199158,964.772217 644.729797,964.852905 
	C629.018066,965.715210 613.295532,966.440735 597.567322,966.919678 
	C588.259521,967.203125 578.934143,966.856323 569.620483,967.014771 
	C558.178711,967.209290 546.736816,967.997681 535.302307,967.870667 
	C520.390869,967.705139 505.488586,966.825989 490.578491,966.384827 
	C481.668243,966.121094 472.748505,966.189697 463.836853,965.959473 
	C454.557953,965.719849 445.278961,965.385437 436.012756,964.865112 
	C434.672668,964.789917 433.403870,963.445251 432.042175,962.291992 
	C446.103516,961.879456 460.224701,961.859985 474.345917,961.846985 
	C532.261597,961.793823 590.177307,961.742615 648.543091,961.831665 
z"/>
</svg>