<svg version="1.1" id="Layer_1" xmlns="http://www.w3.org/2000/svg" xmlns:xlink="http://www.w3.org/1999/xlink" x="0px" y="0px"
	 width="100%" viewBox="0 0 1024 1024" enable-background="new 0 0 1024 1024" xml:space="preserve">
<path fill="#000000" opacity="1.000000" stroke="none" 
	d="
M490.690704,492.529724 
	C489.108398,493.518494 487.708435,494.191254 486.677704,495.230286 
	C484.445618,497.480438 481.614716,500.244141 482.791351,503.315399 
	C483.836060,506.042236 487.578217,504.590637 490.097321,504.607422 
	C506.751343,504.718323 523.406494,504.652954 540.061096,504.692566 
	C542.015198,504.697235 544.049927,504.276917 546.362793,505.517548 
	C546.379395,510.865936 544.852417,516.104858 543.312012,521.282227 
	C542.492310,524.037292 539.717407,523.202454 537.683960,523.209717 
	C519.863586,523.273621 502.042786,523.223633 484.222565,523.302979 
	C482.213379,523.311951 479.420898,522.257263 478.477875,524.919922 
	C477.481323,527.733887 478.372314,530.559998 480.565613,532.718018 
	C484.066711,536.162781 488.676361,536.527588 493.141937,536.538513 
	C506.459381,536.571106 519.777527,536.309143 533.095398,536.162537 
	C534.094543,536.151550 535.094055,536.119751 536.092773,536.136047 
	C542.175598,536.235168 542.432800,536.539856 541.406433,542.349121 
	C538.770752,557.266052 538.770691,557.269104 523.730835,557.281372 
	C510.407043,557.292175 497.083130,557.266541 483.759552,557.321655 
	C480.406403,557.335510 477.113251,557.012085 473.853119,556.278076 
	C459.391998,553.022217 451.462860,543.318909 451.732819,528.518005 
	C451.947052,516.772583 454.572479,505.399902 459.049286,494.571289 
	C465.793549,478.258148 479.122345,470.705597 495.901428,469.947113 
	C514.516785,469.105530 533.198425,469.721741 551.851196,469.744629 
	C552.799622,469.745789 553.747437,470.138214 555.082153,470.434204 
	C554.677063,476.555878 553.019897,482.281403 551.633057,488.035583 
	C550.935974,490.928131 548.305298,490.323853 546.231506,490.330627 
	C531.742004,490.377899 517.252197,490.406036 502.762817,490.349670 
	C498.709595,490.333893 494.806549,490.885254 490.690704,492.529724 
z"/>
<path fill="#000000" opacity="1.000000" stroke="none" 
	d="
M743.918701,530.324097 
	C733.514221,530.524658 734.923645,528.928345 733.058777,538.627930 
	C732.179382,543.201599 731.085144,547.736755 730.307922,552.326477 
	C729.754150,555.596985 728.418884,557.363220 724.756226,557.216064 
	C719.266174,556.995422 713.759583,557.102051 708.261902,557.188232 
	C704.836304,557.241943 703.394592,556.160400 704.215576,552.401917 
	C706.948181,539.891602 709.550049,527.350220 711.983398,514.778381 
	C712.734192,510.899445 714.629761,509.749146 718.471375,509.779510 
	C736.799927,509.924316 755.130676,509.758484 773.460449,509.798279 
	C778.709839,509.809692 782.455933,507.699371 784.482727,502.825928 
	C787.248657,496.175385 784.278076,491.083435 777.087769,490.466919 
	C773.281250,490.140564 769.427979,490.338257 765.595825,490.336090 
	C751.431702,490.328125 737.265991,490.219788 723.104309,490.404999 
	C718.644348,490.463318 716.838684,489.151703 718.215027,484.598114 
	C718.790100,482.695496 719.054932,480.698395 719.447815,478.741608 
	C721.568115,468.182343 719.985046,469.753021 730.286743,469.701080 
	C748.116394,469.611206 765.947083,469.723083 783.777039,469.668793 
	C787.653076,469.657013 791.440613,470.168579 795.114258,471.238678 
	C808.400940,475.109039 814.476868,487.220673 810.793823,502.358368 
	C807.656250,515.253906 799.763489,523.722412 787.046204,527.641602 
	C785.794189,528.027466 784.549255,528.436584 782.663391,529.038330 
	C789.743652,538.776611 798.484741,546.647583 805.711304,555.572815 
	C804.393311,557.645203 802.745667,557.152710 801.343140,557.172974 
	C796.345093,557.245178 791.264771,556.631409 786.364014,557.325500 
	C777.702454,558.552124 771.834473,555.068726 766.932495,548.313904 
	C763.618835,543.747803 759.317322,539.906555 755.902893,535.403442 
	C752.879944,531.416748 749.321167,529.529907 743.918701,530.324097 
z"/>
<path fill="#000000" opacity="1.000000" stroke="none" 
	d="
M388.273254,504.971130 
	C405.897736,504.976379 423.061584,504.963104 440.225311,504.998810 
	C446.345734,505.011536 446.634552,505.247772 445.333893,511.199951 
	C441.864960,527.074585 444.781647,524.029175 430.021057,524.221863 
	C414.692688,524.422058 399.354980,524.523010 384.032074,524.183594 
	C378.893768,524.069702 376.993896,525.957031 376.202087,530.719299 
	C374.948395,538.259583 373.041992,545.689087 371.641296,553.208191 
	C371.072906,556.259399 369.622162,557.402588 366.579437,557.329590 
	C360.750580,557.189697 354.914307,557.221863 349.083954,557.331360 
	C345.674896,557.395325 344.775543,556.123718 345.517731,552.759338 
	C349.313751,535.551025 352.473541,518.189270 356.730896,501.099152 
	C361.671692,481.265411 376.891449,469.825836 397.190155,469.702728 
	C414.519989,469.597626 431.851807,469.770721 449.180786,469.611298 
	C453.530243,469.571289 454.842377,470.908508 453.675140,475.197479 
	C452.413513,479.833588 453.009796,485.700500 450.318939,489.027161 
	C447.378326,492.662506 441.201691,490.403534 436.497894,490.590424 
	C423.518951,491.106140 410.510193,490.818481 397.520630,491.143951 
	C390.351715,491.323639 385.234406,494.895508 382.802032,501.850311 
	C382.595520,502.440765 382.620056,503.112061 382.550385,503.645111 
	C384.109039,505.501831 386.069794,504.775299 388.273254,504.971130 
z"/>
<path fill="#000000" opacity="1.000000" stroke="none" 
	d="
M271.514465,580.857544 
	C254.812347,567.842651 238.433319,555.013733 222.101364,542.125305 
	C219.174194,539.815308 218.679199,535.421326 220.819855,532.871216 
	C224.145020,528.910095 226.718048,528.406738 230.475327,531.232117 
	C242.707260,540.430237 255.351105,549.094421 266.875397,559.212585 
	C268.363770,560.519409 269.971832,561.250305 271.853424,560.130859 
	C273.091644,559.394165 273.789734,558.198853 273.480713,556.754883 
	C273.049957,554.742249 271.639801,553.567322 269.618469,553.425537 
	C267.859497,553.302063 266.409424,552.622192 265.078491,551.584656 
	C254.576721,543.398071 244.079788,535.205383 233.596664,526.994995 
	C233.090469,526.598511 232.727936,526.018555 231.726013,524.864807 
	C237.313660,520.584351 242.727509,516.321167 248.282791,512.251099 
	C249.979904,511.007751 251.364258,512.576111 252.688370,513.557129 
	C257.636871,517.223572 262.725586,520.716736 267.497406,524.599731 
	C270.536865,527.073120 272.891510,526.788025 275.866699,524.526123 
	C289.382751,514.250183 302.998138,504.104156 316.636566,493.990662 
	C318.567719,492.558685 320.197632,490.454529 322.895477,490.292572 
	C324.698700,491.739014 324.193634,493.701355 324.197021,495.445160 
	C324.223785,509.263794 324.099152,523.083313 324.218445,536.900818 
	C324.250214,540.583130 322.988739,543.027771 320.026550,545.294495 
	C305.621704,556.317871 291.394440,567.573120 277.086975,578.724060 
	C275.554657,579.918335 274.193848,581.618408 271.514465,580.857544 
z"/>
<path fill="#000000" opacity="1.000000" stroke="none" 
	d="
M264.282166,476.296478 
	C249.929779,487.187012 235.877838,497.877258 221.806122,508.541412 
	C221.449142,508.811981 220.874557,508.795441 220.414642,508.909576 
	C217.044312,502.005219 218.729797,493.362671 224.352966,488.969330 
	C239.451324,477.173065 254.589920,465.428284 269.679810,453.621216 
	C271.690247,452.048157 273.447998,451.120605 275.859131,453.047272 
	C288.743256,463.342285 301.699860,473.546600 314.616272,483.801300 
	C314.984314,484.093475 315.183258,484.598602 315.474274,485.023804 
	C315.409882,487.217773 313.650024,488.125732 312.245972,489.175812 
	C299.707367,498.553375 287.085480,507.820312 274.601440,517.269531 
	C272.098999,519.163574 270.317169,518.871338 268.009277,517.066162 
	C263.155945,513.270020 257.999664,509.857269 253.197784,506.000732 
	C250.382004,503.739349 248.315308,503.612854 245.388016,505.993256 
	C238.800308,511.350128 231.900894,516.325867 225.083588,521.396484 
	C223.647537,522.464600 222.419281,523.945312 220.489456,524.224121 
	C217.989868,519.549194 218.659286,515.482422 222.477676,512.509155 
	C236.672913,501.455841 250.893997,490.435669 265.080231,479.370819 
	C266.571655,478.207520 268.008881,477.345856 270.043945,477.516479 
	C271.912415,477.673126 273.240875,476.595093 273.612366,474.711365 
	C273.936432,473.067871 273.275757,471.660156 271.755005,470.988251 
	C269.861511,470.151672 268.653290,471.445221 267.531525,472.748108 
	C266.561432,473.874817 265.564880,474.978760 264.282166,476.296478 
z"/>
<path fill="#000000" opacity="1.000000" stroke="none" 
	d="
M456.087463,372.735748 
	C462.120361,378.034576 464.746826,384.123016 462.149445,391.699402 
	C459.884857,398.305084 455.020081,402.231476 448.238831,403.084015 
	C440.400238,404.069489 434.178467,401.043976 430.561737,393.750031 
	C429.251892,391.108429 427.098541,390.987183 424.710541,390.989624 
	C413.219452,391.001282 401.728333,391.004272 390.237244,391.012451 
	C361.092987,391.033264 331.948608,391.102875 302.804688,391.015625 
	C299.210693,391.004852 296.541016,392.008148 293.980194,394.588837 
	C279.318970,409.363647 264.544495,424.026917 249.715149,438.633270 
	C247.286835,441.025024 246.043808,443.525024 246.224091,446.990784 
	C246.457367,451.475037 246.277679,455.980865 246.271271,460.477417 
	C246.260757,467.842102 245.055557,469.570099 237.796158,472.579468 
	C236.217606,471.346313 236.767365,469.552948 236.756882,467.990570 
	C236.698761,459.330902 236.819946,450.669342 236.689011,442.011292 
	C236.642929,438.964325 237.524139,436.657684 239.739182,434.495056 
	C256.777527,417.860321 273.773071,401.180725 290.643219,384.375854 
	C293.088257,381.940247 295.729584,381.675598 298.790527,381.678772 
	C339.925751,381.721375 381.061157,381.671814 422.196014,381.805237 
	C426.534943,381.819305 429.352417,380.986786 431.917877,376.865753 
	C436.903412,368.857269 446.589813,367.482208 456.087463,372.735748 
M449.733734,393.230988 
	C454.045105,389.373657 454.831177,385.787262 452.198975,381.983826 
	C449.879669,378.632507 445.933319,377.604675 442.599670,379.483673 
	C438.971008,381.528992 437.366852,385.675018 438.806732,389.286835 
	C440.403473,393.292236 444.128998,394.841187 449.733734,393.230988 
z"/>
<path fill="#000000" opacity="1.000000" stroke="none" 
	d="
M626.718018,478.699158 
	C633.643127,470.770721 642.066223,468.457764 651.991333,469.591370 
	C657.224548,470.189056 662.582275,469.697021 667.781677,469.697021 
	C668.547302,472.426514 666.620605,473.094330 665.464050,474.051392 
	C651.735779,485.411621 637.965637,496.721436 624.192444,508.027344 
	C619.346924,512.004822 619.331543,512.089111 623.434937,516.953308 
	C633.639465,529.049866 643.836487,541.152832 654.018494,553.268372 
	C654.640808,554.008850 655.106445,554.881042 655.538635,555.531860 
	C655.003540,557.365906 653.665649,557.119202 652.579712,557.124756 
	C644.248718,557.167358 635.916626,557.089661 627.586670,557.192261 
	C624.918274,557.225098 623.326050,555.870239 621.761841,553.982422 
	C611.345215,541.410767 600.974060,528.798401 590.340942,516.411377 
	C587.437256,513.028748 587.809021,510.991180 591.092712,508.310120 
	C602.961792,498.619415 614.671509,488.733521 626.718018,478.699158 
z"/>
<path fill="#000000" opacity="1.000000" stroke="none" 
	d="
M292.304932,443.315674 
	C302.262421,433.470337 312.048370,423.943817 321.640594,414.226044 
	C324.326721,411.504761 327.206146,410.571320 330.954651,410.578094 
	C386.589783,410.678864 442.225922,410.528442 497.859436,410.852722 
	C504.788971,410.893097 508.848633,408.950378 511.882874,402.744080 
	C515.161377,396.038086 515.606262,396.261292 521.400024,401.042603 
	C527.129028,405.770477 532.865784,410.488953 539.180176,415.690216 
	C531.087830,422.169647 523.636108,428.136169 516.125244,434.149994 
	C512.321716,431.141205 510.859467,427.139069 508.762146,423.636810 
	C507.303070,421.200378 505.557495,420.220856 502.716827,420.223663 
	C446.248688,420.279297 389.780518,420.280762 333.312469,420.198608 
	C330.153473,420.194000 328.042969,421.458832 325.947662,423.581421 
	C315.416840,434.249481 304.789459,444.822205 294.196014,455.428467 
	C290.226868,459.402313 288.909729,459.296234 284.870697,455.278351 
	C283.061432,453.478607 283.499634,452.229248 285.066711,450.700287 
	C287.450287,448.374634 289.733978,445.946655 292.304932,443.315674 
M523.282166,412.260834 
	C520.919189,412.324646 520.046387,413.633636 520.363098,415.847076 
	C520.546509,417.127991 521.402649,417.995636 522.602844,418.227112 
	C524.307922,418.555908 525.501709,417.562500 526.126038,416.100098 
	C527.008972,414.031860 525.603821,413.090515 523.282166,412.260834 
z"/>
<path fill="#000000" opacity="1.000000" stroke="none" 
	d="
M441.999756,619.020020 
	C399.010803,619.063660 356.521576,619.052612 314.033173,619.236145 
	C309.491180,619.255737 306.207123,617.887817 303.076324,614.628113 
	C294.768158,605.977783 286.147491,597.627808 277.673187,589.136353 
	C276.176331,587.636475 273.931702,586.002380 276.753510,583.918762 
	C278.928589,582.312683 280.942688,579.008118 284.324280,582.421997 
	C291.828308,589.997742 299.530670,597.379944 306.928558,605.056580 
	C309.696625,607.928955 312.622681,609.062317 316.597168,609.051819 
	C349.754791,608.964233 382.913055,609.015686 416.070831,609.113159 
	C428.889038,609.150818 441.716003,609.177734 454.520172,609.684387 
	C460.263702,609.911621 463.723053,607.896790 466.537201,602.922363 
	C471.499634,594.150513 471.784119,594.273560 479.692505,600.577087 
	C484.880768,604.712524 489.998169,608.937012 494.873016,612.898743 
	C494.853943,615.732605 492.921051,616.457642 491.561554,617.548950 
	C486.236786,621.823547 480.785461,625.942261 475.507935,630.273376 
	C472.880951,632.429260 470.595367,632.778687 469.328949,629.269226 
	C465.945709,619.893982 459.001892,617.706299 449.990753,618.975952 
	C447.540222,619.321167 444.999176,619.024048 441.999756,619.020020 
M482.253143,612.235596 
	C481.015106,610.628723 479.595490,609.742493 477.740021,611.303162 
	C476.831360,612.067505 476.207611,613.071899 476.666351,614.316833 
	C477.151459,615.633362 478.123840,616.618347 479.575745,616.509277 
	C481.715607,616.348572 482.745758,615.058594 482.253143,612.235596 
z"/>
<path fill="#000000" opacity="1.000000" stroke="none" 
	d="
M276.622375,644.451904 
	C260.779663,628.923218 245.243286,613.599487 229.560440,598.427185 
	C226.846237,595.801331 225.519211,593.143433 225.601151,589.281921 
	C225.834335,578.291992 225.666275,567.293945 225.711670,556.299316 
	C225.718292,554.694763 225.256134,552.979797 226.338913,551.501160 
	C232.789185,553.472168 235.202560,556.483521 235.219543,562.615784 
	C235.241241,570.445251 235.320312,578.276123 235.198425,586.103699 
	C235.153732,588.974243 236.005539,591.135742 238.084305,593.171265 
	C252.603180,607.388123 267.053772,621.675171 281.453766,636.012512 
	C283.491425,638.041321 285.654663,638.931213 288.534515,638.924011 
	C310.024078,638.869995 331.514465,638.858948 353.003174,639.023193 
	C356.885437,639.052795 359.283813,637.884888 361.551117,634.529358 
	C367.253174,626.090454 378.535492,624.574463 386.661804,630.632629 
	C393.982880,636.090515 395.479889,646.764160 389.981354,654.300476 
	C382.862030,664.058289 367.071014,663.470520 361.314148,652.871521 
	C359.330017,649.218445 356.943420,648.518555 353.386902,648.546509 
	C331.590546,648.718079 309.792999,648.747253 287.996948,648.943848 
	C283.640503,648.983154 279.668549,648.534851 276.622375,644.451904 
M378.507629,636.927917 
	C374.933167,635.678101 371.998566,636.573181 369.839233,639.671143 
	C367.973083,642.348572 367.649567,645.210205 369.560150,647.993713 
	C371.370483,650.631104 373.927673,652.141724 377.184998,651.517944 
	C380.567566,650.870056 382.841614,648.650513 383.474915,645.278931 
	C384.162537,641.618103 382.596771,638.856384 378.507629,636.927917 
z"/>
<path fill="#000000" opacity="1.000000" stroke="none" 
	d="
M565.402222,489.498962 
	C566.582886,483.887177 567.640991,478.681091 568.736938,473.483002 
	C569.078796,471.861664 569.332886,469.876801 571.465576,469.844849 
	C579.049072,469.731140 586.635315,469.800415 594.575073,469.800415 
	C594.423645,477.076843 592.242859,483.223816 591.000488,489.500031 
	C586.907166,510.179565 582.455811,530.788086 578.324158,551.460266 
	C577.516052,555.503540 576.082092,557.638733 571.496582,557.271606 
	C566.539185,556.874695 561.519958,557.076599 556.535461,557.245667 
	C552.396240,557.385925 551.409424,555.848633 552.287354,551.799805 
	C556.754700,531.197693 560.982483,510.543610 565.402222,489.498962 
z"/>
<path fill="#000000" opacity="1.000000" stroke="none" 
	d="
M681.226196,495.747620 
	C686.687195,495.749634 691.675232,495.826141 696.659668,495.724823 
	C699.871155,495.659546 701.176208,496.610321 700.416138,500.142822 
	C696.646545,517.661682 692.980103,535.203857 689.468323,552.776001 
	C688.814819,556.046021 687.319824,557.279236 684.112488,557.209534 
	C678.630005,557.090454 673.140076,557.076904 667.658813,557.224487 
	C664.151917,557.318848 662.847534,556.172180 663.637695,552.509399 
	C667.450806,534.835571 671.163574,517.139648 674.809326,499.430481 
	C675.539795,495.882050 677.897522,495.560547 681.226196,495.747620 
z"/>
<path fill="#000000" opacity="1.000000" stroke="none" 
	d="
M318.271301,481.011108 
	C311.390869,476.105286 311.453369,476.147797 316.991669,470.717804 
	C328.522522,459.412415 340.022339,448.074310 351.425140,436.640167 
	C353.595551,434.463806 355.886047,433.675110 358.915863,433.513885 
	C369.071777,432.973419 379.212921,433.212463 389.353333,433.628052 
	C392.529205,433.758179 394.506409,432.677704 396.285278,429.942230 
	C400.383850,423.639709 407.021667,421.306671 413.567566,423.330505 
	C420.242584,425.394257 424.944519,431.599365 424.834198,438.198914 
	C424.723145,444.839783 420.325378,450.593292 413.772156,452.671082 
	C406.990570,454.821259 400.349548,452.478210 396.027954,446.087372 
	C394.660950,444.065826 393.187775,443.089905 390.761200,443.108093 
	C381.104950,443.180420 371.446930,443.223572 361.791748,443.103119 
	C358.939209,443.067505 357.185364,444.570160 355.384155,446.365814 
	C344.890594,456.827118 334.387054,467.278625 323.835999,477.681793 
	C322.351807,479.145142 321.188660,481.238647 318.271301,481.011108 
M415.476227,437.608124 
	C415.137848,436.143921 414.720215,434.664917 413.474854,433.729797 
	C410.634918,431.597229 407.649384,431.165985 405.080688,434.011017 
	C402.608368,436.749237 402.583038,439.863159 405.393585,442.337158 
	C408.138336,444.753235 411.207977,444.491791 413.748291,441.826599 
	C414.604431,440.928375 414.918213,439.513245 415.476227,437.608124 
z"/>
<path fill="#000000" opacity="1.000000" stroke="none" 
	d="
M309.037323,562.038574 
	C307.874908,557.772766 311.562012,557.369812 313.604340,555.915344 
	C315.574036,554.512695 316.966919,556.440002 318.238678,557.685730 
	C326.565338,565.841858 334.933380,573.958252 343.121002,582.252319 
	C345.513306,584.675720 347.956726,585.886414 351.432465,585.807861 
	C360.253448,585.608276 369.083618,585.648682 377.906769,585.795715 
	C381.192841,585.850525 383.361603,584.931091 385.305878,582.010986 
	C389.402100,575.859009 396.396088,573.945007 403.415955,576.398804 
	C410.109833,578.738647 413.571747,583.964783 413.347809,591.392029 
	C413.168030,597.354736 409.134491,602.525879 402.990540,604.670227 
	C396.976807,606.769165 389.917236,605.303955 386.325989,600.094360 
	C383.528381,596.036072 380.271362,595.183655 375.802399,595.294250 
	C366.316742,595.528992 356.819733,595.266296 347.329987,595.397827 
	C344.124451,595.442200 341.702118,594.583923 339.376923,592.226868 
	C329.438171,582.152039 319.305939,572.268066 309.037323,562.038574 
M401.774353,585.793335 
	C397.380951,583.790161 394.016998,584.616882 392.737305,588.219604 
	C391.459656,591.816467 392.889252,594.325073 396.304413,595.855347 
	C398.939697,597.036255 400.878662,595.778625 402.462738,593.962646 
	C404.643677,591.462402 404.405975,588.814148 401.774353,585.793335 
z"/>
<path fill="#000000" opacity="1.000000" stroke="none" 
	d="
M503.974396,590.706726 
	C508.415344,597.607666 512.536499,604.250610 516.845032,610.769714 
	C518.343811,613.037537 518.331116,614.869446 516.860352,617.139221 
	C512.882996,623.277161 509.096954,629.539062 505.238342,635.753906 
	C504.155670,637.497742 502.954041,639.075439 500.621246,639.059143 
	C492.640472,639.003540 484.659576,638.957520 476.679504,638.847900 
	C476.091827,638.839783 475.510712,638.354736 474.035980,637.690002 
	C482.622986,628.647644 493.300415,622.743164 502.122559,613.692566 
	C492.624542,605.888306 483.477112,598.372070 474.622559,591.096497 
	C475.009888,589.577148 475.464142,589.071777 476.189606,589.068176 
	C484.335632,589.027710 492.481750,589.007751 500.627869,589.012268 
	C501.833954,589.012939 502.892303,589.495911 503.974396,590.706726 
z"/>
<path fill="#000000" opacity="1.000000" stroke="none" 
	d="
M551.869019,400.152771 
	C554.575500,404.376495 556.977417,408.369080 559.617004,412.197784 
	C561.334839,414.689453 561.533936,416.856323 559.851013,419.502075 
	C556.017090,425.529541 552.409058,431.700989 548.727722,437.825012 
	C547.836792,439.307037 546.850403,440.563629 544.887939,440.535583 
	C536.580505,440.416962 528.272644,440.327972 519.965637,440.187195 
	C519.542358,440.180023 519.125488,439.792084 518.004639,439.229706 
	C526.183350,430.245941 536.707336,424.325562 545.000732,415.553925 
	C536.943115,406.936798 526.857178,401.188568 519.116394,393.012878 
	C520.527039,390.419769 522.546753,390.987976 524.258179,390.936249 
	C528.411072,390.810730 532.664978,391.390900 536.703857,390.686798 
	C544.660889,389.299652 548.718079,393.478729 551.869019,400.152771 
z"/>
<path fill="#000000" opacity="1.000000" stroke="none" 
	d="
M703.549744,469.804749 
	C706.830688,472.698822 704.133667,488.420807 700.482788,488.998749 
	C696.595825,489.614014 692.552917,489.296906 688.578125,489.294891 
	C676.571594,489.288818 676.571655,489.271423 679.140747,477.409241 
	C680.806335,469.718689 680.806274,469.711182 688.678772,469.711792 
	C693.486084,469.712158 698.293457,469.739929 703.549744,469.804749 
z"/>
</svg>