<svg version="1.1" id="Layer_1" xmlns="http://www.w3.org/2000/svg" xmlns:xlink="http://www.w3.org/1999/xlink" x="0px" y="0px"
	 width="100%" viewBox="0 0 1024 1024" enable-background="new 0 0 1024 1024" xml:space="preserve">
<path fill="#000000" opacity="1.000000" stroke="none" 
	d="
M425.977997,432.022339 
	C439.447388,441.777435 454.058411,445.391296 470.144653,442.658722 
	C475.455902,441.756470 480.297119,439.775879 484.709229,436.514587 
	C493.214508,430.227722 503.518646,430.912689 511.040588,438.374786 
	C520.973450,448.228668 530.745544,458.248535 540.431458,468.345978 
	C546.136658,474.293610 546.078613,476.509277 540.820374,482.833130 
	C537.068237,487.345673 532.439636,490.925018 527.937195,494.624847 
	C525.081848,496.971222 522.108215,496.700470 519.201843,494.659515 
	C514.024353,491.023651 508.739105,487.524017 503.749359,483.645233 
	C501.225586,481.683350 499.298187,481.606201 496.658325,483.308380 
	C493.452179,485.375732 490.101837,487.474304 486.514618,488.632690 
	C481.796234,490.156372 480.522247,493.324860 480.388275,497.661102 
	C480.254669,501.984894 480.325287,506.350189 479.728027,510.616364 
	C478.768066,517.473572 475.996094,520.218567 469.105011,521.112671 
	C457.182465,522.659546 445.232513,522.865479 433.246185,521.438171 
	C428.092743,520.824585 425.653076,518.174133 424.757080,513.253296 
	C423.633057,507.080292 424.455566,500.952789 424.748199,494.819000 
	C424.913208,491.361115 423.587524,489.689606 420.527740,487.912323 
	C411.397614,482.609100 403.183289,481.791626 395.284546,490.115387 
	C393.167694,492.346161 389.981903,493.531769 387.405670,495.364319 
	C383.091064,498.433533 379.003601,498.098907 375.091339,494.755524 
	C365.150330,486.259918 356.475220,476.674255 349.660370,465.441986 
	C346.987000,461.035706 347.118774,457.022736 350.251740,452.969116 
	C353.714813,448.488495 356.971069,443.843323 360.542389,439.452850 
	C362.604919,436.917267 362.719238,434.547852 361.523010,431.638489 
	C360.072479,428.110565 358.601349,424.506592 357.869415,420.791656 
	C357.146729,417.123810 355.101562,415.803131 351.786804,415.413818 
	C346.012695,414.735657 340.243591,414.010437 334.480347,413.245148 
	C328.404297,412.438293 326.349426,410.684662 325.567322,404.458191 
	C324.069489,392.533539 324.192902,380.575043 325.461945,368.612366 
	C325.905914,364.427399 328.235931,362.390289 332.056763,361.629730 
	C338.568237,360.333496 345.070770,358.972687 351.617981,357.885468 
	C354.147186,357.465454 355.279999,356.251282 356.020355,353.904480 
	C357.524811,349.135712 359.475891,344.508575 362.145294,340.264832 
	C363.643555,337.882996 363.307251,336.123535 361.539673,334.041412 
	C357.876251,329.726166 354.444336,325.214142 350.925446,320.776520 
	C348.464966,317.673645 348.373932,314.573944 350.415375,311.093231 
	C356.992340,299.879272 365.610321,290.482910 375.552826,282.222473 
	C378.752197,279.564392 382.063995,279.307129 385.658264,281.569092 
	C391.578064,285.294617 397.647797,288.785614 403.508362,292.599762 
	C405.775482,294.075256 407.561737,294.215454 409.855438,292.749359 
	C411.941925,291.415710 414.238312,290.125580 416.616638,289.587799 
	C423.224365,288.093811 424.505890,283.862457 423.995728,277.815063 
	C423.578918,272.874634 423.551270,267.862946 424.394043,262.866699 
	C425.040375,259.034912 427.086273,256.775452 430.630646,255.958710 
	C444.325714,252.803009 458.061859,253.134857 471.730621,256.082458 
	C477.520172,257.330963 478.852173,262.068817 479.235382,267.132721 
	C479.674622,272.936768 480.062988,278.752441 480.186005,284.569153 
	C480.242188,287.224060 481.248566,288.733917 483.442627,290.173859 
	C494.327789,297.317627 496.107910,305.728485 489.340057,316.976868 
	C488.481537,318.403687 487.583862,319.807343 486.686066,321.210022 
	C480.874939,330.289215 473.081512,334.501251 461.867462,333.301697 
	C448.622742,331.885010 436.512054,335.850464 425.934174,344.085205 
	C407.370972,358.536530 400.326691,380.601929 406.737854,404.368652 
	C409.803986,415.735016 416.446838,424.684601 425.977997,432.022339 
z"/>
<path fill="#000000" opacity="1.000000" stroke="none" 
	d="
M480.138733,196.983566 
	C480.087921,207.300842 479.047699,208.319138 469.223816,208.302170 
	C427.224731,208.229599 385.225647,208.132126 343.226562,208.114975 
	C321.013458,208.105911 303.307465,225.793411 303.192566,248.115295 
	C303.051056,275.613495 303.502930,303.122955 302.875061,330.608734 
	C301.371429,396.432312 302.428314,462.255646 302.258789,528.078430 
	C302.234894,537.349915 303.732574,546.399658 307.415222,554.859863 
	C313.334534,568.458313 324.714539,575.176270 338.758026,577.617615 
	C351.307556,579.799133 364.049652,578.791748 376.672974,578.452576 
	C407.834412,577.615356 438.995209,577.926208 470.154572,577.891907 
	C493.141937,577.866516 516.130188,578.420410 539.117554,578.751770 
	C545.730652,578.847107 547.315857,580.354370 547.997620,586.862549 
	C549.611328,602.266602 548.114929,604.000854 532.736511,604.083496 
	C507.570587,604.218750 482.399353,604.009888 457.239319,604.453674 
	C420.246124,605.106262 383.252258,605.209412 346.257294,605.261597 
	C311.823669,605.310181 280.113770,576.425354 276.572113,542.150208 
	C276.057190,537.166687 275.681885,532.209229 275.682770,527.206116 
	C275.698853,435.707092 275.706848,344.208069 275.701447,252.709030 
	C275.699829,224.887161 287.920685,204.150620 312.019409,190.480759 
	C323.287262,184.089142 335.420868,182.004211 348.502991,182.366455 
	C373.984192,183.071991 399.496735,182.650726 424.996307,182.684052 
	C438.329498,182.701492 451.662720,182.676498 464.995789,182.713562 
	C467.154053,182.719559 469.342865,182.760925 471.463928,183.110916 
	C478.268860,184.233765 479.784241,186.048264 480.078247,193.022614 
	C480.127319,194.187027 480.117523,195.353897 480.138733,196.983566 
z"/>
<path fill="#000000" opacity="1.000000" stroke="none" 
	d="
M584.498596,389.496674 
	C596.521912,381.085358 600.018799,370.099426 599.062500,355.810547 
	C597.763245,336.397736 598.846375,316.832153 598.649109,297.334717 
	C598.592896,291.778534 600.310120,287.577698 604.282837,283.599426 
	C625.359375,262.493225 646.153748,241.105560 667.188354,219.957138 
	C670.692383,216.434219 671.965881,213.646362 669.948608,208.333282 
	C662.569092,188.897614 672.956360,165.212082 691.396362,157.739563 
	C712.227600,149.298019 735.518616,157.955276 744.865295,177.613876 
	C754.261536,197.376785 751.305176,214.449341 735.135315,227.418015 
	C723.533875,236.722687 709.887390,239.166504 695.559509,234.767059 
	C691.475647,233.513077 689.230835,234.500076 686.518921,237.277573 
	C666.495056,257.785645 646.371338,278.196716 626.179688,298.539642 
	C623.965942,300.769958 623.270874,303.097443 623.281189,306.104858 
	C623.367676,331.270477 623.258423,356.437103 623.440918,381.601746 
	C623.471436,385.804291 622.185242,388.864105 619.228088,391.728668 
	C608.575623,402.047302 598.052063,412.499634 587.532593,422.954529 
	C585.437866,425.036316 583.040344,426.906372 581.515076,430.160614 
	C590.547424,439.801086 599.346313,449.795776 608.826843,459.095703 
	C614.976196,465.127838 617.953308,471.535431 617.427490,480.306091 
	C616.770508,491.265259 617.406006,502.297119 617.253784,513.294373 
	C617.208130,516.595398 618.195923,518.251526 621.443298,519.497925 
	C642.408875,527.544434 652.960938,550.158020 646.141479,571.900085 
	C639.831482,592.017883 616.863220,604.434814 595.691956,599.067200 
	C579.511719,594.965027 568.432190,585.004517 564.038147,568.898560 
	C559.819092,553.433838 563.813293,539.592651 575.133728,528.061340 
	C578.692078,524.436707 583.036987,521.922180 587.673401,520.007996 
	C590.519592,518.832886 591.763062,517.188965 591.718811,514.006104 
	C591.565857,503.008636 591.572083,492.006287 591.731079,481.008850 
	C591.774597,477.999969 590.435547,476.049438 588.494629,474.077393 
	C576.688171,462.081696 564.907532,450.060120 553.187866,437.979767 
	C546.844971,431.441711 546.848755,427.347015 553.198242,420.915955 
	C563.501648,410.480133 573.893677,400.131744 584.498596,389.496674 
M615.103760,544.285645 
	C609.462585,540.357605 603.578735,540.418579 597.652466,543.446045 
	C591.622314,546.526611 588.531616,551.751221 588.422729,558.352844 
	C588.316467,564.793579 591.132202,570.047607 597.128845,572.916016 
	C603.321045,575.878052 609.632507,576.176697 615.658081,572.271606 
	C622.562500,567.796875 625.304504,550.925354 615.103760,544.285645 
M699.320557,207.257782 
	C707.589172,212.028793 715.090881,211.826996 719.940979,206.703186 
	C724.381042,202.012512 724.809509,192.936188 720.725525,186.677658 
	C717.472900,181.693130 712.721924,179.051666 706.793823,179.605927 
	C699.843811,180.255722 695.207092,184.156876 693.191223,190.971176 
	C691.231934,197.593918 693.963501,202.559769 699.320557,207.257782 
z"/>
<path fill="#000000" opacity="1.000000" stroke="none" 
	d="
M788.902405,674.731018 
	C801.249390,676.140503 812.610474,679.065918 822.309265,686.538635 
	C842.256958,701.907959 848.869446,724.455811 841.088623,749.025391 
	C836.327209,764.060425 827.091614,774.895325 812.707764,781.355042 
	C811.670105,781.820923 810.480042,782.138184 809.747498,783.890259 
	C814.551697,792.190918 819.480591,800.820496 824.519714,809.385254 
	C831.022461,820.437500 837.607422,831.441284 844.168884,842.458862 
	C847.227844,847.595215 846.266724,849.901917 840.242859,850.079651 
	C829.256287,850.403687 818.254761,850.197327 807.260010,850.283569 
	C804.328491,850.306580 803.348816,848.273438 802.256897,846.150574 
	C793.192566,828.529114 783.973083,810.985657 775.105835,793.265808 
	C772.888916,788.835510 770.224854,786.990601 765.141052,786.953918 
	C750.288269,786.846985 750.173889,786.614624 750.335510,801.188232 
	C750.488770,815.009216 750.960388,828.826355 751.211548,842.646667 
	C751.328308,849.070068 750.074707,850.153076 743.681641,850.224182 
	C735.699036,850.313171 727.767090,848.626953 719.741882,849.781433 
	C716.387024,850.264038 714.391357,848.378723 714.066589,844.955750 
	C713.940979,843.631897 713.928345,842.294617 713.917664,840.963013 
	C713.496338,788.322266 713.080566,735.681458 712.665405,683.040649 
	C712.600647,674.831787 712.840637,674.407715 721.027954,674.628845 
	C737.860901,675.083374 754.668274,674.043457 771.489441,674.033752 
	C777.142395,674.030518 782.795532,674.472595 788.902405,674.731018 
M763.515747,756.667786 
	C771.161377,756.538879 778.827820,757.134155 786.430054,755.696472 
	C795.389404,754.002136 802.298950,749.739563 805.415710,740.745972 
	C810.983337,724.680603 801.039673,709.435913 784.069275,707.230957 
	C774.223633,705.951660 764.464844,706.835388 754.657532,706.991577 
	C750.497681,707.057861 749.193420,708.730042 749.249390,712.739380 
	C749.421326,725.067383 749.271057,737.399536 749.320740,749.729797 
	C749.347595,756.387756 749.670410,756.633057 756.526062,756.662292 
	C758.525574,756.670776 760.525146,756.665588 763.515747,756.667786 
z"/>
<path fill="#000000" opacity="1.000000" stroke="none" 
	d="
M590.994019,849.239990 
	C585.497253,849.271606 580.478333,849.023315 575.507019,849.401672 
	C571.233093,849.726929 568.920776,847.906189 566.715088,844.437012 
	C555.544800,826.868225 544.189148,809.415955 532.746887,792.022461 
	C529.194641,786.622742 526.108765,780.981384 523.044006,774.765686 
	C518.009705,780.025757 514.024963,785.513489 510.160248,791.095154 
	C509.045776,792.704773 509.246063,794.595276 509.212128,796.420776 
	C508.918121,812.238159 508.498779,828.054871 508.411743,843.873352 
	C508.385956,848.557922 506.839264,850.530762 502.011353,850.378601 
	C493.689575,850.116272 485.353271,850.155151 477.026337,850.281738 
	C472.954163,850.343628 471.264526,848.183838 470.899658,844.599060 
	C470.664429,842.287720 470.761353,839.939331 470.763336,837.607544 
	C470.806091,787.290955 470.852966,736.974365 470.908142,686.657776 
	C470.919281,676.495667 471.734344,675.702454 482.128021,675.707214 
	C488.782654,675.710205 495.429718,675.586182 502.055084,676.641052 
	C507.311981,677.477905 509.652893,679.285828 509.098267,684.332825 
	C506.906006,704.282166 510.929474,724.263062 508.561768,744.191040 
	C508.405182,745.509033 508.430969,746.844971 510.090088,747.896301 
	C517.858765,737.338684 525.607666,726.773682 533.393616,716.236084 
	C542.102112,704.449829 550.945923,692.761597 559.512207,680.873230 
	C562.229004,677.102966 565.423889,675.376404 570.039001,675.608826 
	C579.515320,676.085876 589.002869,676.341736 598.485901,676.685852 
	C600.187561,676.747620 601.941956,676.824219 602.623962,678.760315 
	C603.215393,680.438965 602.007324,681.539307 601.072327,682.715332 
	C584.283752,703.831726 567.693359,725.111511 550.165955,745.624573 
	C546.908630,749.436768 546.756714,752.299438 549.644470,756.466797 
	C568.997620,784.395874 588.097839,812.500244 607.314880,840.523865 
	C610.561340,845.258118 609.239868,848.474915 603.480957,848.951782 
	C599.504333,849.281067 595.489990,849.154785 590.994019,849.239990 
z"/>
<path fill="#000000" opacity="1.000000" stroke="none" 
	d="
M377.010437,849.374146 
	C362.027527,849.673950 347.543091,850.028076 333.056641,850.247192 
	C326.725952,850.343018 325.691559,849.257812 325.652832,843.108704 
	C325.314941,789.456238 324.986359,735.803772 324.672821,682.151123 
	C324.635895,675.835388 325.078369,675.453308 331.580658,675.602112 
	C363.571777,676.334351 395.537933,674.386047 427.526276,674.711121 
	C434.676331,674.783813 435.866821,675.762817 435.926941,683.082581 
	C435.977478,689.237549 435.879913,695.394165 435.807251,701.549622 
	C435.758484,705.679993 433.829010,708.338135 429.519135,708.340515 
	C420.206146,708.345581 410.857239,708.596191 401.588684,707.887512 
	C389.091431,706.931946 376.612091,707.551331 364.128906,707.293091 
	C361.369354,707.236084 360.237030,708.393066 360.252228,711.153442 
	C360.308136,721.317566 360.338135,731.483337 360.200256,741.646118 
	C360.149445,745.392944 362.171051,745.840149 365.247986,746.031555 
	C382.405914,747.098877 399.550446,746.471802 416.699463,745.926453 
	C424.167206,745.688965 425.811218,747.210266 425.996277,754.765320 
	C426.135010,760.428650 426.169861,766.096069 426.150085,771.761353 
	C426.125183,778.903442 424.717499,780.414734 417.737671,780.285156 
	C401.254150,779.979187 384.773621,779.515259 368.290955,779.159363 
	C361.535248,779.013428 361.456604,779.214050 361.167145,786.080933 
	C360.772949,795.431702 362.043884,804.714355 362.154755,814.034729 
	C362.200867,817.913330 363.897156,818.648865 367.355469,818.722168 
	C387.527588,819.149597 407.661255,817.827576 427.816864,817.600037 
	C436.475525,817.502258 437.316803,818.260742 437.331055,826.873474 
	C437.339325,831.872803 437.365784,836.872803 437.301575,841.871399 
	C437.222290,848.044006 436.088287,849.241943 429.999969,849.268311 
	C412.502838,849.344238 395.005402,849.343933 377.010437,849.374146 
z"/>
<path fill="#000000" opacity="1.000000" stroke="none" 
	d="
M183.040222,826.990112 
	C182.907028,778.687988 182.773010,730.883850 182.655960,683.079651 
	C182.637711,675.626465 183.073715,675.357300 190.687881,675.569031 
	C221.827805,676.434814 252.941986,674.266785 284.081421,674.717529 
	C292.656952,674.841736 293.729889,675.429626 293.935730,683.916748 
	C294.088623,690.221741 293.554047,696.554504 293.105042,702.859253 
	C292.774536,707.499573 289.374146,708.260315 285.557587,708.178467 
	C271.742279,707.882263 257.928040,707.525696 244.111694,707.293457 
	C237.451416,707.181458 230.785919,707.381348 224.125534,707.272339 
	C220.717178,707.216614 219.309448,708.653503 219.330627,712.031677 
	C219.397461,722.691162 219.411514,733.352173 219.294403,744.010986 
	C219.257431,747.377502 220.469757,748.829712 223.948120,748.801758 
	C240.241547,748.670837 256.501465,750.689331 272.840820,748.942017 
	C283.683624,747.782593 284.577271,748.886292 284.797821,759.767517 
	C284.902191,764.916931 284.469147,770.076233 284.315704,775.232178 
	C284.140564,781.118835 282.681152,782.528076 276.771393,782.496643 
	C260.115814,782.407959 243.460220,782.291321 226.804535,782.270996 
	C220.348022,782.263123 220.252716,782.368835 220.351120,788.983093 
	C220.618591,806.959229 219.602203,824.949402 221.045029,842.915039 
	C221.482773,848.365845 219.720627,850.102600 214.083740,850.020447 
	C205.428635,849.894287 196.776886,849.528931 188.121765,849.417114 
	C184.981201,849.376587 183.605270,848.139038 183.573227,844.954407 
	C183.514587,839.131165 183.233383,833.310059 183.040222,826.990112 
z"/>
<path fill="#000000" opacity="1.000000" stroke="none" 
	d="
M754.191895,332.131470 
	C753.450012,350.445099 744.884216,363.171478 728.646179,370.433807 
	C724.673035,372.210785 723.249817,374.284027 723.268738,378.595337 
	C723.483093,427.393250 723.241943,476.194763 723.755493,524.988708 
	C723.908569,539.526550 723.066040,553.516663 716.555176,566.768127 
	C706.869080,586.482117 690.649109,597.955017 670.018494,603.838440 
	C665.466980,605.136414 661.953064,602.984375 661.165894,598.273132 
	C660.433044,593.887451 659.791748,589.426086 660.432861,584.889832 
	C660.977295,581.037048 662.734131,578.307129 666.493286,577.145264 
	C687.349182,570.699341 698.776611,555.591309 698.594543,529.990601 
	C698.305542,489.361938 698.223572,448.731781 698.071045,408.102173 
	C698.031006,397.442810 697.963440,386.782013 698.100220,376.124329 
	C698.144226,372.697937 696.967163,370.804138 693.770813,369.230408 
	C664.976196,355.053406 660.848450,316.445740 687.023987,297.933319 
	C710.708496,281.182678 746.031799,290.063538 753.249817,325.266937 
	C753.682922,327.379242 753.877136,329.540527 754.191895,332.131470 
M727.346191,326.570679 
	C723.053772,317.686646 714.535583,313.550903 706.187561,316.297668 
	C698.536133,318.815277 694.728210,325.833801 696.274475,334.568787 
	C697.524475,341.630646 703.654358,347.280365 710.595642,347.768127 
	C719.526306,348.395691 724.704712,345.446075 727.142761,338.209839 
	C728.338684,334.660309 728.079285,331.003662 727.346191,326.570679 
z"/>
<path fill="#000000" opacity="1.000000" stroke="none" 
	d="
M531.676147,281.999908 
	C531.710815,267.008575 531.549377,252.512680 531.888672,238.028534 
	C532.005249,233.055267 530.555176,230.443924 525.870728,228.157257 
	C503.581726,217.277100 493.748535,192.708694 502.758514,170.639999 
	C514.088074,142.889709 550.673523,132.686905 574.157776,153.279892 
	C596.700317,173.047089 598.663818,213.676132 563.003662,230.340973 
	C559.261597,232.089706 558.919006,234.506454 558.938110,237.841980 
	C559.102905,266.656708 559.066772,295.473541 559.422241,324.285645 
	C559.508728,331.300262 557.402832,336.571472 552.270264,341.477570 
	C539.151672,354.017365 526.520630,367.066376 513.640503,379.857300 
	C511.550903,381.932434 510.438660,384.112946 510.065582,387.180115 
	C508.748291,398.010284 497.647156,405.909637 487.760254,403.434448 
	C476.587952,400.637451 470.639801,384.304810 477.381836,374.905029 
	C478.669281,373.110077 480.291992,371.250183 482.391327,370.975739 
	C487.906525,370.254669 491.056213,366.371765 494.503845,362.802032 
	C505.494904,351.421661 516.377014,339.933929 527.506348,328.690765 
	C530.453125,325.713867 531.664612,322.530365 531.640137,318.477783 
	C531.567749,306.485687 531.652893,294.492615 531.676147,281.999908 
M526.484619,192.608383 
	C527.154358,194.862869 528.241455,196.896515 529.666931,198.765427 
	C535.646301,206.604599 545.997375,209.035492 554.080750,204.484512 
	C562.080688,199.980499 565.844177,189.797348 562.669739,181.244400 
	C559.598389,172.968887 550.392395,168.782349 540.362122,171.099594 
	C530.181335,173.451614 525.451294,180.436920 526.484619,192.608383 
z"/>
<path fill="#000000" opacity="1.000000" stroke="none" 
	d="
M672.252991,703.998413 
	C673.194885,749.118225 674.108032,793.738892 674.205688,838.371399 
	C674.208984,839.870483 674.238159,841.372192 674.163452,842.868103 
	C673.944763,847.247375 671.926758,849.510864 667.225159,849.389893 
	C659.233704,849.184204 651.233582,849.348267 643.238220,849.255249 
	C636.369995,849.175354 634.696960,847.470459 634.681152,840.660828 
	C634.570435,792.857666 636.244568,745.065857 635.596069,697.259521 
	C635.528381,692.267761 635.458069,687.265869 635.087036,682.291260 
	C634.745728,677.714600 636.777893,675.167908 641.148132,674.858276 
	C650.141785,674.221069 659.119629,675.028259 668.072937,675.821533 
	C671.305054,676.107849 672.395996,678.421448 672.357056,681.510376 
	C672.264709,688.839172 672.280334,696.169312 672.252991,703.998413 
z"/>
</svg>