<?xml version="1.0" standalone="no"?>
<!DOCTYPE svg PUBLIC "-//W3C//DTD SVG 20010904//EN"
 "http://www.w3.org/TR/2001/REC-SVG-20010904/DTD/svg10.dtd">
<svg version="1.0" xmlns="http://www.w3.org/2000/svg"
 width="1024.000000pt" height="1024.000000pt" viewBox="0 0 1024.000000 1024.000000"
 preserveAspectRatio="xMidYMid meet">

<g transform="translate(0.000000,1024.000000) scale(0.100000,-0.100000)"
fill="#000000" stroke="none">
<path d="M5305 8796 c-260 -85 -385 -362 -272 -601 45 -93 129 -178 222 -224
l68 -34 -6 -201 c-4 -110 -7 -320 -7 -467 l0 -265 -216 -227 c-145 -152 -225
-229 -243 -233 -76 -16 -104 -55 -105 -144 0 -106 64 -180 158 -180 57 0 93
17 134 64 27 31 34 49 45 123 1 6 104 116 230 243 125 127 234 242 243 255 14
22 16 81 15 515 -1 269 -4 496 -7 503 -3 10 15 21 56 36 79 29 184 129 223
212 66 141 50 314 -43 459 -42 66 -90 106 -170 144 -59 28 -76 31 -175 33 -71
2 -124 -2 -150 -11z m259 -280 c94 -71 88 -227 -10 -303 -29 -21 -50 -28 -99
-31 -77 -5 -132 20 -174 79 -52 71 -50 164 6 230 40 47 76 60 164 57 66 -3 80
-7 113 -32z"/>
<path d="M6953 8685 c-155 -48 -269 -195 -280 -363 -5 -74 4 -119 41 -203 5
-12 -86 -110 -351 -378 -197 -200 -363 -375 -370 -390 -9 -19 -12 -139 -13
-441 l0 -415 -240 -240 c-131 -131 -244 -252 -251 -267 -6 -15 -8 -39 -5 -54
4 -16 91 -112 216 -239 l210 -212 0 -211 0 -211 -57 -26 c-180 -82 -273 -294
-213 -487 52 -170 230 -298 411 -298 147 1 309 101 373 232 31 64 47 174 35
249 -13 80 -71 190 -127 240 -45 40 -133 89 -159 89 -10 0 -13 52 -13 228 0
126 -5 242 -10 262 -8 24 -65 92 -186 220 l-175 185 216 211 215 212 0 433 0
434 338 338 339 339 58 -18 c43 -12 80 -15 139 -11 183 12 311 105 365 264 72
214 -59 462 -279 527 -64 19 -169 20 -227 1z m205 -252 c61 -46 91 -158 58
-222 -57 -110 -245 -89 -291 33 -30 78 -8 144 66 194 28 20 43 23 87 20 32 -3
64 -13 80 -25z m-1026 -3615 c56 -32 81 -78 81 -148 0 -162 -165 -236 -288
-129 -41 36 -59 86 -52 145 13 122 151 192 259 132z"/>
<path d="M3270 8404 c-30 -8 -93 -33 -140 -56 -116 -57 -249 -188 -303 -298
-78 -158 -72 -26 -72 -1715 0 -1705 -7 -1563 81 -1743 35 -74 60 -108 122
-171 68 -68 94 -87 193 -135 162 -80 219 -89 484 -82 116 3 480 7 810 8 791 3
993 8 1005 28 6 8 9 55 8 105 -3 84 -4 90 -28 102 -20 10 -239 13 -1022 13
-694 0 -1013 3 -1050 11 -181 38 -319 185 -348 369 -10 67 -10 1370 0 2470 l5
555 27 58 c29 62 112 157 168 192 19 12 55 30 80 40 43 18 80 19 746 16 l702
-3 22 22 c20 20 22 30 18 105 -1 46 -8 89 -14 95 -6 6 -29 16 -50 21 -22 4
-343 8 -714 8 -554 0 -685 -3 -730 -15z"/>
<path d="M4405 7699 c-93 -7 -137 -18 -152 -41 -4 -7 -10 -73 -13 -147 l-5
-134 -40 -14 c-22 -7 -63 -25 -90 -39 l-51 -25 -114 70 c-73 46 -124 71 -143
71 -54 0 -244 -195 -298 -307 -25 -51 -20 -62 70 -172 34 -41 61 -78 61 -83 0
-5 -11 -28 -24 -51 -13 -23 -32 -64 -41 -92 -10 -27 -21 -54 -25 -58 -4 -4
-56 -16 -117 -27 -152 -26 -160 -31 -174 -99 -15 -72 -7 -345 11 -384 17 -34
76 -49 279 -70 20 -2 26 -12 42 -74 10 -39 25 -85 33 -101 15 -29 15 -30 -64
-136 -45 -61 -80 -118 -80 -131 0 -52 178 -277 274 -347 21 -15 49 -28 62 -28
13 0 76 36 141 79 71 47 122 76 128 71 6 -5 44 -22 85 -39 l75 -30 5 -135 c6
-171 8 -174 139 -189 102 -11 308 2 352 23 38 18 48 47 55 169 l7 110 102 51
102 52 84 -62 c113 -84 142 -97 173 -80 41 21 166 150 172 177 4 16 1 35 -8
50 -25 42 -350 362 -384 378 -60 28 -121 20 -203 -30 -81 -48 -141 -65 -234
-65 -264 1 -494 177 -552 422 -56 237 33 466 236 605 95 65 224 98 349 88 102
-9 145 14 217 114 66 92 81 136 64 193 -12 40 -63 100 -104 123 -16 9 -20 30
-27 144 -7 121 -10 136 -32 157 -37 38 -172 55 -343 43z"/>
<path d="M6980 7322 c-145 -39 -250 -162 -280 -329 -30 -167 67 -351 224 -428
l56 -27 0 -847 c0 -907 0 -903 -50 -1002 -45 -88 -160 -182 -255 -209 -62 -17
-75 -39 -75 -127 0 -132 28 -157 133 -122 119 40 197 89 287 179 98 97 147
184 180 314 19 76 20 113 20 940 l0 861 69 33 c84 40 160 117 199 199 24 52
27 69 27 168 0 103 -2 114 -32 177 -42 90 -110 160 -192 201 -57 28 -77 32
-156 34 -61 2 -111 -3 -155 -15z m200 -242 c76 -39 112 -118 91 -198 -31 -114
-158 -155 -260 -83 -35 25 -71 95 -71 139 0 123 128 199 240 142z"/>
<path d="M2158 3492 l-328 -2 -6 -24 c-3 -13 -2 -401 3 -862 l8 -839 175 0
175 0 3 331 2 331 52 6 c28 4 164 4 302 0 230 -6 253 -5 269 11 14 15 17 38
17 149 0 73 -4 138 -9 146 -7 11 -68 14 -319 15 -171 0 -314 5 -319 9 -9 10
-8 405 1 415 4 3 166 5 360 3 275 -1 356 1 362 11 4 7 10 74 12 149 4 132 4
137 -17 148 -14 8 -85 11 -218 9 -109 -2 -345 -4 -525 -6z"/>
<path d="M3743 3493 c-487 -3 -492 -3 -498 -24 -4 -11 -4 -398 1 -860 6 -756
9 -841 23 -848 9 -4 250 -5 537 -2 420 5 524 9 537 20 14 11 17 34 17 133 0
66 -4 128 -10 138 -10 18 -25 18 -374 13 l-364 -6 -6 49 c-4 27 -8 117 -11
201 -3 127 -1 152 11 157 8 3 145 1 304 -5 207 -7 295 -7 310 1 19 10 20 20
20 153 0 98 -4 147 -12 155 -9 9 -95 12 -324 12 l-312 0 -7 47 c-4 26 -5 116
-3 201 l3 155 362 -5 c331 -5 364 -4 378 12 19 21 22 279 3 298 -7 7 -30 11
-52 10 -23 -2 -262 -4 -533 -5z"/>
<path d="M6374 3489 c-21 -11 -21 -11 -27 -852 -5 -731 -4 -844 9 -857 22 -23
334 -29 353 -6 10 12 11 175 5 856 -6 756 -9 842 -23 849 -26 14 -293 22 -317
10z"/>
<path d="M7130 3486 c-10 -13 -12 -108 -6 -504 11 -872 18 -1207 25 -1214 7
-8 328 -14 336 -6 4 3 6 143 5 311 l0 304 31 7 c66 13 166 7 187 -11 11 -10
86 -146 167 -303 81 -157 150 -292 154 -300 5 -9 22 -15 45 -14 20 0 110 1
201 2 153 2 165 3 165 21 0 10 -47 96 -103 192 -184 308 -267 452 -265 453 2
1 32 15 68 31 86 40 177 130 219 217 48 101 64 185 59 314 -4 103 -7 116 -41
189 -48 100 -152 207 -247 253 -131 64 -146 65 -586 70 -356 3 -402 2 -414
-12z m734 -311 c139 -36 223 -157 198 -284 -17 -79 -43 -122 -95 -158 -65 -43
-122 -53 -317 -53 l-170 0 0 255 0 255 163 0 c113 0 181 -5 221 -15z"/>
<path d="M4733 3480 l-23 -9 -1 -638 c0 -351 -2 -726 -5 -833 -3 -145 -1 -201
8 -218 13 -23 18 -24 171 -28 114 -4 162 -2 173 7 11 9 14 60 14 287 l0 276
71 93 c39 51 74 93 78 93 5 0 15 -17 23 -38 8 -21 44 -83 80 -138 100 -152
321 -494 347 -536 22 -37 24 -38 85 -38 35 0 118 3 185 7 153 8 159 14 99 99
-22 33 -136 199 -252 369 -115 171 -241 355 -278 409 l-67 99 32 41 c17 23 68
84 112 136 202 237 428 528 422 544 -6 14 -324 30 -366 19 -19 -5 -254 -311
-479 -626 -40 -56 -78 -107 -85 -114 -9 -10 -12 67 -11 348 1 357 1 360 -20
374 -27 18 -280 30 -313 15z"/>
</g>
</svg>
