<?xml version="1.0" encoding="UTF-8"?>
<svg version="1.1" xmlns="http://www.w3.org/2000/svg" width="1024" height="1024">
<path d="M0 0 C337.92 0 675.84 0 1024 0 C1024 337.92 1024 675.84 1024 1024 C686.08 1024 348.16 1024 0 1024 C0 686.08 0 348.16 0 0 Z " fill="#E7DFD1" transform="translate(0,0)"/>
<path d="M0 0 C0.7314473 -0.00570007 1.46289459 -0.01140015 2.21650696 -0.01727295 C3.7656612 -0.0267148 5.31483545 -0.0332537 6.86401367 -0.03710938 C9.21244351 -0.04676873 11.55998033 -0.07777902 13.90820312 -0.109375 C15.41796359 -0.11591037 16.92773028 -0.12115874 18.4375 -0.125 C19.13050705 -0.1373468 19.8235141 -0.1496936 20.53752136 -0.16241455 C26.18999877 -0.13711148 31.81888515 0.88217699 36.2183075 4.61981201 C38.81690047 7.70759216 38.72009842 10.96280988 38.875 14.82421875 C38.93494141 15.92443359 38.99488281 17.02464844 39.05664062 18.15820312 C39.17748237 20.47498627 39.27913117 22.79285222 39.36132812 25.11132812 C39.55238514 31.77163779 39.55238514 31.77163779 43.45703125 36.796875 C44.47796875 37.2609375 45.49890625 37.725 46.55078125 38.203125 C50.38220289 41.92533747 52.27546112 45.31029912 53.05078125 50.640625 C52.96251424 58.61407836 46.54362105 67.04308555 41.21801758 72.67993164 C36.24328619 77.22486489 31.11634899 78.63181998 24.49780273 78.34985352 C23.66966064 78.30143311 22.84151855 78.2530127 21.98828125 78.203125 C8.14176586 77.833663 -3.26294117 80.61671622 -14.44921875 89.203125 C-15.31289063 89.85023438 -16.1765625 90.49734375 -17.06640625 91.1640625 C-26.2088822 98.63921761 -33.82301154 110.3302335 -35.44921875 122.203125 C-36.82418239 138.53032856 -34.83356129 154.47316282 -24.48046875 167.72265625 C-14.94048813 178.92541518 -3.76481829 185.04267063 10.55078125 188.203125 C23.8638164 188.88316216 34.53711095 188.6087429 45.640625 180.5078125 C48.79795352 178.35127318 51.5742213 178.02256401 55.30078125 177.953125 C56.53054688 177.91445313 56.53054688 177.91445313 57.78515625 177.875 C65.74645725 178.81956114 70.22786346 183.32027158 75.6015625 188.828125 C76.71158882 189.9430835 76.71158882 189.9430835 77.84403992 191.08056641 C79.39916536 192.64607613 80.94953 194.21632792 82.49536133 195.79101562 C84.86406029 198.20391858 87.2459806 200.60309745 89.63085938 203 C91.14270782 204.5252682 92.65380216 206.05128431 94.1640625 207.578125 C94.87548904 208.29693848 95.58691559 209.01575195 96.31990051 209.75634766 C96.97786118 210.42714355 97.63582184 211.09793945 98.3137207 211.7890625 C98.89217239 212.3773584 99.47062408 212.9656543 100.06660461 213.57177734 C102.51762192 216.26583763 103.54073528 217.69078056 103.61328125 221.390625 C101.35562047 229.49164309 94.26628235 234.5264636 88.078125 239.83203125 C85.55078125 241.203125 85.55078125 241.203125 82.65234375 241.1875 C78.94555852 240.0110392 76.08544088 238.17063061 72.98828125 235.890625 C72.43720703 235.49939453 71.88613281 235.10816406 71.31835938 234.70507812 C68.73738586 232.85890134 66.3102245 230.98433809 63.9609375 228.84765625 C61.72139733 226.98855639 61.72139733 226.98855639 59.2578125 227.19921875 C55.43594286 228.61656435 51.85572808 230.39386297 48.23828125 232.265625 C47.49771484 232.64267578 46.75714844 233.01972656 45.99414062 233.40820312 C44.17690603 234.33440657 42.36345721 235.26803129 40.55078125 236.203125 C40.53619873 236.77756348 40.52161621 237.35200195 40.5065918 237.94384766 C40.431644 240.57258196 40.33514131 243.20011052 40.23828125 245.828125 C40.20444336 247.18357422 40.20444336 247.18357422 40.16992188 248.56640625 C39.9246455 254.6760178 39.30746999 259.62428715 34.61328125 264.015625 C30.09439292 266.61740919 25.3332554 266.37825979 20.2421875 266.40625 C19.438452 266.41195007 18.63471649 266.41765015 17.80662537 266.42352295 C16.10962228 266.43295172 14.41260106 266.43949848 12.71557617 266.44335938 C10.12581421 266.45307797 7.53684196 266.48412583 4.94726562 266.515625 C3.29557761 266.52215448 1.64388395 266.52740517 -0.0078125 266.53125 C-0.77878769 266.5435968 -1.54976288 266.5559436 -2.34410095 266.56866455 C-6.90118732 266.54986503 -9.85056297 266.0632835 -13.44921875 263.203125 C-15.77813087 259.70975682 -15.68473018 258.34304635 -15.64453125 254.22265625 C-15.63808594 253.05927734 -15.63164062 251.89589844 -15.625 250.69726562 C-15.59986328 248.87485352 -15.59986328 248.87485352 -15.57421875 247.015625 C-15.56519531 245.78908203 -15.55617188 244.56253906 -15.546875 243.29882812 C-15.52327892 240.26673205 -15.49035716 237.23502562 -15.44921875 234.203125 C-15.99449219 234.03296875 -16.53976562 233.8628125 -17.1015625 233.6875 C-18.23271484 233.32398438 -18.23271484 233.32398438 -19.38671875 232.953125 C-20.21252441 232.69233154 -21.03833008 232.43153809 -21.88916016 232.1628418 C-24.44921875 231.203125 -24.44921875 231.203125 -26.67724609 229.87817383 C-29.01552722 228.49861427 -30.75940264 227.62574659 -33.44921875 227.203125 C-37.49440393 228.74645946 -40.67701512 231.24482016 -44.07421875 233.890625 C-55.41137177 242.40158773 -55.41137177 242.40158773 -61.44921875 242.203125 C-64.6175082 240.88944401 -66.93563015 238.51254124 -69.44921875 236.203125 C-70.24585938 235.47480469 -71.0425 234.74648438 -71.86328125 233.99609375 C-78.17477247 227.94839551 -83.45704154 221.36669636 -88.44921875 214.203125 C-88.9390625 213.51992188 -89.42890625 212.83671875 -89.93359375 212.1328125 C-91.77438786 209.32118862 -92.44976923 207.4252454 -92.44140625 204.05078125 C-91.0944317 198.82727759 -88.33332357 195.57009329 -84.94921875 191.453125 C-83.74791217 189.96105631 -82.54984335 188.46637338 -81.35546875 186.96875 C-80.55592773 185.99083496 -80.55592773 185.99083496 -79.74023438 184.99316406 C-78.25723964 183.12461805 -78.25723964 183.12461805 -77.44921875 180.203125 C-78.14040971 177.95777866 -78.14040971 177.95777866 -79.26171875 175.578125 C-81.35984412 170.89710883 -82.43532861 166.20736271 -83.44921875 161.203125 C-84.18035889 161.13319336 -84.91149902 161.06326172 -85.66479492 160.99121094 C-88.99080258 160.66296393 -92.31348715 160.30833543 -95.63671875 159.953125 C-96.78720703 159.84355469 -97.93769531 159.73398437 -99.12304688 159.62109375 C-100.23486328 159.49863281 -101.34667969 159.37617188 -102.4921875 159.25 C-103.5133667 159.14526367 -104.5345459 159.04052734 -105.58666992 158.93261719 C-109.17313266 158.01864272 -110.89862718 156.88888935 -113.44921875 154.203125 C-116.10913277 147.44868018 -115.78661159 140.52762068 -115.76489258 133.38769531 C-115.76172653 131.20847801 -115.78526046 129.03061318 -115.81054688 126.8515625 C-115.81281993 125.44791836 -115.81352334 124.04427061 -115.8125 122.640625 C-115.81548096 121.38121094 -115.81846191 120.12179687 -115.8215332 118.82421875 C-115.38695407 114.59754483 -114.39461745 111.96183107 -112.44921875 108.203125 C-110.3125 106.96875 -110.3125 106.96875 -107.76171875 106.453125 C-106.79492188 106.22625 -105.828125 105.999375 -104.83203125 105.765625 C-102.3046922 105.34537463 -99.92234461 105.07136489 -97.37890625 104.890625 C-93.02244009 104.4908847 -89.50028973 103.96021603 -85.44921875 102.203125 C-81.96402673 97.9289597 -80.86975596 92.41567476 -79.44921875 87.203125 C-78.45921875 85.718125 -78.45921875 85.718125 -77.44921875 84.203125 C-77.69406386 79.88685542 -79.32612795 77.82103583 -82.26171875 74.765625 C-90.26018632 66.07788195 -90.26018632 66.07788195 -90.78125 60.91015625 C-90.38692195 56.50759958 -89.21348625 54.57616713 -86.63671875 51.015625 C-86.23727051 50.46318115 -85.83782227 49.9107373 -85.42626953 49.34155273 C-80.89020983 43.21063467 -75.79110951 37.63431788 -70.44921875 32.203125 C-69.78664063 31.51605469 -69.1240625 30.82898438 -68.44140625 30.12109375 C-65.84401825 27.6343568 -63.95755122 26.287955 -60.3828125 25.69140625 C-54.771776 26.42134248 -50.95369234 29.10342534 -46.26171875 32.140625 C-44.50020091 33.25833936 -42.73597675 34.37180283 -40.96875 35.48046875 C-40.19635986 35.97796631 -39.42396973 36.47546387 -38.62817383 36.98803711 C-36.49869611 38.1755341 -34.8602928 38.87765638 -32.44921875 39.203125 C-29.48129146 38.04548027 -29.48129146 38.04548027 -26.44921875 36.328125 C-23.09255075 34.52391595 -20.1600277 33.03825609 -16.44921875 32.203125 C-16.44510986 31.40616211 -16.44100098 30.60919922 -16.43676758 29.78808594 C-16.4038653 26.17567877 -16.33322219 22.56496561 -16.26171875 18.953125 C-16.25301758 17.07173828 -16.25301758 17.07173828 -16.24414062 15.15234375 C-16.21513672 13.94707031 -16.18613281 12.74179687 -16.15625 11.5 C-16.14053955 10.38979492 -16.1248291 9.27958984 -16.10864258 8.13574219 C-15.44921875 5.203125 -15.44921875 5.203125 -13.0925293 2.87207031 C-8.73621568 0.12156141 -4.99498396 0.0301909 0 0 Z " fill="#35231A" transform="translate(439.44921875,253.796875)"/>
<path d="M0 0 C1.35794126 -0.00571464 2.71587772 -0.0126831 4.07380676 -0.02079773 C7.73279628 -0.0386181 11.39154455 -0.03758264 15.05056429 -0.03185534 C18.11473903 -0.02874903 21.17886838 -0.03487149 24.24303663 -0.04089409 C31.47342409 -0.05489948 38.70369328 -0.05340978 45.93408203 -0.04199219 C53.37669106 -0.03049876 60.81894025 -0.04461606 68.26150191 -0.07138866 C74.67114303 -0.09357652 81.08067144 -0.10017659 87.49034822 -0.09431225 C91.31015747 -0.09095077 95.12973579 -0.09330429 98.94951248 -0.11056328 C102.53992774 -0.12608128 106.12981071 -0.12202396 109.72020531 -0.10325813 C111.65565709 -0.09784368 113.59113308 -0.11204696 115.52653503 -0.12695312 C116.69264816 -0.11711899 117.85876129 -0.10728485 119.06021118 -0.09715271 C120.56721808 -0.09683878 120.56721808 -0.09683878 122.10466957 -0.09651852 C125.23193359 0.40405273 125.23193359 0.40405273 133.23193359 4.40405273 C133.23193359 10.67405273 133.23193359 16.94405273 133.23193359 23.40405273 C129.23102888 25.40450509 127.72722993 25.65420883 123.42060852 25.65560913 C121.63965538 25.6636834 121.63965538 25.6636834 119.82272339 25.67192078 C117.87379684 25.66573479 117.87379684 25.66573479 115.88549805 25.65942383 C114.50051162 25.66217453 113.11552677 25.66585491 111.73054504 25.6703949 C108.74910158 25.67850356 105.7677331 25.68067614 102.78627968 25.67844772 C98.06613175 25.67561199 93.34613319 25.68997763 88.62602234 25.70742798 C75.20407363 25.75442587 61.78213476 25.77838442 48.36010742 25.78491211 C40.94623401 25.78866997 33.53252941 25.80675944 26.11872834 25.84000647 C21.43285571 25.86016252 16.74742023 25.86261903 12.06152213 25.85172629 C9.13615398 25.84910739 6.21103691 25.86318079 3.28573418 25.88180733 C1.2967592 25.88961233 -0.69226305 25.87773621 -2.68121338 25.86512756 C-9.95403457 25.93185349 -15.43787613 26.74031341 -21.76806641 30.40405273 C-22.77869141 30.98155273 -23.78931641 31.55905273 -24.83056641 32.15405273 C-32.32689469 37.89592121 -37.05515913 43.69300104 -40.76806641 52.40405273 C-41.42806641 52.40405273 -42.08806641 52.40405273 -42.76806641 52.40405273 C-44.08330142 58.41354587 -43.91621759 64.40531872 -43.91523743 70.52337646 C-43.91891411 71.75468017 -43.9225908 72.98598387 -43.92637891 74.25459981 C-43.93547975 77.66502633 -43.94010969 81.07540483 -43.94276822 84.48583889 C-43.94668212 88.16694823 -43.95625947 91.84804379 -43.96498108 95.52914429 C-43.98471171 104.41367484 -43.99480599 113.29820647 -44.00370887 122.18275344 C-44.00809612 126.36946872 -44.01346168 130.55618275 -44.01869774 134.74289703 C-44.0357043 148.6640789 -44.05019887 162.58526 -44.05744648 176.50645065 C-44.05935627 180.11619823 -44.06127662 183.7259458 -44.06323242 187.33569336 C-44.06371616 188.23284291 -44.0641999 189.12999245 -44.0646983 190.05432835 C-44.07300027 204.59044864 -44.09834255 219.12648668 -44.1308131 233.66257104 C-44.1638961 248.59479479 -44.18189624 263.52697675 -44.18509072 278.45923734 C-44.18725434 286.83986851 -44.19598159 295.22037963 -44.2215519 303.60097504 C-44.2432756 310.73715503 -44.25130101 317.87318578 -44.24158511 325.00939509 C-44.23704563 328.64817116 -44.23890588 332.28663939 -44.25834656 335.92537308 C-44.27927067 339.8759739 -44.2689764 343.82615258 -44.2558136 347.77679443 C-44.26678284 348.91863969 -44.27775209 350.06048494 -44.28905374 351.23693156 C-44.18932724 363.6514231 -38.9689064 374.93688194 -30.64306641 384.15405273 C-21.74840461 392.49649606 -9.97857698 395.72399628 1.91168213 395.66233826 C3.16726885 395.66785181 3.16726885 395.66785181 4.44822097 395.67347676 C7.2332848 395.68340089 10.01814679 395.67931722 12.80322266 395.67529297 C14.8077414 395.67968303 16.81225833 395.68498621 18.81677246 395.69113159 C23.12302007 395.70260743 27.42921862 395.70808921 31.73548126 395.70901299 C38.54226647 395.71095643 45.34895029 395.72902268 52.15570068 395.74977112 C69.05608335 395.79891297 85.95649338 395.82987977 102.85693359 395.85107422 C116.00407752 395.86758317 129.15113411 395.89034153 142.29821944 395.93409497 C149.06775141 395.95590631 155.83711759 395.96392605 162.6066823 395.96170223 C166.81115601 395.96336542 171.01552075 395.97739116 175.21995544 395.99491501 C177.17269348 396.00052777 179.12545399 396.00098762 181.07819366 395.9959774 C183.73908648 395.98986459 186.39928719 396.00201538 189.06011963 396.01878357 C189.83676476 396.01257175 190.61340989 396.00635994 191.41358972 395.99995989 C194.63873805 396.03712251 196.87564249 396.20228839 199.71032333 397.80754185 C201.60951044 399.80021564 201.74593756 400.76871465 201.76318359 403.49389648 C201.76833984 404.27829102 201.77349609 405.06268555 201.77880859 405.87084961 C201.76333984 406.68618164 201.74787109 407.50151367 201.73193359 408.34155273 C201.74740234 409.15301758 201.76287109 409.96448242 201.77880859 410.80053711 C201.77365234 411.5862207 201.76849609 412.3719043 201.76318359 413.18139648 C201.75867188 413.89545654 201.75416016 414.6095166 201.74951172 415.34521484 C200.97627398 418.42102328 199.7505645 419.47583247 197.23193359 421.40405273 C194.34124167 421.79685982 191.83178589 421.94467758 188.94190979 421.9119873 C187.67647344 421.92134725 187.67647344 421.92134725 186.38547271 421.93089628 C183.5534926 421.94687344 180.72236763 421.93420325 177.89038086 421.92163086 C175.86164344 421.92705025 173.83290996 421.93417187 171.80418396 421.94287109 C166.28709724 421.96113954 160.77030906 421.95401956 155.25321698 421.94135475 C149.47503173 421.93123292 143.69687217 421.94061932 137.91868591 421.94689941 C128.20477717 421.95418344 118.49098991 421.94457377 108.77709961 421.92553711 C97.56752847 421.90382208 86.35824896 421.91077765 75.14868504 421.93284273 C65.51618388 421.9510411 55.88377017 421.95353173 46.25125736 421.94308805 C40.50242814 421.93687039 34.75373553 421.93596874 29.00491524 421.94923401 C23.59002617 421.96085444 18.17550935 421.9526541 12.76066017 421.92965698 C10.78106553 421.92440047 8.80143917 421.92583077 6.82185745 421.93470764 C-4.11949031 421.97921713 -13.49690635 421.56323233 -23.76806641 417.40405273 C-24.47145865 417.12384529 -25.1748509 416.84363785 -25.89955807 416.55493927 C-44.51583594 408.58566871 -57.25210169 394.95825675 -64.76806641 376.40405273 C-68.88246155 365.14419371 -69.9185516 354.39262645 -69.90177917 342.51997375 C-69.90404473 341.33808053 -69.90631029 340.1561873 -69.9086445 338.93847913 C-69.91386251 335.67518486 -69.91463232 332.41192544 -69.91345012 329.14862835 C-69.91324538 325.62223935 -69.91877192 322.09585845 -69.92350769 318.56947327 C-69.93179921 311.66667507 -69.93456186 304.76388541 -69.93512007 297.86108265 C-69.93559599 292.24687173 -69.93765454 286.63266363 -69.94082069 281.0184536 C-69.94962358 265.08368774 -69.9542407 249.14892861 -69.95349022 233.2141603 C-69.95345026 232.35587021 -69.95341031 231.49758013 -69.95336914 230.61328125 C-69.95330782 229.3242649 -69.95330782 229.3242649 -69.95324526 228.00920781 C-69.95283901 214.08958913 -69.96240421 200.16999754 -69.97650751 186.25038669 C-69.990891 171.9407217 -69.99777659 157.63106989 -69.99691373 143.32139748 C-69.99658242 135.29453302 -69.99930059 127.26769694 -70.01009178 119.240839 C-70.01922283 112.40528862 -70.02135076 105.56977947 -70.01458236 98.73422561 C-70.01133011 95.25109731 -70.01121324 91.76804802 -70.01993561 88.28492737 C-70.02768541 84.4975651 -70.0229908 80.71040797 -70.01530457 76.92304993 C-70.02044813 75.83799882 -70.02559169 74.75294771 -70.03089112 73.63501626 C-69.9303117 51.0832573 -63.57622836 34.28064829 -47.76806641 18.40405273 C-47.13255859 17.73374023 -46.49705078 17.06342773 -45.84228516 16.37280273 C-41.70631703 12.33771188 -37.00223571 9.75284051 -31.89306641 7.15405273 C-31.2450708 6.824375 -30.5970752 6.49469727 -29.92944336 6.1550293 C-19.97588474 1.32471673 -11.03713719 -0.03970912 0 0 Z " fill="#36241B" transform="translate(344.76806640625,181.595947265625)"/>
<path d="M0 0 C1.15048828 0.63615234 1.15048828 0.63615234 2.32421875 1.28515625 C11.96035845 7.15845702 18.36953434 15.32674258 22 26 C24.53222631 38.14500898 23.68732433 49.69241101 16.875 60.1875 C9.57436025 69.91659523 -0.01776046 75.12777507 -12 77 C-14.4146198 77.11745323 -16.83255726 77.17506459 -19.25 77.1875 C-20.49265625 77.20167969 -21.7353125 77.21585937 -23.015625 77.23046875 C-26.26224097 77.0426743 -28.29634895 76.63363593 -31.30749512 75.70741272 C-35.13145828 74.84485943 -35.81467996 74.91307971 -39.58117676 76.67967224 C-40.76620134 77.57251551 -41.92640378 78.49893191 -43.06445312 79.45092773 C-43.70775794 79.95643661 -44.35106276 80.4619455 -45.01386166 80.98277283 C-47.13700008 82.67906817 -49.21204805 84.42198239 -51.28125 86.18359375 C-52.00091509 86.79169451 -52.72058018 87.39979527 -53.4620533 88.02632332 C-58.9370282 92.69349706 -64.24178199 97.52844299 -69.5 102.4375 C-70.27186016 103.15117737 -71.04372032 103.86485474 -71.83897018 104.60015869 C-91.64987035 123.05755492 -105.01245796 139.63040274 -106.40291977 167.38451958 C-106.7623169 178.13281721 -106.09181873 188.8168873 -105.20703125 199.52514648 C-105.13152259 200.44368188 -105.05601393 201.36221727 -104.97821712 202.30858707 C-104.60172816 206.65797395 -104.14557637 210.9689073 -103.5125885 215.28871155 C-102.04596713 226.30888953 -102.04596713 226.30888953 -104.79696655 231.18528748 C-107.05977591 233.73316892 -109.35285482 235.86192315 -112 238 C-113.26892589 239.21119955 -114.53112667 240.42955928 -115.78125 241.66015625 C-117.01759645 242.79779863 -118.25724714 243.93185945 -119.5 245.0625 C-128.24478194 253.1324129 -136.63798216 261.53642551 -145 270 C-138.46205354 277.66279897 -131.86345048 285.22507292 -124.6796875 292.29296875 C-121.63109681 295.39118766 -118.8357942 298.70845316 -116 302 C-115.43917221 302.51518692 -114.87834442 303.03037384 -114.30052185 303.56117249 C-110.47542576 307.32197029 -108.54209744 310.06330772 -108.20532227 315.49804688 C-108.2064183 317.57194487 -108.24525094 319.64607274 -108.31640625 321.71875 C-108.32631088 322.81723267 -108.33621552 323.91571533 -108.34642029 325.04748535 C-108.38539733 328.53305345 -108.47319435 332.01539466 -108.5625 335.5 C-108.59763513 337.87235014 -108.62957026 340.24474997 -108.65820312 342.6171875 C-108.73510408 348.41254689 -108.85202573 354.20604288 -109 360 C-108.06140137 360.14244141 -107.12280273 360.28488281 -106.15576172 360.43164062 C-97.13325486 362.05661324 -90.18772807 368.78329384 -85 376 C-78.35489202 387.40578235 -76.8008634 399.73009685 -79.87109375 412.671875 C-85.0343222 425.74076799 -93.50688172 433.35900809 -106.1875 438.875 C-117.39786079 442.91229777 -128.2488693 441.9491749 -139 437 C-144.34174499 434.03687398 -148.9493089 430.59808179 -153 426 C-153.73863281 425.17435547 -153.73863281 425.17435547 -154.4921875 424.33203125 C-161.48513409 415.89526733 -163.74119194 406.28399656 -163.3828125 395.4609375 C-162.36633014 386.27110716 -159.15428774 378.85127936 -153 372 C-152.47535156 371.38382813 -151.95070313 370.76765625 -151.41015625 370.1328125 C-147.02445622 365.32402141 -142.03690637 362.39489704 -136 360 C-135.34 360 -134.68 360 -134 360 C-131.68948443 344.32743927 -128.84948924 325.03141545 -138.59814453 311.42871094 C-147.15392993 300.89559112 -157.57882944 291.96482334 -168.05175781 283.39526367 C-172.39515466 279.77327538 -176.36427136 276.36127782 -177.875 270.75 C-175.85336265 262.08583991 -168.00404615 256.88430979 -161.02285767 252.08917236 C-146.8911445 242.21950385 -130.49690824 230.02416014 -126.8684082 212.16888428 C-123.31530149 190.13019148 -124.89640015 166.78046636 -126.58465576 144.61711121 C-126.63940819 143.81004636 -126.69416061 143.00298151 -126.7505722 142.17146015 C-126.85380685 140.67828035 -126.97437105 139.18614363 -127.11649323 137.69616222 C-127.45917835 132.51214765 -126.25542252 129.97049581 -123 126 C-121.17460892 124.0103427 -119.34677139 122.10241169 -117.42456055 120.21337891 C-116.87926697 119.66939957 -116.33397339 119.12542023 -115.77215576 118.56495667 C-113.98157935 116.78083176 -112.18412728 115.00380181 -110.38671875 113.2265625 C-109.13073926 111.97686299 -107.87527991 110.72664054 -106.62031555 109.47592163 C-103.32122074 106.19009523 -100.01660478 102.9098837 -96.71032715 99.63128662 C-91.42889969 94.39304506 -86.1541404 89.14811239 -80.882761 83.8997612 C-79.05126813 82.07839324 -77.21634622 80.26053504 -75.38102722 78.44302368 C-70.19922624 73.29837419 -65.07584926 68.16896511 -60.360672 62.58456421 C-58.36259411 60.25771196 -56.20090805 58.13421387 -54 56 C-54.20496094 55.39671875 -54.40992188 54.7934375 -54.62109375 54.171875 C-54.89050781 53.37265625 -55.15992188 52.5734375 -55.4375 51.75 C-55.70433594 50.96109375 -55.97117187 50.1721875 -56.24609375 49.359375 C-59.55459509 39.00530863 -59.18748691 28.48439141 -54.48046875 18.6484375 C-48.36615007 7.7104215 -40.18874335 0.31467851 -28.2109375 -3.58203125 C-18.60733802 -5.39755271 -8.56801645 -4.81669576 0 0 Z " fill="#35241B" transform="translate(725,158)"/>
<path d="M0 0 C1.06157318 -0.0076664 1.06157318 -0.0076664 2.14459229 -0.01548767 C4.49662643 -0.02944029 6.84836868 -0.02842008 9.20043945 -0.02612305 C10.84316618 -0.03001221 12.4858919 -0.03434733 14.12861633 -0.03910828 C17.58463786 -0.04658646 21.04055734 -0.04627157 24.49658203 -0.04101562 C28.88506053 -0.0352755 33.27310942 -0.05201009 37.66151714 -0.0753603 C41.06346507 -0.09025081 44.46531383 -0.09094783 47.86728859 -0.08785057 C49.48210297 -0.08835803 51.09692377 -0.09348533 52.71170616 -0.10366249 C71.49254183 -0.20732775 89.60935327 2.24739471 104.1262207 15.2746582 C104.8377832 15.90500977 105.5493457 16.53536133 106.2824707 17.18481445 C111.11608352 21.72083543 114.27977404 26.32068801 117.1262207 32.2746582 C117.48095459 33.01651367 117.83568848 33.75836914 118.20117188 34.52270508 C121.01406972 40.92552965 121.79553646 46.43951976 121.6887207 53.3996582 C121.67993896 54.40013184 121.67115723 55.40060547 121.66210938 56.43139648 C121.24187875 71.89935451 115.91729566 85.75960626 105.38012695 97.1965332 C101.69575658 100.593561 97.55648077 102.97664915 93.1262207 105.2746582 C92.43012695 105.65750977 91.7340332 106.04036133 91.0168457 106.43481445 C89.1262207 107.2746582 89.1262207 107.2746582 86.1262207 107.2746582 C86.7346582 108.24918945 87.3430957 109.2237207 87.9699707 110.2277832 C94.29198903 120.43014487 100.32059746 130.78240662 106.22335815 141.23110962 C110.71483461 149.18002578 115.27908599 157.05259568 120.47216797 164.57006836 C123.15395073 168.61802041 123.15602675 169.12562795 122.1262207 174.2746582 C108.9262207 174.2746582 95.7262207 174.2746582 82.1262207 174.2746582 C80.6824707 171.3665332 79.2387207 168.4584082 77.7512207 165.4621582 C70.63636837 151.20557418 63.17386905 137.14734089 55.5637207 123.1496582 C55.03858887 122.18237793 54.51345703 121.21509766 53.97241211 120.21850586 C53.48562988 119.32695801 52.99884766 118.43541016 52.49731445 117.5168457 C51.84653931 116.32357666 51.84653931 116.32357666 51.18261719 115.10620117 C50.25763684 113.31966347 50.25763684 113.31966347 49.1262207 112.2746582 C42.1962207 112.2746582 35.2662207 112.2746582 28.1262207 112.2746582 C28.1262207 132.7346582 28.1262207 153.1946582 28.1262207 174.2746582 C22.5368457 174.2952832 16.9474707 174.3159082 11.1887207 174.3371582 C9.42278564 174.34626221 7.65685059 174.35536621 5.83740234 174.36474609 C4.44539466 174.36766534 3.05338612 174.37021388 1.66137695 174.37231445 C0.93237183 174.37743042 0.2033667 174.38254639 -0.54772949 174.38781738 C-2.32348006 174.38812832 -4.09912138 174.33694335 -5.8737793 174.2746582 C-7.48659138 172.66184612 -7.03106473 170.89973307 -7.06323242 168.66772461 C-7.07994995 167.67962799 -7.09666748 166.69153137 -7.1138916 165.67349243 C-7.12746704 164.58539276 -7.14104248 163.49729309 -7.1550293 162.3762207 C-7.17343872 161.23986176 -7.19184814 160.10350281 -7.21081543 158.93270874 C-7.26975109 155.25508004 -7.32217715 151.57739654 -7.3737793 147.8996582 C-7.44367204 143.16262868 -7.51694097 138.42566266 -7.5925293 133.6887207 C-7.61167892 132.45703659 -7.63082855 131.22535248 -7.65055847 129.9563446 C-7.76108484 123.33895806 -7.90885977 116.72465275 -8.12109375 110.10986328 C-8.14326745 109.4175999 -8.16544115 108.72533651 -8.18828678 108.01209545 C-8.21072169 107.3122368 -8.2331566 106.61237814 -8.25627136 105.89131165 C-8.89335846 85.97235753 -9.06150076 66.06574586 -9.05908203 46.13720703 C-9.05897774 41.52766486 -9.0729631 36.91826771 -9.08985424 32.30876064 C-9.10090856 28.71526885 -9.10300378 25.12181403 -9.10247231 21.52830696 C-9.10364946 19.82460055 -9.10805633 18.1208931 -9.11580467 16.4172039 C-9.12552996 14.0719686 -9.1227638 11.72707595 -9.11669922 9.38183594 C-9.12512848 8.33898689 -9.12512848 8.33898689 -9.13372803 7.27507019 C-9.08655496 0.14802951 -6.60829765 0.02373698 0 0 Z " fill="#36241B" transform="translate(720.873779296875,673.725341796875)"/>
<path d="M0 0 C0.99966797 -0.01611328 1.99933594 -0.03222656 3.02929688 -0.04882812 C4.51719727 -0.04979492 4.51719727 -0.04979492 6.03515625 -0.05078125 C6.92726807 -0.05376221 7.81937988 -0.05674316 8.73852539 -0.05981445 C13.24907064 0.46514788 17.58801897 2.00765569 21.9375 3.3125 C22.2675 26.7425 22.5975 50.1725 22.9375 74.3125 C29.3725 65.4025 29.3725 65.4025 35.9375 56.3125 C38.24380074 53.16157234 40.55209384 50.01350103 42.875 46.875 C44.04956109 45.28521677 45.22403772 43.69537114 46.3984375 42.10546875 C46.98206055 41.31575684 47.56568359 40.52604492 48.16699219 39.71240234 C49.94117964 37.30751229 51.70970649 34.89856164 53.4765625 32.48828125 C59.32570865 24.51349542 65.20994928 16.56665643 71.1875 8.6875 C71.73672119 7.95837402 72.28594238 7.22924805 72.85180664 6.47802734 C73.3596167 5.8123877 73.86742676 5.14674805 74.390625 4.4609375 C74.83567383 3.87489746 75.28072266 3.28885742 75.73925781 2.68505859 C76.9375 1.3125 76.9375 1.3125 78.9375 0.3125 C90.91206588 -0.26829207 102.98261765 0.66302221 114.9375 1.3125 C115.54614258 3.15258789 115.54614258 3.15258789 115.9375 5.3125 C114.19921875 7.87109375 114.19921875 7.87109375 111.625 10.75 C110.68524531 11.82485579 109.74781125 12.90174418 108.8125 13.98046875 C108.33039063 14.5326709 107.84828125 15.08487305 107.3515625 15.65380859 C105.17132486 18.21122132 103.15322479 20.88377549 101.125 23.5625 C95.72754967 30.66094537 90.09707442 37.56281904 84.44775391 44.46142578 C83.0753205 46.14357743 81.7129068 47.8330857 80.35546875 49.52734375 C77.15712897 53.49938754 74.00175924 57.34898232 70.3125 60.875 C66.17174243 64.85090305 63.09434892 69.54364312 59.9375 74.3125 C61.46609527 77.55557526 63.29516714 80.47805575 65.28125 83.4609375 C65.94543945 84.45915527 66.60962891 85.45737305 67.29394531 86.48583984 C68.00131836 87.5423877 68.70869141 88.59893555 69.4375 89.6875 C70.16291992 90.77369629 70.88833984 91.85989258 71.63574219 92.97900391 C75.40784846 98.60691926 79.21119263 104.20181541 83.1875 109.6875 C87.36477012 115.45478279 91.32763096 121.34314314 95.26000977 127.27954102 C99.00338485 132.92598273 102.7974385 138.53530529 106.625 144.125 C107.16576172 144.91753174 107.70652344 145.71006348 108.26367188 146.52661133 C110.72254695 150.12170531 113.20015278 153.6970123 115.7578125 157.22265625 C116.18231689 157.81393311 116.60682129 158.40520996 117.04418945 159.0144043 C118.16223278 160.56572054 119.2934634 162.10750944 120.42578125 163.6484375 C122.06023178 166.52878701 122.36856933 168.05936349 121.9375 171.3125 C117.60300669 175.64699331 101.28277456 174.10378935 95.3192749 174.19325256 C83.55680578 174.11101612 83.55680578 174.11101612 79.4921875 170.29296875 C76.96960944 166.80093101 75.46168744 162.91323919 73.99707031 158.8828125 C72.08346927 154.24078675 69.13352417 150.2547957 66.3125 146.125 C65.20385982 144.43000089 64.09958629 142.73213654 63 141.03125 C62.21496094 139.82275391 62.21496094 139.82275391 61.4140625 138.58984375 C58.66251707 134.34605808 55.92926319 130.09076647 53.20703125 125.828125 C51.50416617 123.17291402 49.76364947 120.54495341 48.01171875 117.921875 C47.51172363 117.16672607 47.01172852 116.41157715 46.49658203 115.63354492 C45.52708833 114.17044766 44.55061626 112.71194094 43.56591797 111.2590332 C40.75927568 107.00417982 39.0730509 103.28945736 37.9375 98.3125 C37.22078125 99.03397217 36.5040625 99.75544434 35.765625 100.4987793 C33.99259257 102.26278127 32.17455441 103.98381594 30.296875 105.63598633 C21.28930131 114.94274496 21.73891266 124.80408125 21.80078125 137.26367188 C21.84433174 139.84248286 21.88992834 142.42126006 21.9375 145 C21.96584659 148.88660509 21.98031432 152.77292254 21.98681641 156.65962219 C21.99547689 159.06694681 22.01941796 161.47427424 22.06005859 163.88127136 C22.07246582 164.96032242 22.08487305 166.03937347 22.09765625 167.15112305 C22.11449463 168.10230515 22.13133301 169.05348724 22.14868164 170.03349304 C21.9375 172.3125 21.9375 172.3125 19.9375 174.3125 C16.8046875 174.57128906 16.8046875 174.57128906 12.8125 174.578125 C12.1097998 174.58003845 11.40709961 174.5819519 10.68310547 174.58392334 C9.19693646 174.58528475 7.71075555 174.58159132 6.22460938 174.57324219 C3.94634354 174.56254154 1.66886623 174.57313839 -0.609375 174.5859375 C-2.05208508 174.5846159 -3.49479466 174.58205349 -4.9375 174.578125 C-6.25492187 174.57586914 -7.57234375 174.57361328 -8.9296875 174.57128906 C-12.0625 174.3125 -12.0625 174.3125 -14.0625 172.3125 C-14.31697559 169.41703796 -14.31697559 169.41703796 -14.32319641 165.6315918 C-14.32702196 164.93709018 -14.33084751 164.24258856 -14.33478898 163.52704144 C-14.34514806 161.18852463 -14.34112143 158.85025201 -14.3371582 156.51171875 C-14.34150304 154.83981091 -14.34668542 153.16790506 -14.35264587 151.4960022 C-14.3660708 146.94652234 -14.36661074 142.39712537 -14.36408257 137.84762955 C-14.36301535 134.05509994 -14.36788976 130.26258729 -14.372688 126.4700613 C-14.38379499 117.52657754 -14.38421371 108.58313577 -14.37817383 99.63964844 C-14.37213003 90.39989353 -14.3844526 81.16029074 -14.4057439 71.92056179 C-14.42333015 63.99867751 -14.42936603 56.07684179 -14.42610615 48.1549387 C-14.42428859 43.41862925 -14.42697643 38.68242833 -14.44082069 33.94613647 C-14.45334638 29.49413498 -14.45150519 25.0423716 -14.43840981 20.59037399 C-14.43603304 18.95285336 -14.43881776 17.31531624 -14.44703293 15.67781448 C-14.45740987 13.44939812 -14.44947413 11.22179428 -14.4367218 8.9934082 C-14.43688954 7.74421097 -14.43705729 6.49501373 -14.43723011 5.20796204 C-14.31356917 4.25245956 -14.18990824 3.29695709 -14.0625 2.3125 C-9.57403191 -0.67981206 -5.28115204 -0.01657612 0 0 Z " fill="#36241B" transform="translate(485.0625,674.6875)"/>
<path d="M0 0 C14.06417657 -0.02333039 28.12835015 -0.04091345 42.19254208 -0.05181217 C48.72236233 -0.0570417 55.25216963 -0.06414061 61.78198242 -0.07543945 C68.07781159 -0.08626585 74.37362826 -0.09227631 80.66946602 -0.09487724 C83.07734944 -0.09673194 85.48523214 -0.1003534 87.89311028 -0.10573006 C91.25289286 -0.1129372 94.6126231 -0.11399108 97.97241211 -0.11352539 C98.97869659 -0.11712067 99.98498108 -0.12071594 101.02175903 -0.12442017 C101.93186234 -0.1230455 102.84196564 -0.12167084 103.77964783 -0.12025452 C104.97290884 -0.12163721 104.97290884 -0.12163721 106.19027615 -0.12304783 C108 0 108 0 109 1 C109.28230229 5.61863653 109.23184011 10.2487671 109.25 14.875 C109.270625 16.18082031 109.29125 17.48664062 109.3125 18.83203125 C109.32023437 20.70568359 109.32023437 20.70568359 109.328125 22.6171875 C109.3374707 23.76815918 109.34681641 24.91913086 109.35644531 26.10498047 C109 29 109 29 107.91783142 30.66539001 C104.97689573 32.71197352 102.50495733 32.31592862 98.95825195 32.2487793 C98.24580322 32.23946381 97.53335449 32.23014832 96.79931641 32.22055054 C94.44515391 32.18618355 92.09201854 32.13029119 89.73828125 32.07421875 C88.10591313 32.04618551 86.47352144 32.01949511 84.84111023 31.99409485 C80.54507064 31.92363471 76.24959383 31.83491761 71.95397949 31.74243164 C66.79969093 31.63524416 61.64498804 31.55066986 56.49034882 31.46231842 C48.65977741 31.32556178 40.83028616 31.16003786 33 31 C33.495 50.8 33.495 50.8 34 71 C40.78691406 70.96519531 40.78691406 70.96519531 47.7109375 70.9296875 C50.57292238 70.91947157 53.43488487 70.90984388 56.296875 70.90234375 C60.84216973 70.89037603 65.38738409 70.87620001 69.93261719 70.84912109 C73.59601346 70.82743179 77.25932357 70.81543969 80.92277908 70.81024551 C82.32226544 70.80654269 83.72174695 70.79931223 85.12119675 70.78853989 C87.07733331 70.77407775 89.03355609 70.77318353 90.98974609 70.77294922 C92.66186661 70.76628738 92.66186661 70.76628738 94.36776733 70.75949097 C97 71 97 71 99 73 C99.39756452 77.13608453 99.32906622 81.27752569 99.31567383 85.43115234 C99.31251166 87.49239856 99.33597703 89.5522124 99.36132812 91.61328125 C99.36197266 92.90621094 99.36261719 94.19914063 99.36328125 95.53125 C99.36626221 96.72298828 99.36924316 97.91472656 99.37231445 99.14257812 C99.24945068 100.08552734 99.12658691 101.02847656 99 102 C94.96254711 104.69163526 91.43728108 104.25323451 86.75 104.1875 C85.78376709 104.18105469 84.81753418 104.17460938 83.82202148 104.16796875 C67.21211136 104.00659733 50.60331319 103.47405617 34 103 C34.03283081 103.57453918 34.06566162 104.14907837 34.0994873 104.74102783 C34.19012681 106.32721923 34.28057285 107.9134217 34.37084961 109.49963379 C34.46388305 111.12068432 34.56004938 112.74155613 34.65820312 114.36230469 C35.16640812 123.9012317 35.04217938 133.45105609 35 143 C35.64685257 142.98747192 36.29370514 142.97494385 36.9601593 142.96203613 C43.79167707 142.83008756 50.62324056 142.70072386 57.45483398 142.57275391 C59.99260658 142.52489262 62.53036749 142.47640743 65.06811523 142.42724609 C72.28434544 142.28767819 79.50056902 142.16195635 86.71734619 142.05419922 C89.79945433 142.00331117 92.88071471 141.93469233 95.96240234 141.86328125 C97.69757717 141.83506431 99.43276543 141.80765648 101.16796875 141.78125 C101.94707108 141.75800659 102.7261734 141.73476318 103.52888489 141.71081543 C105.65698242 141.68945312 105.65698242 141.68945312 109 142 C112.18133234 146.77199852 111.32816905 151.89047832 111.3125 157.5 C111.32861328 158.65371094 111.34472656 159.80742188 111.36132812 160.99609375 C111.36197266 162.10082031 111.36261719 163.20554687 111.36328125 164.34375 C111.36626221 165.35630859 111.36924316 166.36886719 111.37231445 167.41210938 C110.9331779 170.46446834 110.39469846 171.14021354 108 173 C105.96259117 173.3719368 105.96259117 173.3719368 103.58383179 173.36749268 C102.68083847 173.37306183 101.77784515 173.37863098 100.8474884 173.3843689 C99.85931625 173.37515411 98.8711441 173.36593933 97.85302734 173.35644531 C96.81056351 173.35848969 95.76809967 173.36053406 94.69404602 173.36264038 C91.24116599 173.36565366 87.78876093 173.34715656 84.3359375 173.328125 C81.94365558 173.32506864 79.55137189 173.32319158 77.15908813 173.32244873 C72.14375 173.31784244 67.12857213 173.30340222 62.11328125 173.28125 C55.66879675 173.25293692 49.22443847 173.24203588 42.77989769 173.2375679 C37.84043096 173.23342122 32.90099002 173.22361055 27.96153641 173.21169281 C25.58435906 173.20597666 23.20717921 173.20122244 20.82999802 173.19742584 C17.51601499 173.1905887 14.20213426 173.17696929 10.88818359 173.16113281 C9.89596298 173.16001495 8.90374237 173.15889709 7.88145447 173.15774536 C6.53542397 173.14918015 6.53542397 173.14918015 5.16220093 173.14044189 C4.37796438 173.13746723 3.59372784 173.13449257 2.78572655 173.13142776 C1 173 1 173 0 172 C-0.12474229 169.74150168 -0.17813105 167.47906232 -0.20532227 165.21728516 C-0.2152162 164.50026082 -0.22511013 163.78323648 -0.23530388 163.04448414 C-0.26726828 160.62604478 -0.29192041 158.20758837 -0.31640625 155.7890625 C-0.33716847 154.06526813 -0.35825844 152.34147767 -0.37965393 150.61769104 C-0.43610238 145.93066213 -0.485381 141.24358348 -0.53263092 136.5564537 C-0.56239228 133.63557229 -0.59380809 130.71471295 -0.62567139 127.79385376 C-0.93882813 98.84336971 -1.10586431 69.89331881 -1.12293625 40.94115448 C-1.12500389 38.18230403 -1.12876427 35.42345996 -1.13284302 32.66461182 C-1.13865192 28.34125057 -1.13888552 24.01792543 -1.13438225 19.69456291 C-1.13334505 18.10773682 -1.13390186 16.52090879 -1.13614082 14.93408394 C-1.13866986 12.77787728 -1.13493668 10.62177501 -1.12939453 8.46557617 C-1.12859894 7.25794113 -1.12780334 6.05030609 -1.12698364 4.80607605 C-1 2 -1 2 0 0 Z " fill="#35241B" transform="translate(325,675)"/>
<path d="M0 0 C9.59999347 6.75199541 15.86701424 17.10846389 18.53125 28.4609375 C20.17156827 42.160852 18.30333371 53.98778882 10.234375 65.3984375 C7.36394338 68.87455652 4.02705732 71.63902075 0.53125 74.4609375 C-0.00757813 74.95851563 -0.54640625 75.45609375 -1.1015625 75.96875 C-4.51344468 79.09482006 -6.95060472 79.87270252 -11.46875 80.4609375 C-11.45875725 82.34228645 -11.45875725 82.34228645 -11.44856262 84.26164246 C-11.387768 96.07712221 -11.34278521 107.89257026 -11.31331348 119.70817089 C-11.29765247 125.78280845 -11.27640595 131.85731983 -11.24243164 137.93188477 C-11.20985418 143.79332534 -11.19190027 149.65464448 -11.18411827 155.51616859 C-11.1785719 157.75329818 -11.16774132 159.99042107 -11.15155983 162.22749901 C-11.12980737 165.35908793 -11.12678221 168.49017395 -11.12817383 171.62182617 C-11.117388 172.54827438 -11.10660217 173.4747226 -11.0954895 174.429245 C-11.11884142 179.28028483 -11.31226616 182.52563967 -14.46875 186.4609375 C-16.16758374 188.119194 -17.92284602 189.72083336 -19.71875 191.2734375 C-22.95946813 194.07931351 -25.88498158 196.87119534 -28.67578125 200.125 C-33.1630848 205.34586412 -38.03021139 210.16819223 -42.90625 215.0234375 C-43.80923828 215.93029297 -44.71222656 216.83714844 -45.64257812 217.77148438 C-50.26259178 222.38480721 -54.87716551 226.80325912 -60.03515625 230.81445312 C-62.41380284 233.54633197 -62.01303292 236.48057683 -62.08203125 239.95703125 C-62.80177137 244.61716675 -66.00710247 247.48317619 -69.46875 250.4609375 C-73.84339669 253.29854616 -79.41533988 253.22565011 -84.46875 252.4609375 C-89.8168614 250.14043479 -92.2761297 246.82996376 -94.46875 241.4609375 C-94.8671875 237.98828125 -94.8671875 237.98828125 -94.84375 234.3984375 C-94.85148437 233.21121094 -94.85921875 232.02398437 -94.8671875 230.80078125 C-94.43654646 227.19099606 -93.65218786 225.33630989 -91.46875 222.4609375 C-88.46875 220.4609375 -88.46875 220.4609375 -85.1875 219.71875 C-80.53822766 218.146202 -78.25788526 215.8591255 -74.96875 212.3359375 C-74.39761475 211.74482178 -73.82647949 211.15370605 -73.23803711 210.54467773 C-69.8611969 207.02518807 -66.62522501 203.40504709 -63.47265625 199.68359375 C-60.01010506 195.84306427 -56.28773867 192.25652928 -52.60864258 188.62475586 C-48.76584277 184.81406137 -45.11712492 180.92465712 -41.703125 176.71875 C-41.29578125 176.30367187 -40.8884375 175.88859375 -40.46875 175.4609375 C-39.80875 175.4609375 -39.14875 175.4609375 -38.46875 175.4609375 C-38.46875 143.7809375 -38.46875 112.1009375 -38.46875 79.4609375 C-40.77875 78.8009375 -43.08875 78.1409375 -45.46875 77.4609375 C-57.18632828 70.87598858 -65.60887527 61.02762414 -69.65625 48.2109375 C-72.41785558 35.46506558 -70.63399226 24.04369532 -63.84375 12.8359375 C-49.01968637 -7.9475487 -21.67209482 -13.51076797 0 0 Z " fill="#38261D" transform="translate(569.46875,149.5390625)"/>
<path d="M0 0 C7.62713066 6.72640285 13.20575542 17.87933781 13.8515625 27.96875 C14.17401701 40.55464328 12.42585848 50.66190838 3.61328125 60.24609375 C-1.98901041 65.91812348 -7.82649979 69.72602076 -15.38671875 72.24609375 C-15.38818531 73.12901628 -15.38965187 74.0119388 -15.39116287 74.92161655 C-15.42829994 96.45759207 -15.48740584 117.99341108 -15.57062149 139.52925968 C-15.61034138 149.94406945 -15.64276959 160.35880442 -15.65771484 170.77368164 C-15.67076801 179.85688448 -15.69782572 188.93992227 -15.74133182 198.02303213 C-15.76386449 202.82742067 -15.77963438 207.63160626 -15.7786026 212.43605232 C-15.77785111 216.9694317 -15.79599584 221.50236385 -15.82788658 226.03562737 C-15.83632053 227.68862743 -15.83818042 229.34167805 -15.83252144 230.99468994 C-15.77484371 250.45272461 -20.2907373 268.68759753 -34.13598633 283.11865234 C-43.9348021 292.92908005 -56.9592459 302.89519916 -71.44921875 303.62109375 C-75.38671875 303.24609375 -75.38671875 303.24609375 -77.109375 301.2265625 C-78.70711 297.49851416 -78.82744105 294.16709533 -78.76171875 290.18359375 C-78.77332031 289.47654297 -78.78492188 288.76949219 -78.796875 288.04101562 C-78.77982668 285.01493891 -78.57460495 282.63344818 -77.24609375 279.89453125 C-74.77089192 277.70012963 -72.40181589 276.95431091 -69.26171875 275.93359375 C-58.67345275 272.08224449 -49.97319663 265.13704285 -45.13671875 254.80859375 C-42.30351402 248.25991439 -41.13576763 241.89285301 -41.14620972 234.79223633 C-41.14364644 233.73455205 -41.14364644 233.73455205 -41.14103138 232.65550041 C-41.1377642 230.31710177 -41.14869384 227.97899674 -41.15966797 225.640625 C-41.16023268 223.95473741 -41.15991435 222.26884934 -41.15878296 220.58296204 C-41.1582108 216.02362034 -41.16994293 211.46438459 -41.18393087 206.90506744 C-41.19646107 202.13382 -41.19761054 197.36256995 -41.19998169 192.59130859 C-41.20618974 183.56402162 -41.22259141 174.53678327 -41.24268067 165.50951767 C-41.2650607 155.22900253 -41.27603839 144.94848503 -41.28607154 134.66795158 C-41.30695824 113.5273052 -41.34212107 92.38670254 -41.38671875 71.24609375 C-42.07646286 70.90786087 -42.76620697 70.56962799 -43.47685242 70.22114563 C-44.83155388 69.5515406 -44.83155388 69.5515406 -46.21362305 68.8684082 C-47.55761421 68.20637138 -47.55761421 68.20637138 -48.92875671 67.53096008 C-58.68526063 62.43087992 -64.45875632 53.91382123 -67.75830078 43.68774414 C-68.76895147 39.76096964 -68.91953275 35.97345441 -68.88671875 31.93359375 C-68.88099854 31.10617676 -68.87527832 30.27875977 -68.86938477 29.42626953 C-68.54907663 18.36323641 -64.15496906 9.12013735 -56.38671875 1.24609375 C-39.78416525 -13.09247519 -17.24966443 -12.67610365 0 0 Z " fill="#33221A" transform="translate(738.38671875,298.75390625)"/>
<path d="M0 0 C0.90161865 -0.00281982 1.8032373 -0.00563965 2.73217773 -0.00854492 C3.72394516 -0.00652069 4.71571259 -0.00449646 5.73753357 -0.00241089 C6.77985138 -0.00416321 7.82216919 -0.00591553 8.89607239 -0.00772095 C12.35422919 -0.01213569 15.81233519 -0.00920299 19.27049255 -0.00582886 C21.66420502 -0.00650195 24.05791741 -0.00747203 26.45162964 -0.00872803 C31.47288157 -0.01020445 36.49411573 -0.00805203 41.5153656 -0.00338745 C47.96771691 0.00231287 54.42002666 -0.00097145 60.87237644 -0.00695992 C65.81612464 -0.01056441 70.75986289 -0.00942751 75.70361137 -0.00683212 C78.08358197 -0.0061627 80.46355346 -0.0069918 82.84352303 -0.00931168 C86.16238439 -0.0118367 89.48117734 -0.00799987 92.80003357 -0.00241089 C94.29072105 -0.00544724 94.29072105 -0.00544724 95.81152344 -0.00854492 C96.71032227 -0.0057251 97.60912109 -0.00290527 98.53515625 0 C99.32069161 0.00037703 100.10622698 0.00075405 100.91556644 0.0011425 C102.7040863 0.12698364 102.7040863 0.12698364 103.7040863 1.12698364 C103.9582418 5.76713689 103.88931428 10.4181967 103.8915863 15.06448364 C103.9038324 16.37868286 103.91607849 17.69288208 103.92869568 19.04690552 C103.93062927 20.29922974 103.93256287 21.55155396 103.93455505 22.84182739 C103.93866394 23.99803589 103.94277283 25.15424438 103.94700623 26.3454895 C103.7040863 29.12698364 103.7040863 29.12698364 101.7040863 31.12698364 C98.73017883 31.36749268 98.73017883 31.36749268 94.86766052 31.35403442 C94.16511139 31.35432648 93.46256226 31.35461853 92.73872375 31.35491943 C90.41194899 31.35352388 88.08549276 31.33795237 85.7587738 31.32229614 C84.14737625 31.31856681 82.53597643 31.31571946 80.92457581 31.3137207 C76.67975117 31.30607796 72.43506301 31.28642404 68.19029236 31.26431274 C63.09921082 31.24027463 58.00808369 31.23107638 52.91696167 31.21940613 C45.17924157 31.19999993 37.44182105 31.161682 29.7040863 31.12698364 C29.7040863 45.31698364 29.7040863 59.50698364 29.7040863 74.12698364 C34.14490662 74.03159302 38.58572693 73.93620239 43.16111755 73.83792114 C46.7000449 73.76767044 50.23899858 73.69948188 53.77799225 73.63269043 C57.5149678 73.56159561 61.25178967 73.48686153 64.98851013 73.40335083 C68.58692843 73.32307083 72.18541552 73.25276972 75.78417015 73.18941116 C77.15776958 73.16346879 78.53130573 73.13391891 79.90474892 73.10071945 C81.82699704 73.05486772 83.74956292 73.02297814 85.67210388 72.99172974 C87.31424614 72.95842056 87.31424614 72.95842056 88.98956299 72.92443848 C91.7040863 73.12698364 91.7040863 73.12698364 94.7040863 75.12698364 C95.0922699 77.98440552 95.0922699 77.98440552 95.1025238 81.59573364 C95.10639099 82.88866333 95.11025818 84.18159302 95.11424255 85.51370239 C95.10795837 86.18836548 95.10167419 86.86302856 95.09519958 87.55813599 C95.07914444 89.61951947 95.09504227 91.67894255 95.11424255 93.74026489 C95.11037537 95.03319458 95.10650818 96.32612427 95.1025238 97.65823364 C95.09914001 98.84997192 95.09575623 100.04171021 95.0922699 101.26956177 C94.90011902 102.6839856 94.90011902 102.6839856 94.7040863 104.12698364 C91.21745907 106.4514018 89.87830707 106.37100105 85.76390076 106.35403442 C83.93234184 106.35380783 83.93234184 106.35380783 82.06378174 106.35357666 C80.74496506 106.34325409 79.42614838 106.33293152 78.06736755 106.32229614 C76.70402229 106.31856525 75.34067434 106.31571864 73.97732544 106.3137207 C70.39174476 106.30609017 66.80632651 106.28644679 63.22080994 106.26431274 C59.56096087 106.24384175 55.90108552 106.23471631 52.24119568 106.22463989 C45.06208523 106.20320024 37.88310854 106.16907143 30.7040863 106.12698364 C30.70630692 106.95161606 30.70852753 107.77624847 30.71081543 108.62586975 C30.73081682 116.38096621 30.74605965 124.13605025 30.75589848 131.89116573 C30.76112667 135.87855564 30.76822315 139.86592432 30.77952576 143.853302 C30.79035692 147.69823479 30.79636362 151.54314709 30.79896355 155.38809395 C30.80081738 156.85817347 30.80443721 158.32825182 30.80981636 159.79832268 C30.81702986 161.85052832 30.81807712 163.90264832 30.81761169 165.9548645 C30.81983231 167.1251268 30.82205292 168.2953891 30.82434082 169.50111389 C30.7040863 172.12698364 30.7040863 172.12698364 29.7040863 173.12698364 C27.19484477 173.22785576 24.71372247 173.26670397 22.2040863 173.25979614 C21.4532074 173.26075287 20.70232849 173.26170959 19.92869568 173.26269531 C18.33820004 173.26337702 16.74770163 173.26152336 15.1572113 173.25735474 C12.71443976 173.25200631 10.27185209 173.25729998 7.8290863 173.26370239 C6.28741923 173.26304161 4.74575227 173.26176044 3.2040863 173.25979614 C2.46867615 173.26182037 1.73326599 173.2638446 0.97557068 173.26593018 C-4.18096209 173.24193525 -4.18096209 173.24193525 -5.2959137 172.12698364 C-5.42148993 169.43305925 -5.48206452 166.76361347 -5.50123596 164.06814575 C-5.51113273 163.21669826 -5.52102949 162.36525076 -5.53122616 161.48800182 C-5.56313613 158.62680604 -5.58779759 155.76559537 -5.61231995 152.90432739 C-5.6330095 150.88046924 -5.65405334 148.85661468 -5.6754303 146.83276367 C-5.73151777 141.37484871 -5.78077624 135.91689177 -5.82834244 130.45889664 C-5.85828089 127.07947509 -5.89011909 123.70007679 -5.92259216 120.32067871 C-6.3029245 80.58888596 -6.42525207 40.86025856 -6.2959137 1.12698364 C-3.96000393 -0.04097124 -2.60203932 0.00124828 0 0 Z " fill="#37241B" transform="translate(188.29591369628906,674.8730163574219)"/>
<path d="M0 0 C0.74781738 0.00008057 1.49563477 0.00016113 2.26611328 0.00024414 C4.54218372 -0.0019374 6.81776574 -0.02007542 9.09375 -0.0390625 C10.53775876 -0.04199735 11.98176982 -0.04398153 13.42578125 -0.04492188 C14.74433105 -0.04903076 16.06288086 -0.05313965 17.42138672 -0.05737305 C20.68359375 0.18554688 20.68359375 0.18554688 23.68359375 2.18554688 C24.08232117 4.05979919 24.08232117 4.05979919 24.1159668 6.40600586 C24.13574081 7.30578659 24.15551483 8.20556732 24.17588806 9.13261414 C24.18229813 10.13879288 24.18870819 11.14497162 24.1953125 12.18164062 C24.21344498 13.26512283 24.23157745 14.34860504 24.2502594 15.46492004 C24.30679384 19.18426678 24.33972456 22.90340735 24.37109375 26.62304688 C24.39429103 28.59530752 24.41750049 30.56756811 24.44145393 32.53981972 C24.55513532 42.09965478 24.61366404 51.65969099 24.6667099 61.22002411 C24.68465235 64.37148297 24.70418554 67.52292943 24.72393799 70.67437744 C24.81320172 85.14104091 24.87596014 99.60760112 24.91275024 114.07449341 C24.92540778 118.99386551 24.94419728 123.91315789 24.96786499 128.83248901 C24.99523471 134.70539666 25.00732887 140.57814709 25.00785637 146.45111656 C25.01041973 148.6495757 25.01814066 150.84803521 25.03116035 153.04645729 C25.0480802 156.0711912 25.04647997 159.095356 25.04003906 162.12011719 C25.04925731 163.01617393 25.05847555 163.91223066 25.06797314 164.83544064 C25.05108643 167.30010986 25.05108643 167.30010986 24.68359375 171.18554688 C19.82024435 174.42777981 14.12342817 173.51856169 8.43237305 173.5012207 C6.25713911 173.49806291 4.08326873 173.5215177 1.90820312 173.546875 C0.52213713 173.54914837 -0.86393252 173.54985131 -2.25 173.54882812 C-3.50868896 173.55180908 -4.76737793 173.55479004 -6.06420898 173.55786133 C-9.7588435 173.13489626 -10.88162381 172.97170022 -13.31640625 170.18554688 C-13.90824818 166.9468122 -13.78898982 163.73467548 -13.72241211 160.45214844 C-13.71797403 159.44755333 -13.71353596 158.44295822 -13.70896339 157.40792084 C-13.68947695 154.04690497 -13.64149518 150.68689605 -13.59375 147.32617188 C-13.57441791 144.94469596 -13.55695287 142.56320424 -13.54124451 140.18170166 C-13.50464449 135.12072665 -13.45630985 130.06005105 -13.39910889 124.99926758 C-13.31389734 117.32121762 -13.26437594 109.64323997 -13.22314453 101.96484375 C-13.15183893 89.20355834 -13.05359842 76.44265043 -12.9440918 63.68164062 C-12.89335163 57.75425008 -12.84768128 51.82683379 -12.80441433 45.89938521 C-12.7617275 40.08948348 -12.71364326 34.27963665 -12.6634655 28.46979523 C-12.6431248 26.0312249 -12.62439847 23.59264055 -12.60733223 21.1540451 C-12.58344764 17.80478595 -12.55341316 14.45563843 -12.52172852 11.10644531 C-12.51309532 9.60970779 -12.51309532 9.60970779 -12.50428772 8.08273315 C-12.4944989 7.1819101 -12.48471008 6.28108704 -12.47462463 5.35296631 C-12.46817208 4.5673016 -12.46171953 3.78163689 -12.45507145 2.97216415 C-12.06262617 -2.08425602 -3.89689398 0.01328456 0 0 Z " fill="#35231A" transform="translate(647.31640625,674.814453125)"/>
<path d="M0 0 C5.259375 -0.04125 10.51875 -0.0825 15.9375 -0.125 C17.578396 -0.14320801 19.21929199 -0.16141602 20.90991211 -0.18017578 C32.45494534 -0.22394708 42.73364162 0.27279945 52 8 C54.39590154 11.16220204 56.26422469 14.43877833 58 18 C58.495 18.99 58.495 18.99 59 20 C59.90067954 28.03683282 58.23322057 35.51880323 53.875 42.3125 C45.73283262 49.92365646 37.46362096 51.17443091 26.66015625 51.09765625 C25.9791687 51.09664917 25.29818115 51.09564209 24.59655762 51.09460449 C22.08518762 51.08942526 19.57384188 51.07546458 17.0625 51.0625 C11.431875 51.041875 5.80125 51.02125 0 51 C0 34.17 0 17.34 0 0 Z " fill="#E7DFD1" transform="translate(748,705)"/>
<path d="M0 0 C3.88286071 2.78164423 6.49002592 5.50628163 8.62109375 9.83203125 C9.6192257 16.35136154 9.19734022 22.47646305 5.828125 28.21484375 C3.14476385 31.81002664 -0.28453236 34.1218149 -4.37890625 35.83203125 C-10.45832977 36.56945075 -16.64343021 36.80980893 -21.84765625 33.23828125 C-27.1689867 28.35134512 -30.09550751 23.65791425 -30.62890625 16.45703125 C-30.23660857 10.76871489 -28.24094568 7.39837347 -24.12890625 3.58203125 C-17.75849152 -1.48775714 -7.57164134 -3.71743967 0 0 Z " fill="#E7DFD1" transform="translate(554.37890625,170.16796875)"/>
<path d="M0 0 C5.25787074 2.06375708 8.56196012 4.86192192 11 10 C11.79478726 16.12200996 11.93850038 21.98396215 9.3125 27.625 C4.81376184 32.24532567 1.33080515 35.09390682 -5.25 35.3125 C-10.85461745 35.23061436 -14.55208053 33.42889418 -18.5078125 29.50390625 C-22.74893634 24.64479008 -23.3588239 20.72870461 -23.27734375 14.5 C-22.70878298 9.37494514 -19.60123943 6.4022948 -15.875 3.1875 C-10.74956433 -0.71228801 -6.32511672 -0.75867303 0 0 Z " fill="#E7E0D2" transform="translate(610,540)"/>
<path d="M0 0 C4.86539935 2.22920388 7.74143621 4.9535938 10.8046875 9.31640625 C12.72637191 15.08145949 11.98522455 20.02203306 9.7265625 25.51953125 C7.81058765 29.25405851 5.7373699 31.00551212 1.8046875 32.31640625 C-10.3991617 33.47082442 -10.3991617 33.47082442 -15.2578125 30.31640625 C-19.23339716 26.80562876 -21.67468915 22.46972724 -22.5390625 17.234375 C-22.75514912 12.52548747 -21.78464373 9.2004031 -19.1953125 5.31640625 C-13.42991782 -0.37211651 -7.94647348 -2.47443569 0 0 Z " fill="#E8E1D3" transform="translate(716.1953125,314.68359375)"/>
<path d="M0 0 C5.32273339 1.81221468 8.31142646 5.13988629 11 10 C12.87664991 15.62994973 12.93749151 21.09029508 10.3125 26.4375 C6.37324648 30.80261877 3.61038081 32.19469367 -2.25 32.5625 C-8.45167849 32.38650642 -12.51615846 30.20420411 -17 26 C-20.19559853 21.54552932 -20.76888292 17.3287858 -20 12 C-16.70796451 2.67256611 -9.47639188 -1.10298987 0 0 Z " fill="#E8E0D2" transform="translate(711,178)"/>
<path d="M0 0 C10.93496471 -0.02312297 21.86992366 -0.04091485 32.8049078 -0.05181217 C37.88191018 -0.0570411 42.95889589 -0.06413892 48.03588867 -0.07543945 C52.93120552 -0.08626799 57.82650629 -0.09227676 62.72183418 -0.09487724 C64.59382951 -0.09673155 66.46582391 -0.10035228 68.33781242 -0.10573006 C70.95040699 -0.11294004 73.56293427 -0.11399096 76.17553711 -0.11352539 C76.95740387 -0.11712067 77.73927063 -0.12071594 78.54483032 -0.12442017 C83.88594784 -0.11405216 83.88594784 -0.11405216 85 1 C85.2541555 5.64015325 85.18522798 10.29121306 85.1875 14.9375 C85.19974609 16.25169922 85.21199219 17.56589844 85.22460938 18.91992188 C85.22654297 20.17224609 85.22847656 21.42457031 85.23046875 22.71484375 C85.23457764 23.87105225 85.23868652 25.02726074 85.24291992 26.21850586 C85 29 85 29 83 31 C79.98812866 31.20254517 79.98812866 31.20254517 76.07177734 31.13525391 C75.00332329 31.12106163 75.00332329 31.12106163 73.9132843 31.10658264 C71.55391074 31.07284762 69.19505656 31.024749 66.8359375 30.9765625 C65.20213181 30.95040123 63.56831159 30.92513376 61.93447876 30.90072632 C57.63034701 30.83401773 53.32652025 30.75513767 49.02264404 30.67376709 C44.63240279 30.59290301 40.24198239 30.5234881 35.8515625 30.453125 C27.23415753 30.31332238 18.61704107 30.16066785 10 30 C10 29.67 10 29.34 10 29 C34.09 29 58.18 29 83 29 C82.67 20.09 82.34 11.18 82 2 C78.25914062 2.01160156 74.51828125 2.02320313 70.6640625 2.03515625 C66.94352299 2.04300846 63.22298449 2.04904992 59.50244141 2.05493164 C56.96402558 2.05988636 54.42561248 2.06665203 51.88720703 2.07543945 C34.56534664 2.13379689 17.30333735 1.81980288 0 1 C0 0.67 0 0.34 0 0 Z " fill="#22110A" transform="translate(349,675)"/>
<path d="M0 0 C3.39463896 0.00457835 6.78913046 0.00229026 10.18375778 -0.00357246 C13.46560707 -0.00801817 16.74744661 -0.00493024 20.02929688 -0.00244141 C21.85373322 -0.00547775 21.85373322 -0.00547775 23.71502686 -0.00857544 C25.37637665 -0.0038472 25.37637665 -0.0038472 27.07128906 0.00097656 C28.53559357 0.00216995 28.53559357 0.00216995 30.02947998 0.00338745 C32.23242188 0.13037109 32.23242188 0.13037109 33.23242188 1.13037109 C33.48657737 5.77052435 33.41764985 10.42158416 33.41992188 15.06787109 C33.43216797 16.38207031 33.44441406 17.69626953 33.45703125 19.05029297 C33.45896484 20.30261719 33.46089844 21.55494141 33.46289062 22.84521484 C33.46699951 24.00142334 33.4711084 25.15763184 33.4753418 26.34887695 C33.23242188 29.13037109 33.23242188 29.13037109 31.23242188 31.13037109 C28.2585144 31.33291626 28.2585144 31.33291626 24.39599609 31.265625 C23.69344696 31.25616348 22.99089783 31.24670197 22.26705933 31.23695374 C19.9401477 31.20322049 17.6137629 31.15512145 15.28710938 31.10693359 C13.67572413 31.08077214 12.06432414 31.05550468 10.45291138 31.03109741 C6.20796073 30.96439064 1.96331941 30.88551021 -2.28137207 30.80413818 C-6.61128856 30.72327232 -10.94138672 30.65385853 -15.27148438 30.58349609 C-23.77040285 30.44369588 -32.26902871 30.29104133 -40.76757812 30.13037109 C-40.76757812 29.80037109 -40.76757812 29.47037109 -40.76757812 29.13037109 C-17.00757813 29.13037109 6.75242187 29.13037109 31.23242188 29.13037109 C30.90242188 20.22037109 30.57242188 11.31037109 30.23242188 2.13037109 C1.52242188 2.13037109 -27.18757813 2.13037109 -56.76757812 2.13037109 C-56.76757812 1.80037109 -56.76757812 1.47037109 -56.76757812 1.13037109 C-37.83438377 0.34249192 -18.95090511 -0.03053567 0 0 Z " fill="#21100B" transform="translate(258.767578125,674.86962890625)"/>
<path d="M0 0 C0.33 0 0.66 0 1 0 C1.91472548 39.79299096 2.09047824 79.5724628 2.0625 119.375 C2.06164398 120.60141331 2.06078796 121.82782661 2.05990601 123.09140396 C2.04843835 138.39428366 2.02825155 153.69714243 2 169 C1.67 169 1.34 169 1 169 C0.67 151.18 0.34 133.36 0 115 C-0.33 115 -0.66 115 -1 115 C-1.08554601 90.772053 -0.85093368 66.55276985 -0.53643799 42.3270874 C-0.47463312 37.5318789 -0.41516746 32.73664135 -0.35546875 27.94140625 C-0.23918871 18.62757539 -0.12044513 9.31377787 0 0 Z " fill="#674839" transform="translate(670,677)"/>
<path d="M0 0 C10.03169132 -0.09287433 20.06327956 -0.16385329 30.09531403 -0.20724869 C34.75412738 -0.22808137 39.41264556 -0.25631961 44.07128906 -0.30175781 C48.57115054 -0.3453703 53.07072893 -0.36916957 57.57078552 -0.37950897 C59.28352817 -0.38687279 60.99625615 -0.40125255 62.70887756 -0.42292023 C65.11679999 -0.45216001 67.52356789 -0.45594759 69.93164062 -0.45410156 C70.63223602 -0.46848267 71.33283142 -0.48286377 72.05465698 -0.49768066 C78.1054491 -0.44782128 79.93999685 0.96999843 86 4 C86 10.27 86 16.54 86 23 C84.515 23.495 84.515 23.495 83 24 C82.98541748 23.43490723 82.97083496 22.86981445 82.95581055 22.28759766 C82.88143942 19.73269981 82.78474758 17.17912502 82.6875 14.625 C82.66494141 13.73554688 82.64238281 12.84609375 82.61914062 11.9296875 C82.58369141 11.07890625 82.54824219 10.228125 82.51171875 9.3515625 C82.48553467 8.56604004 82.45935059 7.78051758 82.43237305 6.97119141 C82.15110403 4.59959844 82.15110403 4.59959844 79 3 C76.4374267 2.75865644 73.97422554 2.62994457 71.4074707 2.58935547 C70.63650055 2.56955627 69.8655304 2.54975708 69.07119751 2.52935791 C66.52285036 2.46618321 63.97442864 2.41663656 61.42578125 2.3671875 C59.65884971 2.32604353 57.89193776 2.28405044 56.12504578 2.24124146 C51.47439429 2.13084998 46.82356588 2.03201002 42.17260742 1.93554688 C37.4267604 1.83507995 32.6811703 1.72372718 27.93554688 1.61328125 C18.6239174 1.39817948 9.31206485 1.19527628 0 1 C0 0.67 0 0.34 0 0 Z " fill="#462F24" transform="translate(392,182)"/>
<path d="M0 0 C5.3625 -0.04125 10.725 -0.0825 16.25 -0.125 C18.77962402 -0.15231201 18.77962402 -0.15231201 21.36035156 -0.18017578 C22.70377281 -0.18601949 24.0471976 -0.19111534 25.390625 -0.1953125 C26.42872314 -0.2106604 26.42872314 -0.2106604 27.48779297 -0.22631836 C31.48724687 -0.22776221 33.30001819 0.15000909 37 2 C25.45 2 13.9 2 2 2 C2 17.18 2 32.36 2 48 C1.34 48 0.68 48 0 48 C0 32.16 0 16.32 0 0 Z " fill="#F3ECE0" transform="translate(748,705)"/>
<path d="M0 0 C0.33 0 0.66 0 1 0 C1.04954105 5.17780166 1.08578636 10.35546446 1.10986328 15.53344727 C1.11990351 17.29388839 1.13353844 19.05431291 1.15087891 20.81469727 C1.17521436 23.34916285 1.18650296 25.88340739 1.1953125 28.41796875 C1.20563507 29.20149216 1.21595764 29.98501556 1.22659302 30.7922821 C1.22750695 35.27167362 0.71703232 37.7074192 -1 42 C-12.22 42 -23.44 42 -35 42 C-35 41.67 -35 41.34 -35 41 C-24.11 41 -13.22 41 -2 41 C-2.02320313 38.62683594 -2.04640625 36.25367188 -2.0703125 33.80859375 C-2.08594218 31.49178603 -2.098068 29.17498434 -2.10986328 26.8581543 C-2.11987623 25.25689026 -2.1334906 23.65564429 -2.15087891 22.05444336 C-2.17533565 19.74328124 -2.18653029 17.43236238 -2.1953125 15.12109375 C-2.20563507 14.41351425 -2.21595764 13.70593475 -2.22659302 12.97691345 C-2.22764468 8.24165735 -1.46788729 4.44683503 0 0 Z " fill="#E0D5C8" transform="translate(751,807)"/>
<path d="M0 0 C2.5942688 -0.36076355 2.5942688 -0.36076355 5.91845703 -0.34057617 C7.15959259 -0.34034958 8.40072815 -0.34012299 9.67947388 -0.33988953 C11.03892372 -0.32456848 12.39836991 -0.30892047 13.7578125 -0.29296875 C15.1450047 -0.28737427 16.53220283 -0.28310347 17.91940308 -0.28010559 C21.57249281 -0.26864497 25.22522534 -0.23916786 28.87817383 -0.20599365 C32.60493131 -0.17531867 36.33174645 -0.16160579 40.05859375 -0.14648438 C47.37255877 -0.11429886 54.68622936 -0.06308839 62 0 C61.34 0.99 60.68 1.98 60 3 C57.4057312 3.36076355 57.4057312 3.36076355 54.08154297 3.34057617 C52.84040741 3.34034958 51.59927185 3.34012299 50.32052612 3.33988953 C48.96107628 3.32456848 47.60163009 3.30892047 46.2421875 3.29296875 C44.8549953 3.28737427 43.46779717 3.28310347 42.08059692 3.28010559 C38.42750719 3.26864497 34.77477466 3.23916786 31.12182617 3.20599365 C27.39506869 3.17531867 23.66825355 3.16160579 19.94140625 3.14648438 C12.62744123 3.11429886 5.31377064 3.06308839 -2 3 C-1.34 2.01 -0.68 1.02 0 0 Z " fill="#E4D7C6" transform="translate(361,743)"/>
<path d="M0 0 C8.41097989 6.97932374 15.92376762 14.68043828 23 23 C23.4843602 23.43618149 23.9687204 23.87236298 24.46775818 24.32176208 C28.058244 27.82830536 29.41490435 30.42881486 29.68115234 35.47631836 C29.68021029 37.59773071 29.64677336 39.71930367 29.5859375 41.83984375 C29.57744781 42.96193741 29.56895813 44.08403107 29.56021118 45.24012756 C29.52675493 48.80691508 29.4514834 52.37140144 29.375 55.9375 C29.34489065 58.36259745 29.31751656 60.7877305 29.29296875 63.21289062 C29.22698905 69.14270575 29.12671655 75.07118845 29 81 C28.67 81 28.34 81 28 81 C28.00745743 80.39580231 28.01491486 79.79160461 28.02259827 79.1690979 C28.09177863 72.84111859 28.0973567 66.51528002 28.06713867 60.18701172 C28.06406949 57.83020691 28.07684587 55.4733232 28.10620117 53.11669922 C28.9741217 38.02200402 28.9741217 38.02200402 22.92578125 24.92578125 C21.31793699 23.5755298 19.67634657 22.26420106 18 21 C16.62137172 19.56855132 15.26856868 18.11169226 13.9453125 16.62890625 C12.67291654 15.27245974 11.39949287 13.91697648 10.125 12.5625 C9.4753125 11.86962891 8.825625 11.17675781 8.15625 10.46289062 C4.80295315 6.86010554 4.80295315 6.86010554 1.29638672 3.40991211 C0 2 0 2 0 0 Z " fill="#120A07" transform="translate(586,437)"/>
<path d="M0 0 C0.33 0 0.66 0 1 0 C1 23.76 1 47.52 1 72 C9.58 72 18.16 72 27 72 C27 72.33 27 72.66 27 73 C22.52115561 73.19581346 18.04191574 73.3802636 13.5625 73.5625 C12.28310547 73.61857422 11.00371094 73.67464844 9.68554688 73.73242188 C7.86313477 73.80493164 7.86313477 73.80493164 6.00390625 73.87890625 C4.31503296 73.94960327 4.31503296 73.94960327 2.59204102 74.02172852 C0 74 0 74 -1 73 C-1.06461918 70.72934199 -1.05679157 68.45660941 -1.02172852 66.18530273 C-1.01212097 65.47314606 -1.00251343 64.76098938 -0.99261475 64.0272522 C-0.95951349 61.66260227 -0.91922399 59.29813076 -0.87890625 56.93359375 C-0.85461598 55.29835142 -0.83077189 53.6631024 -0.80735779 52.02784729 C-0.74440797 47.71559051 -0.67537243 43.40345148 -0.60510254 39.09130859 C-0.53451724 34.69439067 -0.4696417 30.297389 -0.40429688 25.90039062 C-0.27514416 17.26683438 -0.13956724 8.63339413 0 0 Z " fill="#271913" transform="translate(184,774)"/>
<path d="M0 0 C0.66 0 1.32 0 2 0 C2.103125 1.093125 2.20625 2.18625 2.3125 3.3125 C2.99727202 6.98536808 3.27919304 7.75237686 6 10 C6 10.66 6 11.32 6 12 C6.99 12.33 7.98 12.66 9 13 C9 13.66 9 14.32 9 15 C9.66 15 10.32 15 11 15 C12.28930664 16.31054688 12.28930664 16.31054688 13.84765625 18.21875 C19.03322305 24.31720242 24.75927797 29.8661587 30.4375 35.5 C31.5620833 36.61955632 32.68643405 37.73934629 33.81054688 38.859375 C36.53769344 41.57561534 39.26795907 44.28868292 42 47 C41.505 47.99 41.505 47.99 41 49 C35.96103955 43.98647574 30.92606793 38.968971 25.89379883 33.94873047 C24.18279282 32.24274113 22.47088879 30.53765195 20.75805664 28.83349609 C18.29074037 26.37836233 15.82671302 23.91996813 13.36328125 21.4609375 C12.60163162 20.70444916 11.83998199 19.94796082 11.05525208 19.16854858 C0.09775837 8.21220378 0.09775837 8.21220378 -0.3125 3.125 C-0.209375 2.09375 -0.10625 1.0625 0 0 Z " fill="#1C110B" transform="translate(548,425)"/>
<path d="M0 0 C0.99 0.33 1.98 0.66 3 1 C3.0745169 5.99874665 3.12877437 10.99716533 3.16479492 15.99633789 C3.17982126 17.69463742 3.20024823 19.39289855 3.22631836 21.09106445 C3.26297449 23.54127518 3.27978789 25.99097 3.29296875 28.44140625 C3.30845261 29.19273331 3.32393646 29.94406036 3.33988953 30.71815491 C3.34150969 35.86780669 2.30465629 39.38802922 0 44 C-0.99 44 -1.98 44 -3 44 C-2.67657623 43.42509827 -2.35315247 42.85019653 -2.01992798 42.25787354 C-0.96120242 39.91411156 -0.72952957 38.42189081 -0.68115234 35.87402344 C-0.66128265 35.07349548 -0.64141296 34.27296753 -0.62094116 33.44818115 C-0.60938995 32.59387512 -0.59783875 31.73956909 -0.5859375 30.859375 C-0.56657135 29.97719299 -0.5472052 29.09501099 -0.5272522 28.18609619 C-0.46757152 25.37416184 -0.42111717 22.5621863 -0.375 19.75 C-0.33680962 17.84112819 -0.29775727 15.93227341 -0.2578125 14.0234375 C-0.16187942 9.34909704 -0.07780584 4.67467591 0 0 Z " fill="#E3D9C6" transform="translate(558,291)"/>
<path d="M0 0 C1.32 0.66 2.64 1.32 4 2 C4.042721 3.66611905 4.04063832 5.33382885 4 7 C1.9431054 9.0568946 -2.35555998 8.25747076 -5.19140625 8.31640625 C-6.01124496 8.33718735 -6.83108368 8.35796844 -7.67576599 8.37937927 C-10.30458901 8.44496494 -12.93351504 8.50380126 -15.5625 8.5625 C-17.34050561 8.60567667 -19.11850065 8.64929067 -20.89648438 8.69335938 C-25.26421634 8.80065543 -29.63205227 8.90189704 -34 9 C-34 8.34 -34 7.68 -34 7 C-22.12 6.34 -10.24 5.68 2 5 C1.34 3.35 0.68 1.7 0 0 Z " fill="#28160E" transform="translate(603,839)"/>
<path d="M0 0 C0.66 0.33 1.32 0.66 2 1 C1.55527344 1.38671875 1.11054687 1.7734375 0.65234375 2.171875 C0.08644531 2.69265625 -0.47945312 3.2134375 -1.0625 3.75 C-1.63097656 4.26046875 -2.19945312 4.7709375 -2.78515625 5.296875 C-4.20803507 6.9202162 -4.20803507 6.9202162 -3.90625 8.9765625 C-2.79914602 11.44845847 -1.42889669 12.79854728 0.5625 14.625 C1.74334995 15.71318768 2.89810336 16.83193202 4 18 C4 18.66 4 19.32 4 20 C4.66 20 5.32 20 6 20 C7.515625 21.50390625 7.515625 21.50390625 9.25 23.5625 C10.17232422 24.64724609 10.17232422 24.64724609 11.11328125 25.75390625 C11.73589844 26.49511719 12.35851562 27.23632812 13 28 C14.14473463 29.33427675 15.29046728 30.66769833 16.4375 32 C17.283125 32.99 18.12875 33.98 19 35 C16 35 16 35 13.984375 33.05859375 C12.87835937 31.76115234 12.87835937 31.76115234 11.75 30.4375 C9.03755723 27.3168741 6.33552933 24.261851 3.375 21.375 C0.86544589 18.89483177 -1.5664027 16.3634339 -3.9375 13.75 C-4.52402344 13.10546875 -5.11054687 12.4609375 -5.71484375 11.796875 C-7 10 -7 10 -7 7 C-5.46875 5.17578125 -5.46875 5.17578125 -3.5 3.3125 C-2.8503125 2.68988281 -2.200625 2.06726563 -1.53125 1.42578125 C-0.77328125 0.72001953 -0.77328125 0.72001953 0 0 Z " fill="#F0EAE0" transform="translate(587,420)"/>
<path d="M0 0 C2.56205842 3.84308764 2.67366765 5.4340304 2 10 C-0.48853515 13.87260806 -3.44953207 16.99429107 -7.3125 19.5 C-13.30255826 20.61442944 -18.79783475 21.27786847 -24.0625 17.75 C-26.6830797 15.75219336 -27.43925205 14.23987703 -28 11 C-26 12.375 -26 12.375 -24 14 C-24 14.66 -24 15.32 -24 16 C-18.77934503 18.27567012 -14.44699917 18.36418584 -9 17 C-5.24083284 14.94954519 -3.37401984 13.56102976 -1 10 C-0.54398739 7.49103314 -0.54398739 7.49103314 -0.375 4.8125 C-0.30023438 3.91144531 -0.22546875 3.01039063 -0.1484375 2.08203125 C-0.09945313 1.39496094 -0.05046875 0.70789063 0 0 Z " fill="#1D0F0B" transform="translate(505,382)"/>
<path d="M0 0 C10.15317287 -0.63019694 10.15317287 -0.63019694 13.6875 2 C14.120625 2.66 14.55375 3.32 15 4 C14.34 4.33 13.68 4.66 13 5 C12.34 4.67 11.68 4.34 11 4 C8.75025839 3.84504237 6.49628464 3.74989072 4.2421875 3.68359375 C3.57913605 3.66281265 2.91608459 3.64203156 2.23294067 3.62062073 C0.11373306 3.55520769 -2.005599 3.49627895 -4.125 3.4375 C-5.56121081 3.39430691 -6.99740902 3.35069236 -8.43359375 3.30664062 C-11.95559594 3.19953501 -15.47773825 3.09824425 -19 3 C-19 2.67 -19 2.34 -19 2 C-12.73 1.67 -6.46 1.34 0 1 C0 0.67 0 0.34 0 0 Z " fill="#C6B29E" transform="translate(657,672)"/>
<path d="M0 0 C2.61058793 2.40977347 4.63205927 4.89669183 6.625 7.8125 C9.70560091 12.03552324 13.37043739 14.63741035 17.73046875 17.45703125 C19.75192597 18.83134382 21.3494024 20.20961237 23 22 C14.11363401 19.7784085 7.2383167 13.31332857 2 6 C0.5625 2.5 0.5625 2.5 0 0 Z " fill="#F4EFE9" transform="translate(672,348)"/>
<path d="M0 0 C8.25 0.33 16.5 0.66 25 1 C22.33211421 3.66788579 20.29944656 3.26148845 16.66992188 3.2734375 C15.44112305 3.26183594 15.44112305 3.26183594 14.1875 3.25 C13.37990234 3.25773437 12.57230469 3.26546875 11.74023438 3.2734375 C7.38185097 3.25915942 3.96677823 3.02764323 0 1 C0 0.67 0 0.34 0 0 Z " fill="#ECE5DA" transform="translate(445,440)"/>
<path d="M0 0 C1.875 0.25 1.875 0.25 4 1 C4.6837045 2.32467746 5.34964186 3.65863633 6 5 C7.32467746 5.6837045 8.65863633 6.34964186 10 7 C11.75 9.125 11.75 9.125 13 11 C12.01 11.33 11.02 11.66 10 12 C8.32737283 10.38113585 6.66204463 8.7547271 5 7.125 C4.071875 6.22007812 3.14375 5.31515625 2.1875 4.3828125 C0 2 0 2 0 0 Z " fill="#D7CCBB" transform="translate(509,436)"/>
<path d="M0 0 C2.73803435 1.36901717 2.7559617 2.70681981 3.75 5.5625 C6.06465693 11.62759729 9.4223829 16.4223829 14 21 C11 21 11 21 9.31640625 19.34765625 C0 7.20935412 0 7.20935412 0 0 Z " fill="#F3EEE6" transform="translate(562,567)"/>
<path d="M0 0 C0.69738281 0.01353516 1.39476562 0.02707031 2.11328125 0.04101562 C3.82585541 0.0762055 5.53802941 0.13000845 7.25 0.1875 C6.26 1.6725 6.26 1.6725 5.25 3.1875 C2.29935852 3.4083564 -0.43368231 3.46810989 -3.375 3.375 C-4.17679687 3.36146484 -4.97859375 3.34792969 -5.8046875 3.33398438 C-7.78674378 3.29859051 -9.76845551 3.24478234 -11.75 3.1875 C-8.17517469 -0.32283104 -4.73451742 -0.1745238 0 0 Z " fill="#563D31" transform="translate(427.75,844.8125)"/>
<path d="M0 0 C0.99 0.33 1.98 0.66 3 1 C2.154375 1.66 1.30875 2.32 0.4375 3 C-2.93515408 5.78784708 -5.68625586 8.97542369 -8.484375 12.328125 C-10 14 -10 14 -12 15 C-11.58685438 10.55073948 -8.49538473 8.15899896 -5.4375 5.25 C-4.91736328 4.74339844 -4.39722656 4.23679687 -3.86132812 3.71484375 C-2.58089916 2.46965595 -1.29132446 1.23388498 0 0 Z " fill="#2A1D16" transform="translate(583,389)"/>
<path d="M0 0 C3.49275577 3.40590216 6.71340683 6.9202773 9.8125 10.6875 C10.60269531 11.64011719 11.39289063 12.59273438 12.20703125 13.57421875 C14 16 14 16 14 18 C13.34 18 12.68 18 12 18 C10.64240067 16.32210126 9.36288195 14.58056912 8.125 12.8125 C6.06381839 9.88530863 4.02038674 7.0247251 1.7421875 4.26171875 C0 2 0 2 0 0 Z " fill="#F3EEE6" transform="translate(349,319)"/>
<path d="M0 0 C0.33 0.66 0.66 1.32 1 2 C0.06862408 3.29608947 -0.8703566 4.58671632 -1.8125 5.875 C-2.33457031 6.59429687 -2.85664062 7.31359375 -3.39453125 8.0546875 C-5 10 -5 10 -8 12 C-8.66 11.34 -9.32 10.68 -10 10 C-6.7 6.7 -3.4 3.4 0 0 Z " fill="#DBD0C3" transform="translate(632,289)"/>
<path d="M0 0 C0 0.33 0 0.66 0 1 C-3.3 1.33 -6.6 1.66 -10 2 C-10 2.66 -10 3.32 -10 4 C-16.0546875 4.1953125 -16.0546875 4.1953125 -18 4 C-18.66 3.34 -19.32 2.68 -20 2 C-13.1834265 0.2120463 -7.03482474 -0.23668569 0 0 Z " fill="#D6CABA" transform="translate(462,331)"/>
<path d="M0 0 C0.66 0 1.32 0 2 0 C1.52445506 4.27990445 -0.98683595 6.12698311 -4 9 C-5.35555293 10.64864545 -6.69631653 12.31003995 -8 14 C-8.66 13.67 -9.32 13.34 -10 13 C-8.38247153 10.82737873 -6.75661363 8.66200042 -5.125 6.5 C-4.66480469 5.87996094 -4.20460938 5.25992188 -3.73046875 4.62109375 C-2.53437826 3.04364108 -1.27143274 1.51738202 0 0 Z " fill="#22150E" transform="translate(559,680)"/>
<path d="M0 0 C0.66 0.33 1.32 0.66 2 1 C-5.11389522 9.81548975 -5.11389522 9.81548975 -10 11 C-8.55218207 7.55571735 -6.72305391 5.63869038 -3.875 3.25 C-3.15054688 2.63640625 -2.42609375 2.0228125 -1.6796875 1.390625 C-0.84824219 0.70226562 -0.84824219 0.70226562 0 0 Z " fill="#EEE6D7" transform="translate(740,220)"/>
<path d="M0 0 C4.58716587 4.44381694 8.78762713 9.20228499 13 14 C12.67 14.66 12.34 15.32 12 16 C7.41192433 11.64992249 3.44142218 7.31856154 0 2 C0 1.34 0 0.68 0 0 Z " fill="#20150F" transform="translate(287,570)"/>
<path d="M0 0 C0.33 0 0.66 0 1 0 C1.33 7.26 1.66 14.52 2 22 C1.01 22.33 0.02 22.66 -1 23 C-0.67 15.41 -0.34 7.82 0 0 Z " fill="#291A14" transform="translate(422,755)"/>
<path d="M0 0 C0.8125 1.625 0.8125 1.625 1 4 C-0.46818136 6.24609835 -2.15852858 8.02378677 -4 10 C-4.66 9.67 -5.32 9.34 -6 9 C-5.52797514 4.75177626 -3.03344482 2.80010291 0 0 Z " fill="#3C2C23" transform="translate(666,219)"/>
<path d="M0 0 C1.32 0.66 2.64 1.32 4 2 C4 8.93 4 15.86 4 23 C3.67 23 3.34 23 3 23 C2.98541748 22.44014404 2.97083496 21.88028809 2.95581055 21.3034668 C2.88128648 18.76411863 2.78464419 16.22607922 2.6875 13.6875 C2.66494141 12.80642578 2.64238281 11.92535156 2.61914062 11.01757812 C2.58369141 10.17001953 2.54824219 9.32246094 2.51171875 8.44921875 C2.48553467 7.66893311 2.45935059 6.88864746 2.43237305 6.0847168 C1.9068329 3.55078834 0.9591474 2.63072223 -1 1 C-0.67 0.67 -0.34 0.34 0 0 Z " fill="#21110B" transform="translate(472,183)"/>
<path d="M0 0 C2.63978826 3.18595135 5.10498388 6.30970546 7 10 C6.67 10.66 6.34 11.32 6 12 C2.67356033 9.01767477 0.70847138 6.13629913 -1 2 C-0.67 1.34 -0.34 0.68 0 0 Z " fill="#4F3528" transform="translate(813,792)"/>
<path d="M0 0 C0.66 0.33 1.32 0.66 2 1 C2.28571429 8.42857143 2.28571429 8.42857143 0 12 C-0.66 12 -1.32 12 -2 12 C-1.34 8.04 -0.68 4.08 0 0 Z " fill="#E2D9CE" transform="translate(726,326)"/>
<path d="M0 0 C0.33 0 0.66 0 1 0 C1.33 6.93 1.66 13.86 2 21 C1.01 21 0.02 21 -1 21 C-0.67 14.07 -0.34 7.14 0 0 Z " fill="#24170F" transform="translate(326,826)"/>
<path d="M0 0 C0.99 0.66 1.98 1.32 3 2 C2.38461538 8.52307692 2.38461538 8.52307692 0.4375 10.9375 C-0.036875 11.288125 -0.51125 11.63875 -1 12 C-1.66 11.67 -2.32 11.34 -3 11 C-2.34 9.68 -1.68 8.36 -1 7 C-0.34 7 0.32 7 1 7 C0.67 4.69 0.34 2.38 0 0 Z " fill="#1D110C" transform="translate(540,470)"/>
<path d="M0 0 C0.33 1.32 0.66 2.64 1 4 C-0.32 4.33 -1.64 4.66 -3 5 C-3.33 7.64 -3.66 10.28 -4 13 C-4.33 13 -4.66 13 -5 13 C-5.61538462 5.73846154 -5.61538462 5.73846154 -2.5 2 C-1.675 1.34 -0.85 0.68 0 0 Z " fill="#B49883" transform="translate(512,377)"/>
<path d="M0 0 C0 0.99 0 1.98 0 3 C-2.8125 5.75 -2.8125 5.75 -6 8 C-6.99 7.67 -7.98 7.34 -9 7 C-8.67 6.01 -8.34 5.02 -8 4 C-6.01751285 3.28293018 -4.01584651 2.61709587 -2 2 C-1.34 1.34 -0.68 0.68 0 0 Z " fill="#3C2921" transform="translate(560,200)"/>
<path d="M0 0 C0.99 0.99 1.98 1.98 3 3 C1.35 4.32 -0.3 5.64 -2 7 C-2.66 6.67 -3.32 6.34 -4 6 C-2.84826645 3.53199953 -1.95216435 1.95216435 0 0 Z " fill="#3B2A22" transform="translate(683,299)"/>
<path d="M0 0 C8.44646925 6.15034169 8.44646925 6.15034169 12 10 C8.07290865 10 7.1810287 8.72099538 4.3125 6.125 C3.50425781 5.40570313 2.69601562 4.68640625 1.86328125 3.9453125 C0 2 0 2 0 0 Z " fill="#F2EEE6" transform="translate(509,215)"/>
<path d="M0 0 C0.66 0 1.32 0 2 0 C3.54296875 2.1171875 3.54296875 2.1171875 5.1875 4.875 C5.73792969 5.77992188 6.28835938 6.68484375 6.85546875 7.6171875 C7.23316406 8.40351562 7.61085938 9.18984375 8 10 C7.67 10.66 7.34 11.32 7 12 C5.82767315 10.3790787 4.6622923 8.75313167 3.5 7.125 C2.8503125 6.22007812 2.200625 5.31515625 1.53125 4.3828125 C0 2 0 2 0 0 Z " fill="#261610" transform="translate(560,832)"/>
<path d="M0 0 C0.66 0.99 1.32 1.98 2 3 C1.375 5.625 1.375 5.625 0 8 C-1.32 8.33 -2.64 8.66 -4 9 C-2.68 6.03 -1.36 3.06 0 0 Z " fill="#E2D4C3" transform="translate(643,573)"/>
<path d="M0 0 C2.10814567 4.21629134 2.17700355 6.39790775 2 11 C1.01 10.67 0.02 10.34 -1 10 C-0.67 6.7 -0.34 3.4 0 0 Z " fill="#DBD1C4" transform="translate(404,372)"/>
<path d="M0 0 C0.66 0.33 1.32 0.66 2 1 C0.8125 3.875 0.8125 3.875 -1 7 C-2.65 7.66 -4.3 8.32 -6 9 C-4.02 6.03 -2.04 3.06 0 0 Z " fill="#22150F" transform="translate(519,734)"/>
<path d="M0 0 C0.33 0 0.66 0 1 0 C1.19441368 2.2910905 1.38033135 4.58290337 1.5625 6.875 C1.66691406 8.15117188 1.77132812 9.42734375 1.87890625 10.7421875 C2 14 2 14 1 16 C-0.32 15.67 -1.64 15.34 -3 15 C-2.34 15 -1.68 15 -1 15 C-0.67 10.05 -0.34 5.1 0 0 Z " fill="#D2BBA7" transform="translate(546,586)"/>
<path d="M0 0 C2.97 0 5.94 0 9 0 C9 0.66 9 1.32 9 2 C6.03 2.66 3.06 3.32 0 4 C0 2.68 0 1.36 0 0 Z " fill="#E3D8CA" transform="translate(478,368)"/>
<path d="M0 0 C0.99 0.495 0.99 0.495 2 1 C2 1.66 2 2.32 2 3 C4.475 3.99 4.475 3.99 7 5 C6.01 5.66 5.02 6.32 4 7 C2.68 6.34 1.36 5.68 0 5 C0 3.35 0 1.7 0 0 Z " fill="#D3C4B2" transform="translate(424,514)"/>
<path d="M0 0 C2 1.375 2 1.375 4 3 C4 3.66 4 4.32 4 5 C5.98 5.66 7.96 6.32 10 7 C10 7.66 10 8.32 10 9 C5.57238086 7.60846256 3.0443745 5.47928514 0 2 C0 1.34 0 0.68 0 0 Z " fill="#221610" transform="translate(477,393)"/>
<path d="M0 0 C0 3.29223784 -0.50518132 5.08510357 -2 8 C-4.125 9.3125 -4.125 9.3125 -6 10 C-5.34 9.01 -4.68 8.02 -4 7 C-4 6.01 -4 5.02 -4 4 C-2 1.8125 -2 1.8125 0 0 Z " fill="#443027" transform="translate(528,326)"/>
<path d="M0 0 C0.99 0.33 1.98 0.66 3 1 C1.70700306 3.88437779 0.34058637 5.87219421 -2 8 C-2.66 7.67 -3.32 7.34 -4 7 C-3.505 6.566875 -3.01 6.13375 -2.5 5.6875 C-0.66781808 4.00259517 -0.66781808 4.00259517 -1 1 C-0.67 0.67 -0.34 0.34 0 0 Z " fill="#DFD4C4" transform="translate(540,480)"/>
<path d="M0 0 C0 0.99 0 1.98 0 3 C-3.33333333 1.33333333 -6.66666667 -0.33333333 -10 -2 C-5.82412255 -3.39195915 -3.86525224 -1.82323219 0 0 Z " fill="#E5D8C7" transform="translate(476,256)"/>
<path d="M0 0 C1.65 0 3.3 0 5 0 C3.02 2.31 1.04 4.62 -1 7 C-2 4 -2 4 -1.0625 1.8125 C-0.5365625 0.9153125 -0.5365625 0.9153125 0 0 Z " fill="#442E24" transform="translate(680,236)"/>
<path d="M0 0 C4.04648443 1.34882814 4.95502599 3.34826069 7 7 C6.67 7.99 6.34 8.98 6 10 C4.99421411 8.71283353 3.99553202 7.42011342 3 6.125 C2.443125 5.40570313 1.88625 4.68640625 1.3125 3.9453125 C0 2 0 2 0 0 Z " fill="#291912" transform="translate(575,156)"/>
<path d="M0 0 C1.32 0.66 2.64 1.32 4 2 C4 3.65 4 5.3 4 7 C1.69 7 -0.62 7 -3 7 C-3 6.67 -3 6.34 -3 6 C-1.35 5.67 0.3 5.34 2 5 C1.34 3.35 0.68 1.7 0 0 Z " fill="#200F0A" transform="translate(603,839)"/>
<path d="M0 0 C0.66 0.66 1.32 1.32 2 2 C-2.75 6.875 -2.75 6.875 -5 8 C-3.62845496 5.04590299 -2.01136276 2.55991624 0 0 Z " fill="#21130E" transform="translate(804,743)"/>
<path d="M0 0 C0.99 0.33 1.98 0.66 3 1 C1.02 3.97 1.02 3.97 -1 7 C-1.66 5.68 -2.32 4.36 -3 3 C-2.01 2.01 -1.02 1.02 0 0 Z " fill="#DFD4C4" transform="translate(569,719)"/>
<path d="M0 0 C3.16115776 1.36983503 3.9927092 1.9890638 6 5 C4.68 5 3.36 5 2 5 C1.34 4.34 0.68 3.68 0 3 C0 2.01 0 1.02 0 0 Z " fill="#E0D6CC" transform="translate(585,471)"/>
<path d="M0 0 C1.32 0 2.64 0 4 0 C4 0.66 4 1.32 4 2 C5.98 2.66 7.96 3.32 10 4 C6.19881294 5.26706235 4.6149628 4.57172296 1 3 C0.67 2.01 0.34 1.02 0 0 Z " fill="#E1D8CA" transform="translate(694,202)"/>
<path d="M0 0 C2.91488977 2.6234008 4.88503898 5.71816394 7 9 C6.01 9 5.02 9 4 9 C0 3.85714286 0 3.85714286 0 0 Z " fill="#EFE6D6" transform="translate(597,825)"/>
<path d="M0 0 C2.96404505 2.80804268 5.44499019 5.18315774 7 9 C3.17475764 7.549046 1.80909034 5.61818068 0 2 C0 1.34 0 0.68 0 0 Z " fill="#F0E9DC" transform="translate(585,808)"/>
<path d="M0 0 C3.19199167 2.41556126 5.74716687 4.68003538 8 8 C7.01 8 6.02 8 5 8 C0 2.65116279 0 2.65116279 0 0 Z " fill="#EDE7E0" transform="translate(568,580)"/>
<path d="M0 0 C0.78375 0.04125 1.5675 0.0825 2.375 0.125 C1.375 2.125 1.375 2.125 -0.5625 3.0625 C-2.94471493 4.07845922 -2.94471493 4.07845922 -4.625 7.125 C-4.75 4.75 -4.75 4.75 -4.625 2.125 C-2.625 0.125 -2.625 0.125 0 0 Z " fill="#271710" transform="translate(429.625,255.875)"/>
<path d="M0 0 C2.40820361 2.40820361 2.68097423 3.65022937 3 7 C2.0625 9.3125 2.0625 9.3125 1 11 C-0.17571451 7.32589215 -0.07366746 3.83070817 0 0 Z " fill="#E6D7C5" transform="translate(747,183)"/>
<path d="M0 0 C0.33 0.99 0.66 1.98 1 3 C-1.31 4.98 -3.62 6.96 -6 9 C-4.25618453 5.51236907 -2.47193291 2.96631949 0 0 Z " fill="#281610" transform="translate(556,731)"/>
<path d="M0 0 C1.65 1.65 3.3 3.3 5 5 C4.01 5.33 3.02 5.66 2 6 C1.01 5.01 0.02 4.02 -1 3 C-0.67 2.01 -0.34 1.02 0 0 Z " fill="#DDD2C2" transform="translate(517,442)"/>
</svg>
